<svg width="112" height="113" viewBox="0 0 112 113" fill="none" xmlns="http://www.w3.org/2000/svg">
<path d="M40.46 106.295H9.33337C7.42004 106.295 5.83337 104.709 5.83337 102.795V74.7955C5.83337 67.7022 11.5734 61.9622 18.6667 61.9622H40.46C42.3734 61.9622 43.96 63.5488 43.96 65.4622V102.795C43.96 104.709 42.3734 106.295 40.46 106.295ZM12.8334 99.2955H36.96V68.9622H18.6667C15.4467 68.9622 12.8334 71.5755 12.8334 74.7955V99.2955Z" fill="#006CFF"/>
<path d="M71.5407 106.295H40.4141C38.5007 106.295 36.9141 104.709 36.9141 102.795V56.1287C36.9141 49.0354 42.6541 43.2954 49.7474 43.2954H62.2074C69.3007 43.2954 75.0407 49.0354 75.0407 56.1287V102.795C75.0407 104.709 73.5007 106.295 71.5407 106.295ZM43.9607 99.2954H68.0874V56.1287C68.0874 52.9087 65.4741 50.2954 62.2541 50.2954H49.7941C46.5741 50.2954 43.9607 52.9087 43.9607 56.1287V99.2954Z" fill="#006CFF"/>
<path d="M102.667 106.295H71.5404C69.6271 106.295 68.0404 104.709 68.0404 102.795V79.4622C68.0404 77.5488 69.6271 75.9622 71.5404 75.9622H93.3337C100.427 75.9622 106.167 81.7022 106.167 88.7955V102.795C106.167 104.709 104.58 106.295 102.667 106.295ZM75.0404 99.2955H99.1671V88.7955C99.1671 85.5755 96.5537 82.9622 93.3337 82.9622H75.0404V99.2955Z" fill="#006CFF"/>
<path d="M63.9329 39.0953C62.8129 39.0953 61.4129 38.7686 59.8262 37.8353L55.9995 35.5486L52.2195 37.7887C48.3929 40.0754 45.8729 38.722 44.9395 38.0687C44.0062 37.4153 41.9995 35.362 42.9795 31.0687L43.8662 27.1953L40.6929 24.022C38.7329 22.062 38.0329 19.7286 38.7329 17.5819C39.4329 15.4353 41.3462 13.9419 44.0529 13.4752L48.1129 12.7753L50.3995 8.20203C52.9195 3.2087 59.0329 3.2087 61.5062 8.20203L63.7929 12.7753L67.8529 13.4752C70.5595 13.9419 72.5195 15.4353 73.1729 17.5819C73.8729 19.7286 73.1262 22.062 71.2129 24.022L68.0395 27.1953L68.9262 31.0687C69.9062 35.4087 67.8995 37.4154 66.9662 38.1154C66.5462 38.4887 65.4729 39.0953 63.9329 39.0953ZM55.9995 28.5019C57.1195 28.5019 58.2395 28.782 59.1729 29.342L61.7862 30.882L61.2262 28.3619C60.7595 26.4019 61.4595 24.022 62.9062 22.5753L65.2862 20.1953L62.3462 19.682C60.4795 19.3553 58.6595 18.002 57.8195 16.322L55.9995 12.822L54.2262 16.322C53.3862 18.002 51.5662 19.3553 49.6995 19.682L46.7595 20.1487L49.1395 22.5286C50.5862 23.9753 51.2395 26.3554 50.8195 28.3154L50.2595 30.8353L52.8729 29.2953C53.7595 28.7353 54.8795 28.5019 55.9995 28.5019Z" fill="#006CFF"/>
</svg>
