<svg width="32" height="32" viewBox="0 0 32 32" fill="none" xmlns="http://www.w3.org/2000/svg">
<rect width="32" height="32" rx="8" fill="white"/>
<path d="M17.6566 12.3476H19.1272C19.2624 12.3476 19.3722 12.2441 19.3722 12.1166V10.7309C19.3722 10.6035 19.2624 10.5 19.1272 10.5H17.6566C16.1704 10.5 14.9607 11.6395 14.9607 13.0404V14.657H13.2451C13.1098 14.657 13 14.7605 13 14.888V16.2737C13 16.4011 13.1098 16.5046 13.2451 16.5046H14.9607V21.3545C14.9607 21.482 15.0705 21.5854 15.2058 21.5854H16.6763C16.8116 21.5854 16.9214 21.482 16.9214 21.3545V16.5046H18.637C18.7424 16.5046 18.836 16.4409 18.8698 16.3466L19.36 14.961C19.385 14.8908 19.3722 14.8132 19.3262 14.7527C19.2796 14.6926 19.2061 14.657 19.1272 14.657H16.9214V13.0404C16.9214 12.6584 17.2513 12.3476 17.6566 12.3476Z" fill="#006CFF"/>
</svg>
