<svg width="151" height="48" viewBox="0 0 151 48" fill="none" xmlns="http://www.w3.org/2000/svg">
<path d="M52.0276 39V11.5227H58.8969V22.4027H69.6489V11.5227H76.5182V39H69.6489V28.12H58.8969V39H52.0276ZM91.6982 39.4267C88.1711 39.4267 85.3408 38.5591 83.2075 36.824C81.0742 35.0604 80.0075 32.4151 80.0075 28.888C80.0075 25.6738 80.8893 23.1138 82.6529 21.208C84.4164 19.3022 87.0617 18.3494 90.5888 18.3494C93.8031 18.3494 96.2919 19.1742 98.0555 20.824C99.8191 22.4738 100.701 24.6925 100.701 27.48V31.1067H86.3648C86.6777 32.4436 87.4031 33.3822 88.5408 33.9227C89.7071 34.4347 91.2857 34.6907 93.2768 34.6907C94.3862 34.6907 95.5097 34.5911 96.6475 34.392C97.8137 34.1929 98.7808 33.9369 99.5488 33.624V38.104C98.5817 38.5591 97.4297 38.8862 96.0928 39.0853C94.7559 39.3129 93.2911 39.4267 91.6982 39.4267ZM86.3648 27.1387H94.7275V26.2427C94.7275 25.2471 94.4288 24.4649 93.8315 23.896C93.2342 23.2987 92.2244 23 90.8022 23C89.1524 23 88.0004 23.3414 87.3462 24.024C86.692 24.6782 86.3648 25.7165 86.3648 27.1387ZM115.031 39.4267C111.504 39.4267 108.674 38.5591 106.541 36.824C104.407 35.0604 103.341 32.4151 103.341 28.888C103.341 25.6738 104.223 23.1138 105.986 21.208C107.75 19.3022 110.395 18.3494 113.922 18.3494C117.136 18.3494 119.625 19.1742 121.389 20.824C123.152 22.4738 124.034 24.6925 124.034 27.48V31.1067H109.698C110.011 32.4436 110.736 33.3822 111.874 33.9227C113.04 34.4347 114.619 34.6907 116.61 34.6907C117.719 34.6907 118.843 34.5911 119.981 34.392C121.147 34.1929 122.114 33.9369 122.882 33.624V38.104C121.915 38.5591 120.763 38.8862 119.426 39.0853C118.089 39.3129 116.624 39.4267 115.031 39.4267ZM109.698 27.1387H118.061V26.2427C118.061 25.2471 117.762 24.4649 117.165 23.896C116.567 23.2987 115.558 23 114.135 23C112.486 23 111.334 23.3414 110.679 24.024C110.025 24.6782 109.698 25.7165 109.698 27.1387ZM136.018 39.4267C134.055 39.4267 132.377 39.1138 130.983 38.488C129.59 37.8622 128.523 36.8382 127.783 35.416C127.044 33.9653 126.674 32.0311 126.674 29.6133C126.674 27.1671 127.101 25.1191 127.954 23.4694C128.807 21.7911 129.974 20.5254 131.453 19.672C132.96 18.7902 134.681 18.3494 136.615 18.3494C137.668 18.3494 138.607 18.4631 139.431 18.6907C140.285 18.9182 141.081 19.2596 141.821 19.7147V10.2427H148.69V39H142.759L142.375 37.2933C141.551 38.0044 140.626 38.5449 139.602 38.9147C138.578 39.256 137.383 39.4267 136.018 39.4267ZM137.981 34.4347C139.488 34.4347 140.768 33.9227 141.821 32.8987V24.7067C140.854 23.8249 139.616 23.384 138.109 23.384C136.658 23.384 135.549 23.9387 134.781 25.048C134.041 26.1289 133.671 27.6649 133.671 29.656C133.671 31.5902 134.027 32.8702 134.738 33.496C135.478 34.1218 136.559 34.4347 137.981 34.4347Z" fill="#454545"/>
<path opacity="0.82" d="M31.3178 0.177874L22.2149 8.5583C23.3863 9.64465 24.0553 10.2331 24.689 10.8603C27.2924 13.3934 28.8664 16.8165 29.1032 20.46C29.34 24.1034 28.2225 27.705 25.9693 30.5601C21.1938 36.6385 12.9071 37.8866 6.14713 33.5476C0.296169 29.7874 -1.7267 21.5719 1.60207 14.8727C4.7132 8.60033 9.94001 4.8175 16.2807 2.45404C21.101 0.646686 26.0398 -0.449365 31.3178 0.177874Z" fill="#006CFF"/>
<path opacity="0.82" d="M7.68359 48.0001L16.9658 39.4451C15.7463 38.2909 15.0037 37.6248 14.3027 36.9168C11.8204 34.4002 10.3216 31.0625 10.0822 27.5181C9.84284 23.9738 10.879 20.4614 13 17.6276C17.2122 11.963 25.2013 10.2074 31.5035 13.5602C38.0587 17.0488 40.8017 24.0487 38.2251 31.2037C37.4761 33.273 36.4455 35.3842 35.0244 37.0461C27.9539 45.4103 18.5661 48.0131 7.68359 48.0001Z" fill="#8ABBFF"/>
</svg>
