<svg width="1440" height="1036" viewBox="0 0 1440 1036" fill="none" xmlns="http://www.w3.org/2000/svg">
<g filter="url(#filter0_f_6202_53939)">
<path d="M-156 501.674C17.8289 186.269 252.335 -34.9568 581.795 8.43421C845.053 43.1064 923.863 345.649 1119.49 408.842C1372.93 490.708 1577.82 416.671 1608 383.676" stroke="#767676" stroke-opacity="0.11"/>
<path d="M-156 577.407C17.8289 262.002 252.335 40.7761 581.795 84.1671C845.053 118.839 923.863 421.382 1119.49 484.575C1372.93 566.441 1577.82 492.404 1608 459.409" stroke="#767676" stroke-opacity="0.11"/>
<path d="M-156 653.14C17.8289 337.735 252.335 116.509 581.795 159.901C845.053 194.573 923.863 497.115 1119.49 560.308C1372.93 642.174 1577.82 568.137 1608 535.143" stroke="#767676" stroke-opacity="0.11"/>
<path d="M-156 728.873C17.8289 414.205 252.335 193.497 581.795 236.786C845.053 271.377 923.863 573.213 1119.49 636.258C1372.93 717.933 1577.82 644.069 1608 611.152" stroke="#767676" stroke-opacity="0.11"/>
<path d="M-156 805.771C17.8289 490.367 252.335 269.141 581.795 312.532C845.053 347.204 923.863 649.747 1119.49 712.939C1372.93 794.806 1577.82 720.769 1608 687.774" stroke="#767676" stroke-opacity="0.11"/>
<path d="M-156 881.505C17.8289 566.1 252.335 344.874 581.795 388.265C845.053 422.937 923.863 725.48 1119.49 788.673C1372.93 870.539 1577.82 796.502 1608 763.508" stroke="#767676" stroke-opacity="0.11"/>
<path d="M-156 957.238C17.8289 641.833 252.335 420.607 581.795 463.998C845.053 498.67 923.863 801.213 1119.49 864.406C1372.93 946.272 1577.82 872.235 1608 839.24" stroke="#767676" stroke-opacity="0.11"/>
<path d="M-156 1032.97C17.8289 718.303 252.335 497.594 581.795 540.884C845.053 575.475 923.863 877.311 1119.49 940.356C1372.93 1022.03 1577.82 948.167 1608 915.249" stroke="#767676" stroke-opacity="0.11"/>
</g>
<defs>
<filter id="filter0_f_6202_53939" x="-158.438" y="0.499512" width="1768.81" height="1034.71" filterUnits="userSpaceOnUse" color-interpolation-filters="sRGB">
<feFlood flood-opacity="0" result="BackgroundImageFix"/>
<feBlend mode="normal" in="SourceGraphic" in2="BackgroundImageFix" result="shape"/>
<feGaussianBlur stdDeviation="1" result="effect1_foregroundBlur_6202_53939"/>
</filter>
</defs>
</svg>
