<svg width="79" height="13" viewBox="0 0 79 13" fill="none" xmlns="http://www.w3.org/2000/svg">
<g clip-path="url(#clip0_38_16523)">
<path d="M7.02028 0.653961C7.25089 0.106231 8.0363 0.106232 8.2669 0.653962L9.62792 3.88676C9.72519 4.11767 9.94501 4.27544 10.1973 4.29542L13.7301 4.57522C14.3286 4.62263 14.5713 5.36057 14.1153 5.74649L11.4237 8.02424C11.2315 8.18696 11.1475 8.44226 11.2062 8.68548L12.0286 12.0912C12.1679 12.6682 11.5325 13.1243 11.02 12.8151L7.99548 10.99C7.77944 10.8597 7.50774 10.8597 7.29171 10.99L4.26715 12.8151C3.75469 13.1243 3.11929 12.6682 3.25861 12.0912L4.08094 8.68548C4.13968 8.44226 4.05572 8.18696 3.86347 8.02424L1.17185 5.74649C0.715816 5.36057 0.958523 4.62263 1.55708 4.57522L5.08987 4.29542C5.34221 4.27544 5.56202 4.11767 5.65924 3.88676L7.02028 0.653961Z" fill="#FFFF00"/>
<path d="M23.1209 0.653961C23.3515 0.106231 24.1369 0.106232 24.3675 0.653962L25.7285 3.88676C25.8258 4.11767 26.0456 4.27544 26.2979 4.29542L29.8307 4.57522C30.4292 4.62263 30.6719 5.36057 30.2159 5.74649L27.5243 8.02424C27.3321 8.18696 27.2481 8.44226 27.3068 8.68548L28.1291 12.0912C28.2685 12.6682 27.6331 13.1243 27.1206 12.8151L24.0961 10.99C23.88 10.8597 23.6083 10.8597 23.3923 10.99L20.3677 12.8151C19.8553 13.1243 19.2199 12.6682 19.3592 12.0912L20.1815 8.68548C20.2403 8.44226 20.1563 8.18696 19.9641 8.02424L17.2724 5.74649C16.8164 5.36057 17.0591 4.62263 17.6577 4.57522L21.1905 4.29542C21.4428 4.27544 21.6626 4.11767 21.7598 3.88676L23.1209 0.653961Z" fill="#FFFF00"/>
<path d="M39.2214 0.653961C39.452 0.106231 40.2374 0.106232 40.468 0.653962L41.829 3.88676C41.9263 4.11767 42.1461 4.27544 42.3984 4.29542L45.9312 4.57522C46.5297 4.62263 46.7724 5.36057 46.3164 5.74649L43.6248 8.02424C43.4326 8.18696 43.3486 8.44226 43.4073 8.68548L44.2297 12.0912C44.369 12.6682 43.7336 13.1243 43.2211 12.8151L40.1966 10.99C39.9806 10.8597 39.7089 10.8597 39.4928 10.99L36.4683 12.8151C35.9558 13.1243 35.3204 12.6682 35.4597 12.0912L36.2821 8.68548C36.3408 8.44226 36.2568 8.18696 36.0646 8.02424L33.373 5.74649C32.9169 5.36057 33.1596 4.62263 33.7582 4.57522L37.291 4.29542C37.5433 4.27544 37.7631 4.11767 37.8603 3.88676L39.2214 0.653961Z" fill="#FFFF00"/>
<path d="M55.322 0.653961C55.5526 0.106231 56.3381 0.106232 56.5687 0.653962L57.9297 3.88676C58.027 4.11767 58.2468 4.27544 58.4991 4.29542L62.0318 4.57522C62.6304 4.62263 62.8731 5.36057 62.4171 5.74649L59.7255 8.02424C59.5333 8.18696 59.4492 8.44226 59.508 8.68548L60.3303 12.0912C60.4696 12.6682 59.8342 13.1243 59.3218 12.8151L56.2972 10.99C56.0812 10.8597 55.8095 10.8597 55.5935 10.99L52.5689 12.8151C52.0565 13.1243 51.421 12.6682 51.5604 12.0912L52.3827 8.68548C52.4414 8.44226 52.3575 8.18696 52.1652 8.02424L49.4736 5.74649C49.0176 5.36057 49.2603 4.62263 49.8588 4.57522L53.3916 4.29542C53.644 4.27544 53.8638 4.11767 53.961 3.88676L55.322 0.653961Z" fill="#FFFF00"/>
<path d="M71.4226 0.653961C71.6532 0.106231 72.4386 0.106232 72.6692 0.653962L74.0302 3.88676C74.1275 4.11767 74.3473 4.27544 74.5996 4.29542L78.1324 4.57522C78.7309 4.62263 78.9736 5.36057 78.5176 5.74649L75.826 8.02424C75.6338 8.18696 75.5498 8.44226 75.6085 8.68548L76.4308 12.0912C76.5702 12.6682 75.9348 13.1243 75.4223 12.8151L72.3978 10.99C72.1817 10.8597 71.91 10.8597 71.694 10.99L68.6694 12.8151C68.157 13.1243 67.5216 12.6682 67.6609 12.0912L68.4832 8.68548C68.542 8.44226 68.458 8.18696 68.2658 8.02424L65.5741 5.74649C65.1181 5.36057 65.3608 4.62263 65.9594 4.57522L69.4922 4.29542C69.7445 4.27544 69.9643 4.11767 70.0615 3.88676L71.4226 0.653961Z" fill="#FFFF00"/>
</g>
<defs>
<clipPath id="clip0_38_16523">
<rect width="77.8195" height="12.6718" fill="white" transform="translate(0.934998 0.243164)"/>
</clipPath>
</defs>
</svg>
