<svg width="24" height="24" viewBox="0 0 24 24" fill="none" xmlns="http://www.w3.org/2000/svg">
<path d="M7.84212 2.53917C6.59412 2.22237 5.28612 2.35677 4.26132 2.93037C3.21732 3.51357 2.48532 4.54797 2.44932 5.93157C2.39412 8.09397 2.89452 10.9956 4.88172 14.4012C6.84372 17.7648 9.00972 19.7808 10.8073 20.9784C11.9425 21.7356 13.1965 21.756 14.2681 21.2628C15.3241 20.7768 16.1809 19.806 16.6261 18.6024C16.7369 18.303 16.7814 17.9832 16.7566 17.665C16.7317 17.3467 16.6381 17.0377 16.4821 16.7592L15.3373 14.7168C14.9854 14.0882 14.419 13.6072 13.7417 13.3617C13.0644 13.1163 12.3214 13.1228 11.6485 13.38L10.8493 13.686C10.4617 13.8336 10.1053 13.7652 9.90372 13.566C9.22572 12.9 8.74092 11.9964 8.52132 11.022C8.45172 10.7148 8.59332 10.3524 8.93172 10.0968L9.65292 9.55197C10.236 9.11201 10.6385 8.47445 10.7849 7.75887C10.9314 7.04328 10.8118 6.29885 10.4485 5.66517L9.28212 3.63117C9.12759 3.36189 8.92047 3.12644 8.67309 2.93884C8.4257 2.75124 8.14311 2.61532 7.84212 2.53917ZM3.64932 5.96397C3.67332 5.03517 4.14372 4.37157 4.84692 3.97797C5.56932 3.57357 6.55572 3.44997 7.54692 3.70197C7.69216 3.73866 7.82853 3.80421 7.9479 3.89471C8.06727 3.98522 8.16719 4.09883 8.24172 4.22877L9.40692 6.26277C9.62485 6.64282 9.69671 7.0893 9.609 7.51854C9.5213 7.94777 9.28007 8.33028 8.93052 8.59438L8.20932 9.13917C7.58532 9.60958 7.15332 10.416 7.35012 11.286C7.61652 12.4644 8.20572 13.5816 9.06252 14.4228C9.68892 15.0372 10.5817 15.0732 11.2777 14.8068L12.0769 14.5008C12.4807 14.3462 12.9266 14.3422 13.3332 14.4893C13.7397 14.6365 14.0797 14.9251 14.2909 15.3024L15.4345 17.346C15.5785 17.6028 15.6025 17.91 15.5005 18.186C15.1525 19.128 14.4985 19.8348 13.7665 20.172C13.0501 20.502 12.2401 20.4924 11.4733 19.98C9.82812 18.8832 7.78932 17.0028 5.91732 13.7964C4.04412 10.5804 3.60012 7.89957 3.65052 5.96397H3.64932ZM15.2917 2.47437C15.1526 2.39704 14.9885 2.37812 14.8355 2.42178C14.6825 2.46543 14.5531 2.5681 14.4757 2.70717C14.3984 2.84625 14.3795 3.01036 14.4231 3.16339C14.4668 3.31642 14.5694 3.44584 14.7085 3.52317L15.1693 3.77997C16.6089 4.57966 17.8334 5.71599 18.7382 7.09186C19.6431 8.46773 20.2013 10.0422 20.3653 11.6808L20.4037 12.0588C20.4082 12.1397 20.4291 12.2188 20.4651 12.2914C20.501 12.3641 20.5513 12.4287 20.6129 12.4813C20.6745 12.534 20.7461 12.5736 20.8235 12.5978C20.9008 12.622 20.9822 12.6303 21.0628 12.6222C21.1435 12.6141 21.2216 12.5897 21.2926 12.5506C21.3635 12.5115 21.4258 12.4584 21.4757 12.3945C21.5256 12.3306 21.562 12.2573 21.5827 12.179C21.6035 12.1007 21.6082 12.019 21.5965 11.9388L21.5593 11.562C21.3762 9.73028 20.7523 7.97017 19.7409 6.43212C18.7294 4.89406 17.3606 3.62382 15.7513 2.72997L15.2917 2.47437ZM13.8853 5.69037C13.9673 5.55402 14.1001 5.4558 14.2544 5.41732C14.4088 5.37884 14.5721 5.40325 14.7085 5.48517L14.8573 5.57397C15.826 6.15472 16.6569 6.93888 17.2928 7.87227C17.9287 8.80565 18.3542 9.86599 18.5401 10.98L18.5929 11.3004C18.608 11.3789 18.6073 11.4597 18.5907 11.538C18.5741 11.6163 18.542 11.6904 18.4963 11.7561C18.4507 11.8218 18.3923 11.8777 18.3247 11.9205C18.2571 11.9633 18.1816 11.9922 18.1027 12.0054C18.0238 12.0186 17.9431 12.0159 17.8652 11.9974C17.7874 11.9789 17.714 11.9451 17.6494 11.8979C17.5849 11.8506 17.5304 11.7909 17.4892 11.7223C17.4481 11.6537 17.421 11.5776 17.4097 11.4984L17.3557 11.178C17.1987 10.2355 16.8389 9.33844 16.3013 8.54865C15.7636 7.75886 15.0609 7.09522 14.2417 6.60357L14.0929 6.51357C14.0253 6.47309 13.9663 6.41967 13.9194 6.35638C13.8724 6.2931 13.8384 6.22118 13.8192 6.14473C13.8 6.06829 13.7961 5.98881 13.8077 5.91086C13.8192 5.8329 13.846 5.75798 13.8865 5.69037H13.8853Z" fill="#FEFEFD"/>
</svg>
