<svg width="32" height="32" viewBox="0 0 32 32" fill="none" xmlns="http://www.w3.org/2000/svg">
<rect width="32" height="32" rx="8" fill="white"/>
<path d="M16 15.76C15.7548 15.76 15.515 15.8327 15.3111 15.969C15.1072 16.1052 14.9482 16.2989 14.8544 16.5255C14.7605 16.7521 14.736 17.0014 14.7838 17.2419C14.8317 17.4824 14.9498 17.7034 15.1232 17.8768C15.2966 18.0502 15.5176 18.1683 15.7581 18.2162C15.9986 18.264 16.2479 18.2395 16.4745 18.1456C16.7011 18.0518 16.8948 17.8928 17.031 17.6889C17.1673 17.485 17.24 17.2452 17.24 17C17.24 16.8372 17.2079 16.6759 17.1456 16.5255C17.0833 16.375 16.992 16.2383 16.8768 16.1232C16.7617 16.008 16.625 15.9167 16.4745 15.8544C16.3241 15.7921 16.1628 15.76 16 15.76ZM20.965 14.535C20.9624 14.1489 20.8913 13.7663 20.755 13.405C20.6546 13.1406 20.4994 12.9005 20.2994 12.7006C20.0995 12.5006 19.8594 12.3454 19.595 12.245C19.2337 12.1087 18.8511 12.0376 18.465 12.035C17.82 12 17.63 12 16 12C14.37 12 14.18 12 13.535 12.035C13.1489 12.0376 12.7663 12.1087 12.405 12.245C12.1406 12.3454 11.9005 12.5006 11.7006 12.7006C11.5006 12.9005 11.3454 13.1406 11.245 13.405C11.1087 13.7663 11.0376 14.1489 11.035 14.535C11 15.18 11 15.37 11 17C11 18.63 11 18.82 11.035 19.465C11.0404 19.8525 11.1114 20.2362 11.245 20.6C11.3449 20.8632 11.5001 21.1019 11.7 21.3C11.8991 21.5012 12.1397 21.6564 12.405 21.755C12.7663 21.8913 13.1489 21.9624 13.535 21.965C14.18 22 14.37 22 16 22C17.63 22 17.82 22 18.465 21.965C18.8511 21.9624 19.2337 21.8913 19.595 21.755C19.8603 21.6564 20.1009 21.5012 20.3 21.3C20.4999 21.1019 20.6551 20.8632 20.755 20.6C20.8911 20.2369 20.9622 19.8527 20.965 19.465C21 18.82 21 18.63 21 17C21 15.37 21 15.18 20.965 14.535ZM19.695 18.535C19.679 18.8436 19.6131 19.1475 19.5 19.435C19.4029 19.6748 19.2586 19.8927 19.0757 20.0757C18.8927 20.2586 18.6748 20.4029 18.435 20.5C18.1448 20.6068 17.8391 20.6659 17.53 20.675C17.135 20.675 17.03 20.675 16 20.675C14.97 20.675 14.865 20.675 14.47 20.675C14.1609 20.6659 13.8552 20.6068 13.565 20.5C13.3171 20.4079 13.0931 20.2609 12.91 20.07C12.7288 19.8906 12.5889 19.6739 12.5 19.435C12.3928 19.1451 12.3353 18.8391 12.33 18.53C12.33 18.135 12.33 18.03 12.33 17C12.33 15.97 12.33 15.865 12.33 15.47C12.3353 15.1609 12.3928 14.8549 12.5 14.565C12.5921 14.3171 12.7391 14.0931 12.93 13.91C13.1102 13.7298 13.3266 13.59 13.565 13.5C13.8552 13.3932 14.1609 13.3341 14.47 13.325C14.865 13.325 14.97 13.325 16 13.325C17.03 13.325 17.135 13.325 17.53 13.325C17.8391 13.3341 18.1448 13.3932 18.435 13.5C18.6829 13.5921 18.9069 13.7391 19.09 13.93C19.2712 14.1094 19.4111 14.3261 19.5 14.565C19.6068 14.8552 19.6659 15.1609 19.675 15.47C19.675 15.865 19.675 15.97 19.675 17C19.675 18.03 19.71 18.135 19.695 18.53V18.535ZM18.895 14.815C18.8355 14.6535 18.7416 14.5068 18.6199 14.3851C18.4982 14.2634 18.3515 14.1695 18.19 14.11C17.9682 14.0331 17.7347 13.9959 17.5 14C17.11 14 17 14 16 14C15 14 14.89 14 14.5 14C14.2641 14.0023 14.0305 14.0463 13.81 14.13C13.651 14.1868 13.5058 14.2769 13.3843 14.3941C13.2627 14.5113 13.1675 14.6531 13.105 14.81C13.0324 15.0327 12.9969 15.2658 13 15.5C13 15.89 13 16 13 17C13 18 13 18.11 13 18.5C13.005 18.7356 13.0489 18.9688 13.13 19.19C13.1895 19.3515 13.2834 19.4982 13.4051 19.6199C13.5268 19.7416 13.6735 19.8355 13.835 19.895C14.0483 19.9735 14.2728 20.0173 14.5 20.025C14.89 20.025 15 20.025 16 20.025C17 20.025 17.11 20.025 17.5 20.025C17.7359 20.0227 17.9695 19.9787 18.19 19.895C18.3515 19.8355 18.4982 19.7416 18.6199 19.6199C18.7416 19.4982 18.8355 19.3515 18.895 19.19C18.9787 18.9695 19.0227 18.7359 19.025 18.5C19.025 18.11 19.025 18 19.025 17C19.025 16 19.025 15.89 19.025 15.5C19.0251 15.2639 18.9811 15.0299 18.895 14.81V14.815ZM16 18.91C15.7494 18.91 15.5013 18.8606 15.2698 18.7645C15.0384 18.6685 14.8282 18.5277 14.6512 18.3503C14.4742 18.1728 14.334 17.9623 14.2386 17.7305C14.1431 17.4988 14.0943 17.2506 14.095 17C14.095 16.622 14.2071 16.2525 14.4172 15.9383C14.6273 15.6241 14.9259 15.3793 15.2752 15.2349C15.6245 15.0905 16.0088 15.053 16.3795 15.1271C16.7501 15.2012 17.0904 15.3836 17.3573 15.6512C17.6243 15.9188 17.8058 16.2596 17.8789 16.6305C17.952 17.0013 17.9135 17.3855 17.7682 17.7344C17.6228 18.0833 17.3773 18.3813 17.0625 18.5905C16.7477 18.7998 16.378 18.911 16 18.91ZM18 15.465C17.8895 15.4533 17.7872 15.4011 17.7128 15.3185C17.6385 15.2359 17.5974 15.1286 17.5974 15.0175C17.5974 14.9064 17.6385 14.7991 17.7128 14.7165C17.7872 14.6339 17.8895 14.5817 18 14.57C18.1105 14.5817 18.2128 14.6339 18.2872 14.7165C18.3615 14.7991 18.4026 14.9064 18.4026 15.0175C18.4026 15.1286 18.3615 15.2359 18.2872 15.3185C18.2128 15.4011 18.1105 15.4533 18 15.465Z" fill="#006CFF"/>
</svg>
