<svg width="145" height="40" viewBox="0 0 145 40" fill="none" xmlns="http://www.w3.org/2000/svg">
<g clip-path="url(#clip0_3385_95)">
<path opacity="0.82" d="M26.0962 0.148229L18.5105 7.13193C19.4867 8.03722 20.0441 8.52759 20.5723 9.05029C22.7417 11.1612 24.0534 14.0138 24.2507 17.05C24.448 20.0862 23.5168 23.0875 21.6392 25.4668C17.6596 30.5322 10.754 31.5722 5.12066 27.9564C0.244854 24.8229 -1.44087 17.9766 1.33311 12.3939C3.92571 7.16695 8.2814 4.01459 13.5653 2.04504C17.5822 0.538906 21.6979 -0.374471 26.0962 0.148229Z" fill="white"/>
<path opacity="0.82" d="M6.40137 40L14.1365 32.8708C13.1203 31.9089 12.5015 31.3539 11.9173 30.7638C9.8487 28.6666 8.59969 25.8852 8.40021 22.9316C8.20074 19.978 9.06424 17.051 10.8317 14.6894C14.3419 9.96897 20.9994 8.50595 26.2513 11.3C31.714 14.2072 33.9998 20.0404 31.8527 26.0029C31.2285 27.7273 30.3696 29.4867 29.1854 30.8716C23.2933 37.8418 15.4702 40.0107 6.40137 40Z" fill="white"/>
<path d="M57.1332 19.2213C55.9757 18.6457 54.7617 18.1942 53.511 17.8742C52.5268 17.5859 51.6999 17.3353 51.0225 17.1198C50.4655 16.9637 49.9407 16.7082 49.4728 16.3653C49.2989 16.2267 49.16 16.0485 49.0673 15.8453C48.9746 15.6421 48.9307 15.4196 48.9393 15.196C48.9228 14.9241 48.9799 14.6529 49.1044 14.4113C49.2289 14.1697 49.4162 13.9669 49.6461 13.8246C50.2577 13.4927 50.9481 13.338 51.6413 13.3773C52.3048 13.3756 52.9654 13.4663 53.6044 13.6468C54.2228 13.8188 54.8281 14.0358 55.4155 14.2961C55.8876 14.5047 56.3487 14.7376 56.7971 14.9939C57.0398 15.1132 57.2586 15.2767 57.4426 15.4762L59.6538 11.2569C58.9977 10.8851 58.2553 10.5133 57.4266 10.1415C56.5644 9.75778 55.6723 9.44687 54.7593 9.21191C53.7911 8.96194 52.7953 8.837 51.796 8.84009C50.4141 8.82316 49.044 9.0985 47.7737 9.64839C46.5912 10.1557 45.5742 10.9897 44.8397 12.0544C44.1088 13.1322 43.7434 14.4416 43.7434 15.9828C43.709 16.9472 43.9251 17.904 44.3702 18.7579C44.8383 19.5493 45.5067 20.2003 46.3067 20.6439C47.3519 21.2318 48.4608 21.6956 49.6115 22.0261C50.6357 22.3369 51.5417 22.6144 52.3294 22.8587C52.9864 23.0491 53.6146 23.3292 54.1965 23.6912C54.4138 23.8273 54.592 24.0186 54.7132 24.2461C54.8344 24.4735 54.8945 24.729 54.8874 24.9872C54.8912 25.2263 54.8319 25.4622 54.7157 25.6705C54.5994 25.8789 54.4304 26.0522 54.2259 26.1727C53.7849 26.4565 53.1145 26.5975 52.2147 26.5957C51.3748 26.5954 50.5387 26.4813 49.7288 26.2562C48.9685 26.0495 48.2249 25.7847 47.5043 25.4641C46.9277 25.2123 46.3682 24.9225 45.8292 24.5965C45.5403 24.439 45.2716 24.2462 45.0291 24.0226L42.8179 28.4575C43.7042 29.05 44.6512 29.5441 45.6425 29.9313C46.6799 30.3368 47.7511 30.6479 48.8433 30.8608C49.9205 31.0748 51.0155 31.184 52.1134 31.1868C53.1364 31.1892 54.1561 31.0699 55.1514 30.8312C56.0877 30.6173 56.9772 30.2319 57.776 29.6942C58.5441 29.1688 59.1718 28.4599 59.6031 27.6303C60.0802 26.6599 60.3121 25.5852 60.278 24.5022C60.278 23.1497 60.0068 22.0621 59.4644 21.2394C58.8733 20.3743 58.07 19.679 57.1332 19.2213Z" fill="white"/>
<path d="M72.4358 26.3802C72.1429 26.626 71.8111 26.82 71.4542 26.9541C70.9681 27.1303 70.4488 27.1924 69.9354 27.136C69.422 27.0795 68.928 26.9058 68.4909 26.6281C67.9499 26.2587 67.5111 25.7561 67.2159 25.1678C66.8954 24.4915 66.7278 23.7518 66.725 23.002C66.7222 22.2523 66.8844 21.5113 67.1999 20.8326C67.4966 20.2525 67.9426 19.7639 68.4909 19.4181C69.0389 19.0744 69.673 18.8967 70.318 18.9062C70.8768 18.9006 71.4278 19.0398 71.9183 19.3103C72.4038 19.5821 72.811 19.9767 73.0999 20.4554L77.8851 18.9978C77.2384 17.7104 76.2431 16.6349 75.0151 15.8966C73.7365 15.0991 72.1762 14.7012 70.334 14.703C68.4918 14.7048 66.9367 15.0874 65.6689 15.8508C64.4237 16.5771 63.3989 17.6337 62.7055 18.9062C62.0218 20.1591 61.6674 21.5682 61.6759 22.9988C61.6699 24.0864 61.8681 25.1652 62.2601 26.1782C62.6451 27.1707 63.2248 28.0744 63.9645 28.8348C64.7365 29.628 65.6616 30.2525 66.6824 30.6696C68.9332 31.5235 71.4074 31.5635 73.6841 30.7828C74.625 30.4351 75.4941 29.9144 76.2473 29.247C76.9472 28.6304 77.5161 27.877 77.9197 27.0323L73.1186 25.5423C72.9483 25.8646 72.7162 26.1494 72.4358 26.3802Z" fill="white"/>
<path d="M89.3383 14.5035C88.3424 14.5338 87.379 14.8682 86.575 15.4627C85.656 16.1313 84.917 17.0214 84.4252 18.0519V14.9373H79.9121V31.0305H84.8199V21.2636C85.3024 20.4745 86.0389 19.8771 86.9057 19.5715C87.9353 19.1768 89.0294 18.9821 90.1305 18.9977V14.5332C90.0343 14.5111 89.9357 14.5011 89.8371 14.5035H89.3383Z" fill="white"/>
<path d="M99.1619 26.0407L95.4277 14.9374H90.3599L96.4946 31.0845C96.3718 31.6549 96.1866 32.2097 95.9425 32.7388C95.7865 33.0941 95.5375 33.3996 95.2223 33.6226C94.922 33.8064 94.5759 33.8999 94.2248 33.892C93.8993 33.8884 93.575 33.8523 93.2565 33.7842C92.8991 33.7115 92.515 33.6145 92.1043 33.4905V37.7206C92.5117 37.8804 92.9332 38.0004 93.3632 38.079C93.779 38.1518 94.2002 38.1878 94.6222 38.1868C95.573 38.1971 96.5151 38.0023 97.3855 37.6156C98.2057 37.2483 98.9387 36.7082 99.5353 36.0313C100.133 35.352 100.587 34.556 100.869 33.6926L107.004 14.9293H102.355L99.1619 26.0407Z" fill="white"/>
<path d="M123.92 17.1494C123.315 16.4002 122.563 15.7855 121.711 15.3442C120.839 14.9026 119.875 14.6781 118.9 14.6895C117.804 14.6631 116.721 14.9299 115.76 15.4627C114.863 15.9866 114.125 16.7489 113.626 17.6667V8.39282H108.708V31.0252H112.976V28.3309C113.485 29.2591 114.24 30.0266 115.155 30.5483C116.143 31.0926 117.255 31.3648 118.38 31.3377C119.393 31.3535 120.398 31.1493 121.327 30.7389C122.255 30.3284 123.086 29.7213 123.762 28.9586C124.447 28.1891 124.983 27.2973 125.344 26.329C125.729 25.2957 125.921 24.1996 125.912 23.0958C125.918 21.9785 125.738 20.8681 125.379 19.8114C125.053 18.8433 124.559 17.9417 123.92 17.1494ZM120.588 24.6935C120.412 25.1715 120.14 25.6074 119.788 25.9733C119.423 26.3471 118.989 26.6436 118.509 26.8454C118.029 27.0471 117.515 27.15 116.995 27.148C116.656 27.1458 116.319 27.0894 115.998 26.981C115.665 26.8731 115.345 26.7266 115.045 26.5445C114.745 26.3583 114.472 26.1296 114.235 25.8655C113.987 25.5912 113.78 25.2817 113.621 24.9468V21.6462C113.839 21.1332 114.139 20.6599 114.509 20.2452C114.863 19.8444 115.288 19.5129 115.76 19.2671C116.289 18.9978 116.879 18.8753 117.47 18.9122C118.061 18.9492 118.632 19.1442 119.124 19.4773C119.673 19.8689 120.111 20.3982 120.396 21.0131C120.704 21.661 120.862 22.3715 120.858 23.0904C120.865 23.6395 120.774 24.1855 120.588 24.7016V24.6935Z" fill="white"/>
<path d="M143.431 18.8872C142.744 17.6242 141.73 16.5736 140.497 15.848C139.217 15.0756 137.666 14.6895 135.845 14.6895C134.024 14.6895 132.468 15.0801 131.178 15.8615C129.933 16.5965 128.91 17.6591 128.217 18.9357C127.523 20.2303 127.168 21.6829 127.187 23.155C127.181 24.22 127.377 25.2763 127.763 26.267C128.145 27.2501 128.725 28.1427 129.465 28.8886C130.243 29.6649 131.167 30.2752 132.183 30.683C133.347 31.1401 134.588 31.3634 135.837 31.3404C136.981 31.3544 138.119 31.1656 139.198 30.7827C140.164 30.4387 141.059 29.9181 141.839 29.2469C142.564 28.6266 143.154 27.8615 143.572 26.9998L139.398 25.8224C139.134 26.4418 138.662 26.9467 138.064 27.2477C137.43 27.6022 136.717 27.7877 135.992 27.7866C135.409 27.7881 134.832 27.6593 134.304 27.4094C133.78 27.1652 133.33 26.7849 132.999 26.3074C132.647 25.779 132.441 25.1651 132.402 24.5291H144.314C144.333 24.3271 144.359 24.0873 144.389 23.8124C144.421 23.5334 144.437 23.2527 144.437 22.9718C144.451 21.5461 144.105 20.1402 143.431 18.8872ZM132.298 21.4792C132.362 20.8754 132.561 20.2942 132.879 19.779C133.178 19.3028 133.597 18.9152 134.093 18.6555C134.62 18.3915 135.201 18.2541 135.789 18.2541C136.378 18.2541 136.958 18.3915 137.486 18.6555C137.987 18.9117 138.411 19.2998 138.713 19.779C139.031 20.2946 139.23 20.8755 139.297 21.4792H132.298Z" fill="white"/>
</g>
<defs>
<clipPath id="clip0_3385_95">
<rect width="144.444" height="40" fill="white"/>
</clipPath>
</defs>
</svg>
