<svg width="32" height="32" viewBox="0 0 32 32" fill="none" xmlns="http://www.w3.org/2000/svg">
<rect width="32" height="32" rx="8" fill="white"/>
<path d="M21.1728 12.1563C21.0985 12.0724 20.9788 12.0513 20.8806 12.103C20.8195 12.1352 20.7047 12.1774 20.5684 12.2191C20.7404 11.9839 20.8787 11.7206 20.9397 11.4839C20.9661 11.3819 20.9275 11.2744 20.8435 11.2136C20.7595 11.1533 20.6476 11.1533 20.5635 11.2136C20.4312 11.3086 19.7921 11.594 19.3881 11.6864C18.475 10.8639 17.4125 10.7784 16.3079 11.4417C15.4099 11.9809 15.2145 13.0774 15.2526 13.7457C13.1973 13.5422 11.9198 12.4256 11.2007 11.5015C11.1504 11.4367 11.0693 11.4025 10.993 11.4076C10.9129 11.4136 10.8406 11.4593 10.7996 11.5302C10.4596 12.1206 10.3653 12.7733 10.528 13.4181C10.6169 13.7698 10.7722 14.0798 10.9525 14.3311C10.866 14.2874 10.7825 14.2326 10.7038 14.1673C10.6315 14.106 10.5304 14.0944 10.4449 14.1351C10.3599 14.1768 10.3057 14.2653 10.3057 14.3622C10.3057 15.4693 10.9789 16.2079 11.6076 16.5938C11.506 16.5813 11.4 16.5582 11.293 16.5245C11.2012 16.4959 11.1015 16.5245 11.038 16.5989C10.9745 16.6727 10.9593 16.7783 10.9989 16.8682C11.3521 17.6717 12.0214 18.2245 12.8495 18.425C12.1265 18.8616 11.1587 19.0757 10.2724 18.9707C10.1576 18.9541 10.0482 19.029 10.0121 19.1425C9.9759 19.2561 10.0233 19.3807 10.1244 19.439C11.4689 20.2154 12.6844 20.4927 13.7347 20.4927C15.2634 20.4927 16.4432 19.9058 17.1614 19.4149C19.0974 18.0933 20.3041 15.7205 20.1361 13.5974C20.4463 13.3618 20.9104 12.9266 21.1982 12.4588C21.2578 12.3643 21.247 12.2397 21.1728 12.1563Z" fill="#006CFF"/>
</svg>
