<svg width="20" height="20" viewBox="0 0 20 20" fill="none" xmlns="http://www.w3.org/2000/svg">
<path fill-rule="evenodd" clip-rule="evenodd" d="M9.9999 19.6C15.3018 19.6 19.5999 15.3019 19.5999 9.99999C19.5999 4.69806 15.3018 0.399994 9.9999 0.399994C4.69797 0.399994 0.399902 4.69806 0.399902 9.99999C0.399902 15.3019 4.69797 19.6 9.9999 19.6ZM8.44843 6.75147C7.9798 6.28284 7.22 6.28284 6.75137 6.75147C6.28275 7.2201 6.28275 7.97989 6.75137 8.44852L8.30285 9.99999L6.75137 11.5515C6.28275 12.0201 6.28275 12.7799 6.75137 13.2485C7.22 13.7172 7.9798 13.7172 8.44843 13.2485L9.9999 11.6971L11.5514 13.2485C12.02 13.7172 12.7798 13.7172 13.2484 13.2485C13.7171 12.7799 13.7171 12.0201 13.2484 11.5515L11.697 9.99999L13.2484 8.44852C13.7171 7.97989 13.7171 7.2201 13.2484 6.75147C12.7798 6.28284 12.02 6.28284 11.5514 6.75147L9.9999 8.30294L8.44843 6.75147Z" fill="white"/>
</svg>
