<svg
  width="22"
  height="22"
  viewBox="0 0 22 22"
  fill="#6A6A6A"
  xmlns="http://www.w3.org/2000/svg"
>
  <path
    d="M10.9329 21.6668C8.24399 21.6668 5.88843 20.7833 3.86621 19.0162C1.84399 17.2499 0.677322 15.0224 0.366211 12.3335H1.73288C2.08843 14.6224 3.12754 16.5282 4.85021 18.0508C6.57199 19.5726 8.59954 20.3335 10.9329 20.3335C13.5329 20.3335 15.7387 19.4277 17.5502 17.6162C19.3609 15.8055 20.2662 13.6002 20.2662 11.0002C20.2662 8.40016 19.3609 6.19439 17.5502 4.38283C15.7387 2.57216 13.5329 1.66683 10.9329 1.66683C9.5551 1.66683 8.26088 1.95572 7.05021 2.5335C5.83866 3.11127 4.76621 3.91127 3.83288 4.9335H7.16621V6.26683H1.59954V0.733496H2.93288V3.9335C3.97732 2.80016 5.19421 1.91705 6.58354 1.28416C7.97199 0.650385 9.42177 0.333496 10.9329 0.333496C12.4218 0.333496 13.8107 0.611274 15.0995 1.16683C16.3884 1.72239 17.5164 2.48372 18.4835 3.45083C19.4498 4.41705 20.2107 5.54461 20.7662 6.8335C21.3218 8.12239 21.5995 9.51127 21.5995 11.0002C21.5995 12.4891 21.3218 13.8779 20.7662 15.1668C20.2107 16.4557 19.4498 17.5837 18.4835 18.5508C17.5164 19.5171 16.3884 20.2779 15.0995 20.8335C13.8107 21.3891 12.4218 21.6668 10.9329 21.6668ZM15.2329 16.1335L10.3662 11.2668V4.3335H11.6995V10.7335L16.1662 15.2002L15.2329 16.1335Z"
  />
</svg>