<svg width="32" height="32" viewBox="0 0 32 32" fill="none" xmlns="http://www.w3.org/2000/svg">
<mask id="mask0_4792_16675" style="mask-type:alpha" maskUnits="userSpaceOnUse" x="0" y="0" width="32" height="32">
<rect width="32" height="32" fill="#D9D9D9"/>
</mask>
<g mask="url(#mask0_4792_16675)">
<path d="M15.9334 26.6668C13.2445 26.6668 10.8889 25.7833 8.8667 24.0162C6.84448 22.2499 5.67781 20.0224 5.3667 17.3335H6.73337C7.08892 19.6224 8.12803 21.5282 9.8507 23.0508C11.5725 24.5726 13.6 25.3335 15.9334 25.3335C18.5334 25.3335 20.7391 24.4277 22.5507 22.6162C24.3614 20.8055 25.2667 18.6002 25.2667 16.0002C25.2667 13.4002 24.3614 11.1944 22.5507 9.38283C20.7391 7.57216 18.5334 6.66683 15.9334 6.66683C14.5556 6.66683 13.2614 6.95572 12.0507 7.5335C10.8391 8.11127 9.7667 8.91127 8.83337 9.9335H12.1667V11.2668H6.60003V5.7335H7.93337V8.9335C8.97781 7.80016 10.1947 6.91705 11.584 6.28416C12.9725 5.65038 14.4223 5.3335 15.9334 5.3335C17.4223 5.3335 18.8111 5.61127 20.1 6.16683C21.3889 6.72239 22.5169 7.48372 23.484 8.45083C24.4503 9.41705 25.2111 10.5446 25.7667 11.8335C26.3223 13.1224 26.6 14.5113 26.6 16.0002C26.6 17.4891 26.3223 18.8779 25.7667 20.1668C25.2111 21.4557 24.4503 22.5837 23.484 23.5508C22.5169 24.5171 21.3889 25.2779 20.1 25.8335C18.8111 26.3891 17.4223 26.6668 15.9334 26.6668ZM20.2334 21.1335L15.3667 16.2668V9.3335H16.7V15.7335L21.1667 20.2002L20.2334 21.1335Z" fill="#6A6A6A"/>
</g>
</svg>
