<svg width="32" height="32" viewBox="0 0 32 32" fill="none" xmlns="http://www.w3.org/2000/svg">
<mask id="mask0_4792_16693" style="mask-type:alpha" maskUnits="userSpaceOnUse" x="0" y="0" width="32" height="32">
<rect width="32" height="32" fill="#D9D9D9"/>
</mask>
<g mask="url(#mask0_4792_16693)">
<path d="M13.5 28L13.0334 24.1333C12.6112 24.0222 12.1503 23.828 11.6507 23.5507C11.1503 23.2724 10.7334 22.9778 10.4 22.6667L6.83337 24.1667L4.33337 19.8333L7.43337 17.5C7.38893 17.2778 7.35026 17.0387 7.31737 16.7827C7.2836 16.5276 7.26671 16.2778 7.26671 16.0333C7.26671 15.8111 7.2836 15.572 7.31737 15.316C7.35026 15.0609 7.38893 14.7889 7.43337 14.5L4.33337 12.1667L6.83337 7.9L10.3667 9.36667C10.7667 9.03333 11.1947 8.73333 11.6507 8.46667C12.1058 8.2 12.5556 8 13 7.86667L13.5 4H18.5L18.9667 7.86667C19.4778 8.06667 19.928 8.27778 20.3174 8.5C20.7058 8.72222 21.1112 9.01111 21.5334 9.36667L25.1667 7.9L27.6667 12.1667L24.4667 14.5667C24.5556 14.8333 24.6 15.0836 24.6 15.3173V16C24.6 16.2 24.5947 16.4169 24.584 16.6507C24.5725 16.8836 24.5334 17.1667 24.4667 17.5L27.6 19.8333L25.1 24.1667L21.5334 22.6333C21.1112 22.9889 20.6947 23.2889 20.284 23.5333C19.8725 23.7778 19.4334 23.9778 18.9667 24.1333L18.5 28H13.5ZM15.9667 19.3333C16.9 19.3333 17.6889 19.0111 18.3334 18.3667C18.9778 17.7222 19.3 16.9333 19.3 16C19.3 15.0667 18.9778 14.2778 18.3334 13.6333C17.6889 12.9889 16.9 12.6667 15.9667 12.6667C15.0334 12.6667 14.2445 12.9889 13.6 13.6333C12.9556 14.2778 12.6334 15.0667 12.6334 16C12.6334 16.9333 12.9556 17.7222 13.6 18.3667C14.2445 19.0111 15.0334 19.3333 15.9667 19.3333ZM15.9667 18C15.4112 18 14.9392 17.8053 14.5507 17.416C14.1614 17.0276 13.9667 16.5556 13.9667 16C13.9667 15.4444 14.1614 14.9724 14.5507 14.584C14.9392 14.1947 15.4112 14 15.9667 14C16.5223 14 16.9947 14.1947 17.384 14.584C17.7725 14.9724 17.9667 15.4444 17.9667 16C17.9667 16.5556 17.7725 17.0276 17.384 17.416C16.9947 17.8053 16.5223 18 15.9667 18ZM14.6667 26.6667H17.2667L17.7667 23.0667C18.4334 22.8889 19.0392 22.6444 19.584 22.3333C20.128 22.0222 20.6778 21.5889 21.2334 21.0333L24.5334 22.4667L25.8667 20.2L22.9667 18C23.0778 17.6222 23.1503 17.272 23.184 16.9493C23.2169 16.6276 23.2334 16.3111 23.2334 16C23.2334 15.6667 23.2169 15.3498 23.184 15.0493C23.1503 14.7498 23.0778 14.4111 22.9667 14.0333L25.9334 11.8L24.6 9.53333L21.2 10.9667C20.8 10.5222 20.2725 10.1053 19.6174 9.716C18.9614 9.32756 18.3334 9.06667 17.7334 8.93333L17.3334 5.33333H14.6667L14.2667 8.93333C13.6 9.06667 12.9832 9.29422 12.416 9.616C11.8498 9.93867 11.2889 10.3778 10.7334 10.9333L7.40004 9.53333L6.06671 11.8L8.96671 13.9667C8.8556 14.2556 8.77782 14.5778 8.73337 14.9333C8.68893 15.2889 8.66671 15.6556 8.66671 16.0333C8.66671 16.3667 8.68893 16.7 8.73337 17.0333C8.77782 17.3667 8.84448 17.6889 8.93337 18L6.06671 20.2L7.40004 22.4667L10.7 21.0667C11.2334 21.6 11.7778 22.0222 12.3334 22.3333C12.8889 22.6444 13.5223 22.8889 14.2334 23.0667L14.6667 26.6667Z" fill="#6A6A6A"/>
</g>
</svg>
