<svg
  width="24"
  height="24"
  viewBox="0 0 24 24"
  fill="none"
  xmlns="http://www.w3.org/2000/svg"
>
  <path
    d="M9.49967 24L9.03301 20.1333C8.61079 20.0222 8.1499 19.828 7.65034 19.5507C7.1499 19.2724 6.73301 18.9778 6.39967 18.6667L2.83301 20.1667L0.333008 15.8333L3.43301 13.5C3.38856 13.2778 3.3499 13.0387 3.31701 12.7827C3.28323 12.5276 3.26634 12.2778 3.26634 12.0333C3.26634 11.8111 3.28323 11.572 3.31701 11.316C3.3499 11.0609 3.38856 10.7889 3.43301 10.5L0.333008 8.16667L2.83301 3.9L6.36634 5.36667C6.76634 5.03333 7.19434 4.73333 7.65034 4.46667C8.10545 4.2 8.55523 4 8.99967 3.86667L9.49967 0H14.4997L14.9663 3.86667C15.4775 4.06667 15.9277 4.27778 16.317 4.5C16.7055 4.72222 17.1108 5.01111 17.533 5.36667L21.1663 3.9L23.6663 8.16667L20.4663 10.5667C20.5552 10.8333 20.5997 11.0836 20.5997 11.3173V12C20.5997 12.2 20.5943 12.4169 20.5837 12.6507C20.5721 12.8836 20.533 13.1667 20.4663 13.5L23.5997 15.8333L21.0997 20.1667L17.533 18.6333C17.1108 18.9889 16.6943 19.2889 16.2837 19.5333C15.8721 19.7778 15.433 19.9778 14.9663 20.1333L14.4997 24H9.49967ZM11.9663 15.3333C12.8997 15.3333 13.6886 15.0111 14.333 14.3667C14.9775 13.7222 15.2997 12.9333 15.2997 12C15.2997 11.0667 14.9775 10.2778 14.333 9.63333C13.6886 8.98889 12.8997 8.66667 11.9663 8.66667C11.033 8.66667 10.2441 8.98889 9.59967 9.63333C8.95523 10.2778 8.63301 11.0667 8.63301 12C8.63301 12.9333 8.95523 13.7222 9.59967 14.3667C10.2441 15.0111 11.033 15.3333 11.9663 15.3333ZM11.9663 14C11.4108 14 10.9388 13.8053 10.5503 13.416C10.161 13.0276 9.96634 12.5556 9.96634 12C9.96634 11.4444 10.161 10.9724 10.5503 10.584C10.9388 10.1947 11.4108 10 11.9663 10C12.5219 10 12.9943 10.1947 13.3837 10.584C13.7721 10.9724 13.9663 11.4444 13.9663 12C13.9663 12.5556 13.7721 13.0276 13.3837 13.416C12.9943 13.8053 12.5219 14 11.9663 14ZM10.6663 22.6667H13.2663L13.7663 19.0667C14.433 18.8889 15.0388 18.6444 15.5837 18.3333C16.1277 18.0222 16.6775 17.5889 17.233 17.0333L20.533 18.4667L21.8663 16.2L18.9663 14C19.0775 13.6222 19.1499 13.272 19.1837 12.9493C19.2166 12.6276 19.233 12.3111 19.233 12C19.233 11.6667 19.2166 11.3498 19.1837 11.0493C19.1499 10.7498 19.0775 10.4111 18.9663 10.0333L21.933 7.8L20.5997 5.53333L17.1997 6.96667C16.7997 6.52222 16.2721 6.10533 15.617 5.716C14.961 5.32756 14.333 5.06667 13.733 4.93333L13.333 1.33333H10.6663L10.2663 4.93333C9.59967 5.06667 8.98279 5.29422 8.41568 5.616C7.84945 5.93867 7.28856 6.37778 6.73301 6.93333L3.39967 5.53333L2.06634 7.8L4.96634 9.96667C4.85523 10.2556 4.77745 10.5778 4.73301 10.9333C4.68856 11.2889 4.66634 11.6556 4.66634 12.0333C4.66634 12.3667 4.68856 12.7 4.73301 13.0333C4.77745 13.3667 4.84412 13.6889 4.93301 14L2.06634 16.2L3.39967 18.4667L6.69967 17.0667C7.23301 17.6 7.77745 18.0222 8.33301 18.3333C8.88856 18.6444 9.5219 18.8889 10.233 19.0667L10.6663 22.6667Z"
    fill="#6A6A6A"
  />
</svg>