<svg 
  width="28" 
  height="32" 
  viewBox="0 0 28 32" 
  fill="none" 
  xmlns="http://www.w3.org/2000/svg"
>
  <path 
    opacity="0.82" 
    d="M21.9852 0.118583L15.7883 5.70554C16.5858 6.42978 17.0412 6.82207 17.4726 7.24023C19.2449 8.92896 20.3164 11.211 20.4776 13.64C20.6388 16.069 19.8781 18.47 18.3442 20.3735C15.0932 24.4257 9.45181 25.2577 4.84982 22.3651C0.866662 19.8583 -0.510448 14.3813 1.75568 9.91516C3.87364 5.73356 7.4319 3.21167 11.7484 1.63603C15.03 0.431125 18.3921 -0.299577 21.9852 0.118583Z"
    fill="#006CFF"
  />
  <path 
    opacity="0.82" 
    d="M5.89551 32L12.2145 26.2966C11.3843 25.5271 10.8788 25.0831 10.4016 24.611C8.71172 22.9333 7.69137 20.7082 7.52841 18.3453C7.36546 15.9824 8.07087 13.6408 9.51478 11.7516C12.3823 7.97518 17.821 6.80476 22.1114 9.03998C26.5739 11.3657 28.4413 16.0323 26.6873 20.8023C26.1774 22.1818 25.4757 23.5894 24.5083 24.6973C19.6949 30.2734 13.304 32.0086 5.89551 32Z"
    fill="#B0D1FF"
  />
</svg>
