<svg width="280" height="64" viewBox="0 0 280 64" fill="none" xmlns="http://www.w3.org/2000/svg">
<mask id="mask0_2390_37709" style="mask-type:alpha" maskUnits="userSpaceOnUse" x="40" y="16" width="32" height="32">
<rect x="40" y="16" width="32" height="32" fill="#D9D9D9"/>
</mask>
<g mask="url(#mask0_2390_37709)">
<path d="M50.0013 39.333V24.6663H51.3346V39.333H50.0013ZM55.3346 44.6663V19.333H56.668V44.6663H55.3346ZM44.668 33.9997V29.9997H46.0013V33.9997H44.668ZM60.668 39.333V24.6663H62.0013V39.333H60.668ZM66.0013 33.9997V29.9997H67.3346V33.9997H66.0013Z" fill="#6A6A6A"/>
</g>
<path d="M89 39L93.9 26.12H95.82L100.7 39H99.02L97.66 35.46H92.06L90.7 39H89ZM92.34 34.16H97.36L94.84 27.54L92.34 34.16ZM103.091 39V29.52H104.571L104.671 30.6C105.125 30.2267 105.651 29.92 106.251 29.68C106.865 29.44 107.565 29.32 108.351 29.32C109.551 29.32 110.425 29.6 110.971 30.16C111.518 30.72 111.791 31.6 111.791 32.8V39H110.151V32.86C110.151 32.0333 109.985 31.46 109.651 31.14C109.318 30.8067 108.678 30.64 107.731 30.64C107.145 30.64 106.591 30.7467 106.071 30.96C105.551 31.1733 105.105 31.4667 104.731 31.84V39H103.091ZM117.145 39.2C116.545 39.2 115.991 39.0933 115.485 38.88C114.978 38.6667 114.571 38.3533 114.265 37.94C113.958 37.5133 113.805 36.98 113.805 36.34C113.805 35.4733 114.091 34.7667 114.665 34.22C115.238 33.66 116.171 33.38 117.465 33.38H120.765V32.8C120.765 32.28 120.691 31.8667 120.545 31.56C120.411 31.2533 120.151 31.0333 119.765 30.9C119.378 30.7667 118.811 30.7 118.065 30.7C117.491 30.7 116.938 30.7467 116.405 30.84C115.871 30.9333 115.371 31.06 114.905 31.22V29.86C115.331 29.7 115.831 29.5733 116.405 29.48C116.991 29.3733 117.618 29.32 118.285 29.32C119.631 29.32 120.638 29.5933 121.305 30.14C121.985 30.6867 122.325 31.5733 122.325 32.8V39H120.945L120.825 37.92C120.411 38.3467 119.911 38.6667 119.325 38.88C118.738 39.0933 118.011 39.2 117.145 39.2ZM117.565 37.86C118.258 37.86 118.871 37.74 119.405 37.5C119.938 37.2467 120.391 36.9067 120.765 36.48V34.64H117.505C116.758 34.64 116.225 34.78 115.905 35.06C115.585 35.34 115.425 35.7667 115.425 36.34C115.425 36.9133 115.618 37.3133 116.005 37.54C116.391 37.7533 116.911 37.86 117.565 37.86ZM127.085 39.2C126.445 39.2 125.938 39.0333 125.565 38.7C125.205 38.3533 125.025 37.7733 125.025 36.96V25.52H126.665V36.78C126.665 37.18 126.732 37.4533 126.865 37.6C126.998 37.7467 127.205 37.82 127.485 37.82C127.792 37.82 128.092 37.78 128.385 37.7V39C128.172 39.08 127.958 39.1333 127.745 39.16C127.532 39.1867 127.312 39.2 127.085 39.2ZM130.75 42.52C130.124 42.52 129.577 42.4333 129.11 42.26V40.94C129.337 41.02 129.544 41.0733 129.73 41.1C129.93 41.1267 130.13 41.14 130.33 41.14C130.784 41.14 131.137 41.06 131.39 40.9C131.657 40.74 131.89 40.4933 132.09 40.16C132.29 39.84 132.51 39.42 132.75 38.9L128.57 29.52H130.27L133.57 37.16L136.97 29.52H138.65L134.67 38.58C134.337 39.34 133.997 40.0133 133.65 40.6C133.304 41.2 132.904 41.6667 132.45 42C131.997 42.3467 131.43 42.52 130.75 42.52ZM142.732 39.2C142.118 39.2 141.532 39.16 140.972 39.08C140.425 39 139.965 38.8933 139.592 38.76V37.32C140.045 37.48 140.518 37.6 141.012 37.68C141.518 37.76 142.018 37.8 142.512 37.8C143.352 37.8 143.952 37.7133 144.312 37.54C144.672 37.3533 144.852 37.0133 144.852 36.52C144.852 36.16 144.752 35.8867 144.552 35.7C144.365 35.5133 144.072 35.3467 143.672 35.2C143.285 35.0533 142.785 34.88 142.172 34.68C141.625 34.4933 141.138 34.3 140.712 34.1C140.285 33.9 139.952 33.6333 139.712 33.3C139.472 32.9533 139.352 32.4933 139.352 31.92C139.352 31.08 139.645 30.44 140.232 30C140.818 29.5467 141.765 29.32 143.072 29.32C143.578 29.32 144.065 29.36 144.532 29.44C144.998 29.5067 145.405 29.5933 145.752 29.7V31.14C144.912 30.86 144.105 30.72 143.332 30.72C142.505 30.72 141.905 30.8067 141.532 30.98C141.172 31.14 140.992 31.4467 140.992 31.9C140.992 32.2067 141.072 32.4533 141.232 32.64C141.405 32.8133 141.665 32.9667 142.012 33.1C142.372 33.22 142.832 33.3733 143.392 33.56C144.125 33.7867 144.718 34.02 145.172 34.26C145.625 34.5 145.958 34.7933 146.172 35.14C146.385 35.4867 146.492 35.94 146.492 36.5C146.492 37.4333 146.165 38.12 145.512 38.56C144.858 38.9867 143.932 39.2 142.732 39.2ZM149.187 27.3V25.8H151.007V27.3H149.187ZM149.347 39V30.82H147.887L148.047 29.52H150.987V39H149.347ZM156.794 39.2C156.181 39.2 155.594 39.16 155.034 39.08C154.487 39 154.027 38.8933 153.654 38.76V37.32C154.107 37.48 154.581 37.6 155.074 37.68C155.581 37.76 156.081 37.8 156.574 37.8C157.414 37.8 158.014 37.7133 158.374 37.54C158.734 37.3533 158.914 37.0133 158.914 36.52C158.914 36.16 158.814 35.8867 158.614 35.7C158.427 35.5133 158.134 35.3467 157.734 35.2C157.347 35.0533 156.847 34.88 156.234 34.68C155.687 34.4933 155.201 34.3 154.774 34.1C154.347 33.9 154.014 33.6333 153.774 33.3C153.534 32.9533 153.414 32.4933 153.414 31.92C153.414 31.08 153.707 30.44 154.294 30C154.881 29.5467 155.827 29.32 157.134 29.32C157.641 29.32 158.127 29.36 158.594 29.44C159.061 29.5067 159.467 29.5933 159.814 29.7V31.14C158.974 30.86 158.167 30.72 157.394 30.72C156.567 30.72 155.967 30.8067 155.594 30.98C155.234 31.14 155.054 31.4467 155.054 31.9C155.054 32.2067 155.134 32.4533 155.294 32.64C155.467 32.8133 155.727 32.9667 156.074 33.1C156.434 33.22 156.894 33.3733 157.454 33.56C158.187 33.7867 158.781 34.02 159.234 34.26C159.687 34.5 160.021 34.7933 160.234 35.14C160.447 35.4867 160.554 35.94 160.554 36.5C160.554 37.4333 160.227 38.12 159.574 38.56C158.921 38.9867 157.994 39.2 156.794 39.2Z" fill="#6A6A6A"/>
</svg>
