<svg width="32" height="32" viewBox="0 0 32 32" fill="none" xmlns="http://www.w3.org/2000/svg">
<path d="M16.5496 7.425V4.5C16.5496 4.225 16.3246 4 16.0496 4C15.7746 4 15.5496 4.225 15.5496 4.5V7.425C15.1496 7.625 14.8496 8.025 14.8496 8.5C14.8496 9.15 15.3746 9.7 16.0496 9.7C16.7246 9.7 17.2496 9.15 17.2496 8.5C17.2496 8.025 16.9746 7.6 16.5496 7.425ZM24.0496 7.425V4.5C24.0496 4.225 23.8246 4 23.5496 4C23.2746 4 23.0496 4.225 23.0496 4.5V7.425C22.6496 7.625 22.3496 8.025 22.3496 8.5C22.3496 9.15 22.8746 9.7 23.5496 9.7C24.2246 9.7 24.7496 9.15 24.7496 8.5C24.7496 8.025 24.4746 7.6 24.0496 7.425ZM9.54961 5.75H15.0496V6.75H9.54961V5.75ZM17.0496 5.75H22.5496V6.75H17.0496V5.75ZM9.04961 7.425V4.5C9.04961 4.225 8.82461 4 8.54961 4C8.27461 4 8.04961 4.225 8.04961 4.5V7.425C7.64961 7.625 7.34961 8.025 7.34961 8.5C7.34961 9.15 7.87461 9.7 8.54961 9.7C9.22461 9.7 9.74961 9.15 9.74961 8.5C9.74961 8.025 9.47461 7.6 9.04961 7.425Z" fill="#2C3E50"/>
<path d="M27.75 5.75H24.5V6.75H27.75C28.575 6.75 29.25 7.425 29.25 8.25V11H2.75V8.25C2.75 7.425 3.425 6.75 4.25 6.75H7.5V5.75H4.25C2.875 5.75 1.75 6.875 1.75 8.25V24.75C1.75 26.125 2.875 27.25 4.25 27.25H27.75C29.125 27.25 30.25 26.125 30.25 24.75V8.25C30.25 6.875 29.125 5.75 27.75 5.75ZM27.75 26.25H4.25C3.425 26.25 2.75 25.575 2.75 24.75V12H29.25V24.75C29.25 25.575 28.575 26.25 27.75 26.25Z" fill="#2C3E50"/>
<path d="M12.7508 15.8248C13.2064 15.8248 13.5758 15.4554 13.5758 14.9998C13.5758 14.5442 13.2064 14.1748 12.7508 14.1748C12.2951 14.1748 11.9258 14.5442 11.9258 14.9998C11.9258 15.4554 12.2951 15.8248 12.7508 15.8248Z" fill="#3B97D3"/>
<path d="M9.7 15.8248C10.1556 15.8248 10.525 15.4554 10.525 14.9998C10.525 14.5442 10.1556 14.1748 9.7 14.1748C9.24436 14.1748 8.875 14.5442 8.875 14.9998C8.875 15.4554 9.24436 15.8248 9.7 15.8248Z" fill="#3B97D3"/>
<path d="M24.95 15.8248C25.4056 15.8248 25.775 15.4554 25.775 14.9998C25.775 14.5442 25.4056 14.1748 24.95 14.1748C24.4944 14.1748 24.125 14.5442 24.125 14.9998C24.125 15.4554 24.4944 15.8248 24.95 15.8248Z" fill="#3B97D3"/>
<path d="M6.64922 18.6002C7.10485 18.6002 7.47422 18.2308 7.47422 17.7752C7.47422 17.3196 7.10485 16.9502 6.64922 16.9502C6.19358 16.9502 5.82422 17.3196 5.82422 17.7752C5.82422 18.2308 6.19358 18.6002 6.64922 18.6002Z" fill="#3B97D3"/>
<path d="M9.7 18.6002C10.1556 18.6002 10.525 18.2308 10.525 17.7752C10.525 17.3196 10.1556 16.9502 9.7 16.9502C9.24436 16.9502 8.875 17.3196 8.875 17.7752C8.875 18.2308 9.24436 18.6002 9.7 18.6002Z" fill="#3B97D3"/>
<path d="M12.7508 18.6002C13.2064 18.6002 13.5758 18.2308 13.5758 17.7752C13.5758 17.3196 13.2064 16.9502 12.7508 16.9502C12.2951 16.9502 11.9258 17.3196 11.9258 17.7752C11.9258 18.2308 12.2951 18.6002 12.7508 18.6002Z" fill="#3B97D3"/>
<path d="M15.7996 18.6002C16.2552 18.6002 16.6246 18.2308 16.6246 17.7752C16.6246 17.3196 16.2552 16.9502 15.7996 16.9502C15.344 16.9502 14.9746 17.3196 14.9746 17.7752C14.9746 18.2308 15.344 18.6002 15.7996 18.6002Z" fill="#3B97D3"/>
<path d="M18.8504 18.6002C19.306 18.6002 19.6754 18.2308 19.6754 17.7752C19.6754 17.3196 19.306 16.9502 18.8504 16.9502C18.3948 16.9502 18.0254 17.3196 18.0254 17.7752C18.0254 18.2308 18.3948 18.6002 18.8504 18.6002Z" fill="#3B97D3"/>
<path d="M21.8758 18.6002C22.3314 18.6002 22.7008 18.2308 22.7008 17.7752C22.7008 17.3196 22.3314 16.9502 21.8758 16.9502C21.4201 16.9502 21.0508 17.3196 21.0508 17.7752C21.0508 18.2308 21.4201 18.6002 21.8758 18.6002Z" fill="#3B97D3"/>
<path d="M9.7 21.4C10.1556 21.4 10.525 21.0306 10.525 20.575C10.525 20.1194 10.1556 19.75 9.7 19.75C9.24436 19.75 8.875 20.1194 8.875 20.575C8.875 21.0306 9.24436 21.4 9.7 21.4Z" fill="#3B97D3"/>
<path d="M12.7508 21.4C13.2064 21.4 13.5758 21.0306 13.5758 20.575C13.5758 20.1194 13.2064 19.75 12.7508 19.75C12.2951 19.75 11.9258 20.1194 11.9258 20.575C11.9258 21.0306 12.2951 21.4 12.7508 21.4Z" fill="#3B97D3"/>
<path d="M15.7996 21.4C16.2552 21.4 16.6246 21.0306 16.6246 20.575C16.6246 20.1194 16.2552 19.75 15.7996 19.75C15.344 19.75 14.9746 20.1194 14.9746 20.575C14.9746 21.0306 15.344 21.4 15.7996 21.4Z" fill="#3B97D3"/>
<path d="M18.8504 21.4C19.306 21.4 19.6754 21.0306 19.6754 20.575C19.6754 20.1194 19.306 19.75 18.8504 19.75C18.3948 19.75 18.0254 20.1194 18.0254 20.575C18.0254 21.0306 18.3948 21.4 18.8504 21.4Z" fill="#3B97D3"/>
<path d="M21.8758 21.4C22.3314 21.4 22.7008 21.0306 22.7008 20.575C22.7008 20.1194 22.3314 19.75 21.8758 19.75C21.4201 19.75 21.0508 20.1194 21.0508 20.575C21.0508 21.0306 21.4201 21.4 21.8758 21.4Z" fill="#3B97D3"/>
<path d="M15.7996 15.9C16.2552 15.9 16.6246 15.5306 16.6246 15.075C16.6246 14.6194 16.2552 14.25 15.7996 14.25C15.344 14.25 14.9746 14.6194 14.9746 15.075C14.9746 15.5306 15.344 15.9 15.7996 15.9Z" fill="#3B97D3"/>
<path d="M18.8504 15.9C19.306 15.9 19.6754 15.5306 19.6754 15.075C19.6754 14.6194 19.306 14.25 18.8504 14.25C18.3948 14.25 18.0254 14.6194 18.0254 15.075C18.0254 15.5306 18.3948 15.9 18.8504 15.9Z" fill="#3B97D3"/>
<path d="M21.8758 15.9C22.3314 15.9 22.7008 15.5306 22.7008 15.075C22.7008 14.6194 22.3314 14.25 21.8758 14.25C21.4201 14.25 21.0508 14.6194 21.0508 15.075C21.0508 15.5306 21.4201 15.9 21.8758 15.9Z" fill="#3B97D3"/>
<path d="M24.9246 18.6002C25.3802 18.6002 25.7496 18.2308 25.7496 17.7752C25.7496 17.3196 25.3802 16.9502 24.9246 16.9502C24.469 16.9502 24.0996 17.3196 24.0996 17.7752C24.0996 18.2308 24.469 18.6002 24.9246 18.6002Z" fill="#3B97D3"/>
<path d="M24.95 21.4C25.4056 21.4 25.775 21.0306 25.775 20.575C25.775 20.1194 25.4056 19.75 24.95 19.75C24.4944 19.75 24.125 20.1194 24.125 20.575C24.125 21.0306 24.4944 21.4 24.95 21.4Z" fill="#3B97D3"/>
<path d="M6.64922 21.2999C7.10485 21.2999 7.47422 20.9305 7.47422 20.4749C7.47422 20.0193 7.10485 19.6499 6.64922 19.6499C6.19358 19.6499 5.82422 20.0193 5.82422 20.4749C5.82422 20.9305 6.19358 21.2999 6.64922 21.2999Z" fill="#3B97D3"/>
<path d="M6.64922 24.025C7.10485 24.025 7.47422 23.6556 7.47422 23.2C7.47422 22.7444 7.10485 22.375 6.64922 22.375C6.19358 22.375 5.82422 22.7444 5.82422 23.2C5.82422 23.6556 6.19358 24.025 6.64922 24.025Z" fill="#3B97D3"/>
<path d="M9.7 24.025C10.1556 24.025 10.525 23.6556 10.525 23.2C10.525 22.7444 10.1556 22.375 9.7 22.375C9.24436 22.375 8.875 22.7444 8.875 23.2C8.875 23.6556 9.24436 24.025 9.7 24.025Z" fill="#3B97D3"/>
<path d="M12.7508 24.025C13.2064 24.025 13.5758 23.6556 13.5758 23.2C13.5758 22.7444 13.2064 22.375 12.7508 22.375C12.2951 22.375 11.9258 22.7444 11.9258 23.2C11.9258 23.6556 12.2951 24.025 12.7508 24.025Z" fill="#3B97D3"/>
<path d="M15.7996 24.025C16.2552 24.025 16.6246 23.6556 16.6246 23.2C16.6246 22.7444 16.2552 22.375 15.7996 22.375C15.344 22.375 14.9746 22.7444 14.9746 23.2C14.9746 23.6556 15.344 24.025 15.7996 24.025Z" fill="#3B97D3"/>
</svg>
