<svg width="22" height="22" viewBox="0 0 22 22" fill="none" xmlns="http://www.w3.org/2000/svg">
<path d="M10.9339 21.6668C8.24497 21.6668 5.88941 20.7833 3.86719 19.0162C1.84497 17.2499 0.678299 15.0224 0.367188 12.3335H1.73385C2.08941 14.6224 3.12852 16.5282 4.85119 18.0508C6.57297 19.5726 8.60052 20.3335 10.9339 20.3335C13.5339 20.3335 15.7396 19.4277 17.5512 17.6162C19.3619 15.8055 20.2672 13.6002 20.2672 11.0002C20.2672 8.40016 19.3619 6.19439 17.5512 4.38283C15.7396 2.57216 13.5339 1.66683 10.9339 1.66683C9.55608 1.66683 8.26185 1.95572 7.05119 2.5335C5.83963 3.11127 4.76719 3.91127 3.83385 4.9335H7.16719V6.26683H1.60052V0.733496H2.93385V3.9335C3.9783 2.80016 5.19519 1.91705 6.58452 1.28416C7.97296 0.650385 9.42274 0.333496 10.9339 0.333496C12.4227 0.333496 13.8116 0.611274 15.1005 1.16683C16.3894 1.72239 17.5174 2.48372 18.4845 3.45083C19.4507 4.41705 20.2116 5.54461 20.7672 6.8335C21.3227 8.12239 21.6005 9.51127 21.6005 11.0002C21.6005 12.4891 21.3227 13.8779 20.7672 15.1668C20.2116 16.4557 19.4507 17.5837 18.4845 18.5508C17.5174 19.5171 16.3894 20.2779 15.1005 20.8335C13.8116 21.3891 12.4227 21.6668 10.9339 21.6668ZM15.2339 16.1335L10.3672 11.2668V4.3335H11.7005V10.7335L16.1672 15.2002L15.2339 16.1335Z" fill="#6A6A6A"/>
</svg>
