<svg width="280" height="64" viewBox="0 0 280 64" fill="none" xmlns="http://www.w3.org/2000/svg">
<mask id="mask0_2390_37714" style="mask-type:alpha" maskUnits="userSpaceOnUse" x="40" y="16" width="32" height="32">
<rect x="40" y="16" width="32" height="32" fill="#D9D9D9"/>
</mask>
<g mask="url(#mask0_2390_37714)">
<path d="M55.9339 42.6663C53.245 42.6663 50.8894 41.7828 48.8672 40.0157C46.845 38.2495 45.6783 36.0219 45.3672 33.333H46.7339C47.0894 35.6219 48.1285 37.5277 49.8512 39.0503C51.573 40.5721 53.6005 41.333 55.9339 41.333C58.5339 41.333 60.7396 40.4272 62.5512 38.6157C64.3619 36.805 65.2672 34.5997 65.2672 31.9997C65.2672 29.3997 64.3619 27.1939 62.5512 25.3823C60.7396 23.5717 58.5339 22.6663 55.9339 22.6663C54.5561 22.6663 53.2619 22.9552 52.0512 23.533C50.8396 24.1108 49.7672 24.9108 48.8339 25.933H52.1672V27.2663H46.6005V21.733H47.9339V24.933C48.9783 23.7997 50.1952 22.9166 51.5845 22.2837C52.973 21.6499 54.4227 21.333 55.9339 21.333C57.4227 21.333 58.8116 21.6108 60.1005 22.1663C61.3894 22.7219 62.5174 23.4832 63.4845 24.4503C64.4507 25.4166 65.2116 26.5441 65.7672 27.833C66.3227 29.1219 66.6005 30.5108 66.6005 31.9997C66.6005 33.4886 66.3227 34.8775 65.7672 36.1663C65.2116 37.4552 64.4507 38.5832 63.4845 39.5503C62.5174 40.5166 61.3894 41.2775 60.1005 41.833C58.8116 42.3886 57.4227 42.6663 55.9339 42.6663ZM60.2339 37.133L55.3672 32.2663V25.333H56.7005V31.733L61.1672 36.1997L60.2339 37.133Z" fill="#6A6A6A"/>
</g>
<path d="M89.4 26.12H91.04V39H89.4V26.12ZM100.894 39V32.86C100.894 32.2867 100.82 31.8467 100.674 31.54C100.527 31.22 100.28 30.9933 99.9336 30.86C99.6003 30.7133 99.1136 30.64 98.4736 30.64C97.8869 30.64 97.3336 30.7467 96.8136 30.96C96.2936 31.1733 95.8469 31.4667 95.4736 31.84V39H93.8336V29.52H95.3136L95.4136 30.6C96.4536 29.7467 97.6803 29.32 99.0936 29.32C100.294 29.32 101.167 29.6 101.714 30.16C102.26 30.72 102.534 31.6 102.534 32.8V39H100.894ZM110.34 36.52C110.34 36.2133 110.267 35.9733 110.12 35.8C109.973 35.6133 109.76 35.46 109.48 35.34C109.213 35.2067 108.787 35.0467 108.2 34.86L107.66 34.68C106.993 34.4533 106.467 34.2467 106.08 34.06C105.707 33.86 105.407 33.5933 105.18 33.26C104.953 32.9133 104.84 32.4667 104.84 31.92C104.84 31.0667 105.14 30.42 105.74 29.98C106.34 29.54 107.28 29.32 108.56 29.32C109.547 29.32 110.44 29.4467 111.24 29.7V31.14C110.4 30.86 109.593 30.72 108.82 30.72C107.967 30.72 107.36 30.8067 107 30.98C106.653 31.1533 106.48 31.46 106.48 31.9C106.48 32.2067 106.553 32.4467 106.7 32.62C106.86 32.7933 107.08 32.94 107.36 33.06C107.653 33.1667 108.16 33.3333 108.88 33.56C109.667 33.8 110.273 34.04 110.7 34.28C111.14 34.52 111.46 34.8133 111.66 35.16C111.873 35.5067 111.98 35.9533 111.98 36.5C111.98 38.3 110.727 39.2 108.22 39.2C107.62 39.2 107.04 39.16 106.48 39.08C105.92 39 105.453 38.8933 105.08 38.76V37.32C105.987 37.64 106.96 37.8 108 37.8C108.867 37.8 109.473 37.7133 109.82 37.54C110.167 37.3533 110.34 37.0133 110.34 36.52ZM115.68 27.3V25.8H117.5V27.3H115.68ZM117.48 39H115.84V30.82H114.38L114.54 29.52H117.48V39ZM126.798 40.1C126.798 39.7533 126.672 39.5067 126.418 39.36C126.178 39.2133 125.745 39.14 125.118 39.14H122.598C121.732 39.14 121.078 38.9933 120.638 38.7C120.198 38.3933 119.978 37.9533 119.978 37.38C119.978 36.9667 120.105 36.5933 120.358 36.26C120.612 35.9133 120.978 35.6667 121.458 35.52C120.418 35.0133 119.898 34.08 119.898 32.72C119.898 31.5467 120.238 30.6867 120.918 30.14C121.598 29.5933 122.652 29.32 124.078 29.32C124.572 29.32 125.118 29.3867 125.718 29.52H129.138L129.078 30.64H127.358C127.932 31.1333 128.218 31.8267 128.218 32.72C128.218 33.7867 127.905 34.6067 127.278 35.18C126.665 35.7533 125.732 36.04 124.478 36.04C124.198 36.04 123.812 36.0067 123.318 35.94C122.878 35.9667 122.485 36.0933 122.138 36.32C121.792 36.5333 121.618 36.8067 121.618 37.14C121.618 37.38 121.712 37.5533 121.898 37.66C122.085 37.7533 122.412 37.8 122.878 37.8H125.498C126.445 37.8 127.172 37.9933 127.678 38.38C128.185 38.7667 128.438 39.32 128.438 40.04C128.438 40.9333 128.065 41.5667 127.318 41.94C126.585 42.3267 125.472 42.52 123.978 42.52C122.392 42.52 121.125 42.3533 120.178 42.02V40.66C120.698 40.8333 121.285 40.9667 121.938 41.06C122.605 41.1533 123.258 41.2 123.898 41.2C124.632 41.2 125.198 41.1733 125.598 41.12C125.998 41.0667 126.298 40.96 126.498 40.8C126.698 40.6533 126.798 40.42 126.798 40.1ZM124.078 34.8C125.012 34.8 125.658 34.6467 126.018 34.34C126.392 34.0333 126.578 33.4933 126.578 32.72C126.578 31.9467 126.385 31.3867 125.998 31.04C125.625 30.6933 124.985 30.52 124.078 30.52C123.185 30.52 122.538 30.6933 122.138 31.04C121.738 31.3733 121.538 31.9333 121.538 32.72C121.538 33.4667 121.732 34 122.118 34.32C122.505 34.64 123.158 34.8 124.078 34.8ZM138.296 39V32.86C138.296 32.0467 138.116 31.4733 137.756 31.14C137.396 30.8067 136.789 30.64 135.936 30.64C135.403 30.64 134.849 30.76 134.276 31C133.716 31.2267 133.249 31.5267 132.876 31.9V39H131.236V25.52H132.876V30.54C133.876 29.7267 135.083 29.32 136.496 29.32C137.656 29.32 138.516 29.6067 139.076 30.18C139.649 30.74 139.936 31.6133 139.936 32.8V39H138.296ZM143.282 29.52V27.18L144.922 26.68V29.52H147.542L147.442 30.82H144.922V36.28C144.922 36.8667 145.049 37.28 145.302 37.52C145.569 37.76 146.022 37.88 146.662 37.88C147.009 37.88 147.389 37.8133 147.802 37.68V38.92C147.309 39.1067 146.742 39.2 146.102 39.2C145.182 39.2 144.482 38.9533 144.002 38.46C143.522 37.9667 143.282 37.2667 143.282 36.36V30.82H141.842V29.52H143.282Z" fill="#6A6A6A"/>
<mask id="mask1_2390_37714" style="mask-type:alpha" maskUnits="userSpaceOnUse" x="217" y="20" width="24" height="24">
<rect x="241" y="20" width="24" height="24" transform="rotate(90 241 20)" fill="#D9D9D9"/>
</mask>
<g mask="url(#mask1_2390_37714)">
<path d="M224.05 31.05C224.15 30.9333 224.267 30.875 224.4 30.875C224.533 30.875 224.65 30.9333 224.75 31.05L229 35.3L233.25 31.05C233.35 30.9333 233.467 30.875 233.6 30.875C233.733 30.875 233.85 30.9333 233.95 31.05C234.067 31.15 234.125 31.2667 234.125 31.4C234.125 31.5333 234.067 31.65 233.95 31.75L229.575 36.15C229.475 36.2333 229.379 36.2917 229.288 36.325C229.196 36.3583 229.1 36.375 229 36.375C228.9 36.375 228.804 36.3583 228.713 36.325C228.621 36.2917 228.525 36.2333 228.425 36.15L224.05 31.75C223.933 31.65 223.875 31.5333 223.875 31.4C223.875 31.2667 223.933 31.15 224.05 31.05Z" fill="#121212" fill-opacity="0.7"/>
</g>
</svg>
