<svg width="280" height="56" viewBox="0 0 280 56" fill="none" xmlns="http://www.w3.org/2000/svg">
<rect width="280" height="56" fill=""/>
<mask id="mask0_2390_37724" style="mask-type:alpha" maskUnits="userSpaceOnUse" x="56" y="16" width="24" height="24">
<rect x="56" y="16" width="24" height="24" fill="#D9D9D9"/>
</mask>
<g mask="url(#mask0_2390_37724)">
<path d="M59.5 35.5H64.5V26.5H59.5V35.5ZM65.5 35.5H70.5V20.5H65.5V35.5ZM71.5 35.5H76.5V28.5H71.5V35.5ZM58.5 36.5V25.5H64.5V19.5H71.5V27.5H77.5V36.5H58.5Z" fill="#006CFF"/>
</g>
<path d="M103.92 32.976V34H97.12V23.696H98.432V32.976H103.92ZM106.518 30.816C106.561 31.4027 106.684 31.8613 106.886 32.192C107.1 32.512 107.414 32.7467 107.83 32.896C108.246 33.0347 108.806 33.104 109.51 33.104C110.289 33.104 111.004 32.9707 111.654 32.704V33.728C111.004 34.016 110.204 34.16 109.254 34.16C107.9 34.16 106.886 33.8347 106.214 33.184C105.542 32.5333 105.206 31.5307 105.206 30.176C105.206 28.928 105.505 27.9627 106.102 27.28C106.7 26.5973 107.612 26.256 108.838 26.256C109.916 26.256 110.732 26.544 111.286 27.12C111.852 27.696 112.134 28.4533 112.134 29.392V30.816H106.518ZM108.87 27.312C107.996 27.312 107.382 27.52 107.03 27.936C106.689 28.3413 106.518 28.9867 106.518 29.872H110.966V29.248C110.966 28.6187 110.796 28.1387 110.454 27.808C110.124 27.4773 109.596 27.312 108.87 27.312ZM119.354 33.136C119.023 33.488 118.618 33.7493 118.138 33.92C117.668 34.08 117.092 34.16 116.41 34.16C115.642 34.16 115.002 33.9627 114.49 33.568C113.988 33.1733 113.738 32.608 113.738 31.872C113.738 31.136 113.978 30.56 114.458 30.144C114.938 29.7173 115.674 29.504 116.666 29.504H119.306V29.04C119.306 28.6133 119.247 28.2827 119.13 28.048C119.012 27.8027 118.799 27.6267 118.49 27.52C118.18 27.4133 117.732 27.36 117.146 27.36C116.26 27.36 115.418 27.4987 114.618 27.776V26.688C115.375 26.4 116.276 26.256 117.322 26.256C118.41 26.256 119.22 26.48 119.754 26.928C120.287 27.3653 120.554 28.0693 120.554 29.04V34H119.45L119.354 33.136ZM116.698 30.512C116.111 30.512 115.684 30.624 115.418 30.848C115.162 31.0613 115.034 31.4027 115.034 31.872C115.034 32.3093 115.178 32.624 115.466 32.816C115.754 32.9973 116.18 33.088 116.746 33.088C117.823 33.088 118.676 32.72 119.306 31.984V30.512H116.698ZM122.394 30.32C122.394 28.9867 122.703 27.9787 123.322 27.296C123.94 26.6027 124.799 26.256 125.898 26.256C126.388 26.256 126.831 26.3147 127.226 26.432C127.62 26.5493 127.999 26.7307 128.362 26.976V23.216H129.674V34H128.554L128.458 33.2C128.106 33.5307 127.716 33.776 127.29 33.936C126.874 34.0853 126.383 34.16 125.818 34.16C124.708 34.16 123.86 33.856 123.274 33.248C122.687 32.6293 122.394 31.6533 122.394 30.32ZM126.186 27.312C125.332 27.312 124.703 27.5573 124.298 28.048C123.903 28.528 123.706 29.2853 123.706 30.32C123.706 31.312 123.892 32.0267 124.266 32.464C124.639 32.8907 125.268 33.104 126.154 33.104C127.06 33.104 127.796 32.8 128.362 32.192V28.064C127.796 27.5627 127.071 27.312 126.186 27.312ZM132.909 30.816C132.952 31.4027 133.074 31.8613 133.277 32.192C133.49 32.512 133.805 32.7467 134.221 32.896C134.637 33.0347 135.197 33.104 135.901 33.104C136.68 33.104 137.394 32.9707 138.045 32.704V33.728C137.394 34.016 136.594 34.16 135.645 34.16C134.29 34.16 133.277 33.8347 132.605 33.184C131.933 32.5333 131.597 31.5307 131.597 30.176C131.597 28.928 131.896 27.9627 132.493 27.28C133.09 26.5973 134.002 26.256 135.229 26.256C136.306 26.256 137.122 26.544 137.677 27.12C138.242 27.696 138.525 28.4533 138.525 29.392V30.816H132.909ZM135.261 27.312C134.386 27.312 133.773 27.52 133.421 27.936C133.08 28.3413 132.909 28.9867 132.909 29.872H137.357V29.248C137.357 28.6187 137.186 28.1387 136.845 27.808C136.514 27.4773 135.986 27.312 135.261 27.312ZM141.728 27.376C142.101 27.1307 142.539 26.9067 143.04 26.704C143.552 26.5013 144.053 26.352 144.544 26.256V27.28C144.075 27.376 143.568 27.5253 143.024 27.728C142.491 27.9307 142.069 28.1387 141.76 28.352V34H140.448V26.416H141.632L141.728 27.376ZM153.431 30.144C153.431 31.488 153.133 32.496 152.535 33.168C151.938 33.8293 151.095 34.16 150.007 34.16C149.442 34.16 148.946 34.0853 148.519 33.936C148.103 33.776 147.719 33.5307 147.367 33.2L147.271 34H146.151V23.216H147.463V26.976C148.157 26.496 148.999 26.256 149.991 26.256C152.285 26.256 153.431 27.552 153.431 30.144ZM149.639 27.312C148.754 27.312 148.029 27.5627 147.463 28.064V32.192C148.029 32.8 148.765 33.104 149.671 33.104C150.546 33.104 151.17 32.864 151.543 32.384C151.927 31.904 152.119 31.1573 152.119 30.144C152.119 29.1307 151.922 28.4053 151.527 27.968C151.133 27.5307 150.503 27.312 149.639 27.312ZM158.42 26.256C160.948 26.256 162.212 27.5733 162.212 30.208C162.212 31.52 161.903 32.5067 161.284 33.168C160.676 33.8293 159.721 34.16 158.42 34.16C157.119 34.16 156.159 33.8293 155.54 33.168C154.932 32.5067 154.628 31.52 154.628 30.208C154.628 27.5733 155.892 26.256 158.42 26.256ZM158.42 33.04C159.316 33.04 159.951 32.816 160.324 32.368C160.708 31.92 160.9 31.2 160.9 30.208C160.9 29.216 160.708 28.496 160.324 28.048C159.94 27.6 159.305 27.376 158.42 27.376C157.535 27.376 156.9 27.6 156.516 28.048C156.132 28.496 155.94 29.216 155.94 30.208C155.94 31.2 156.127 31.92 156.5 32.368C156.884 32.816 157.524 33.04 158.42 33.04ZM169.025 33.136C168.695 33.488 168.289 33.7493 167.809 33.92C167.34 34.08 166.764 34.16 166.081 34.16C165.313 34.16 164.673 33.9627 164.161 33.568C163.66 33.1733 163.409 32.608 163.409 31.872C163.409 31.136 163.649 30.56 164.129 30.144C164.609 29.7173 165.345 29.504 166.337 29.504H168.977V29.04C168.977 28.6133 168.919 28.2827 168.801 28.048C168.684 27.8027 168.471 27.6267 168.161 27.52C167.852 27.4133 167.404 27.36 166.817 27.36C165.932 27.36 165.089 27.4987 164.289 27.776V26.688C165.047 26.4 165.948 26.256 166.993 26.256C168.081 26.256 168.892 26.48 169.425 26.928C169.959 27.3653 170.225 28.0693 170.225 29.04V34H169.121L169.025 33.136ZM166.369 30.512C165.783 30.512 165.356 30.624 165.089 30.848C164.833 31.0613 164.705 31.4027 164.705 31.872C164.705 32.3093 164.849 32.624 165.137 32.816C165.425 32.9973 165.852 33.088 166.417 33.088C167.495 33.088 168.348 32.72 168.977 31.984V30.512H166.369ZM173.666 27.376C174.039 27.1307 174.476 26.9067 174.978 26.704C175.49 26.5013 175.991 26.352 176.482 26.256V27.28C176.012 27.376 175.506 27.5253 174.962 27.728C174.428 27.9307 174.007 28.1387 173.698 28.352V34H172.386V26.416H173.57L173.666 27.376ZM177.05 30.32C177.05 28.9867 177.359 27.9787 177.978 27.296C178.597 26.6027 179.455 26.256 180.554 26.256C181.045 26.256 181.487 26.3147 181.882 26.432C182.277 26.5493 182.655 26.7307 183.018 26.976V23.216H184.33V34H183.21L183.114 33.2C182.762 33.5307 182.373 33.776 181.946 33.936C181.53 34.0853 181.039 34.16 180.474 34.16C179.365 34.16 178.517 33.856 177.93 33.248C177.343 32.6293 177.05 31.6533 177.05 30.32ZM180.842 27.312C179.989 27.312 179.359 27.5573 178.954 28.048C178.559 28.528 178.362 29.2853 178.362 30.32C178.362 31.312 178.549 32.0267 178.922 32.464C179.295 32.8907 179.925 33.104 180.81 33.104C181.717 33.104 182.453 32.8 183.018 32.192V28.064C182.453 27.5627 181.727 27.312 180.842 27.312Z" fill="#006CFF"/>
</svg>
