<svg width="18" height="18" viewBox="0 0 18 18" fill="none" xmlns="http://www.w3.org/2000/svg">
<path d="M3.375 12.125L6.465 8.52C6.51486 8.4617 6.5814 8.42009 6.65564 8.40079C6.72989 8.38148 6.80827 8.38542 6.88021 8.41205C6.95215 8.43869 7.01419 8.48675 7.05797 8.54975C7.10174 8.61275 7.12513 8.68766 7.125 8.76438V12.125H10.5625C10.7106 12.125 10.8565 12.1602 10.9882 12.2278C11.12 12.2953 11.2338 12.3933 11.3201 12.5136C11.4065 12.6338 11.463 12.7729 11.4849 12.9194C11.5068 13.0658 11.4936 13.2153 11.4462 13.3556L10.4013 16.4506C10.265 16.8537 9.8875 17.125 9.46187 17.125H3.375M3.375 12.125V17.125M3.375 12.125H0.875V17.125H3.375M15.875 0.875H9.625C9.29348 0.875 8.97554 1.0067 8.74112 1.24112C8.5067 1.47554 8.375 1.79348 8.375 2.125V5.875C8.375 6.20652 8.5067 6.52446 8.74112 6.75888C8.97554 6.9933 9.29348 7.125 9.625 7.125H10.25V9.625L13.375 7.125H15.875C16.2065 7.125 16.5245 6.9933 16.7589 6.75888C16.9933 6.52446 17.125 6.20652 17.125 5.875V2.125C17.125 1.79348 16.9933 1.47554 16.7589 1.24112C16.5245 1.0067 16.2065 0.875 15.875 0.875Z" stroke="#3F3F3F" stroke-miterlimit="10" stroke-linecap="round" stroke-linejoin="round"/>
</svg>
