<svg width="280" height="56" viewBox="0 0 280 56" fill="none" xmlns="http://www.w3.org/2000/svg">
<mask id="mask0_2390_37729" style="mask-type:alpha" maskUnits="userSpaceOnUse" x="56" y="16" width="24" height="24">
<rect x="56" y="16" width="24" height="24" fill="#D9D9D9"/>
</mask>
<g mask="url(#mask0_2390_37729)">
<path d="M63.725 32.5H64.725V28H63.725V32.5ZM71.275 32.5H72.275V23H71.275V32.5ZM67.5 32.5H68.5V30H67.5V32.5ZM67.5 28H68.5V26H67.5V28ZM61.625 36C61.1583 36 60.771 35.846 60.463 35.538C60.1543 35.2293 60 34.8417 60 34.375V21.625C60 21.1583 60.1543 20.771 60.463 20.463C60.771 20.1543 61.1583 20 61.625 20H74.375C74.8417 20 75.2293 20.1543 75.538 20.463C75.846 20.771 76 21.1583 76 21.625V34.375C76 34.8417 75.846 35.2293 75.538 35.538C75.2293 35.846 74.8417 36 74.375 36H61.625ZM61.625 35H74.375C74.5417 35 74.6873 34.9373 74.812 34.812C74.9373 34.6873 75 34.5417 75 34.375V21.625C75 21.4583 74.9373 21.3127 74.812 21.188C74.6873 21.0627 74.5417 21 74.375 21H61.625C61.4583 21 61.3127 21.0627 61.188 21.188C61.0627 21.3127 61 21.4583 61 21.625V34.375C61 34.5417 61.0627 34.6873 61.188 34.812C61.3127 34.9373 61.4583 35 61.625 35Z" fill="#6A6A6A"/>
</g>
<path d="M98.416 25.744V34H97.12V23.696H98.528L102.016 30.848L105.504 23.696H106.912V34H105.616V25.744L102.464 32.208H101.584L98.416 25.744ZM112.623 26.256C115.151 26.256 116.415 27.5733 116.415 30.208C116.415 31.52 116.106 32.5067 115.487 33.168C114.879 33.8293 113.925 34.16 112.623 34.16C111.322 34.16 110.362 33.8293 109.743 33.168C109.135 32.5067 108.831 31.52 108.831 30.208C108.831 27.5733 110.095 26.256 112.623 26.256ZM112.623 33.04C113.519 33.04 114.154 32.816 114.527 32.368C114.911 31.92 115.103 31.2 115.103 30.208C115.103 29.216 114.911 28.496 114.527 28.048C114.143 27.6 113.509 27.376 112.623 27.376C111.738 27.376 111.103 27.6 110.719 28.048C110.335 28.496 110.143 29.216 110.143 30.208C110.143 31.2 110.33 31.92 110.703 32.368C111.087 32.816 111.727 33.04 112.623 33.04ZM123.987 34V29.088C123.987 28.6293 123.928 28.2773 123.811 28.032C123.693 27.776 123.496 27.5947 123.219 27.488C122.952 27.3707 122.563 27.312 122.051 27.312C121.581 27.312 121.139 27.3973 120.723 27.568C120.307 27.7387 119.949 27.9733 119.651 28.272V34H118.339V26.416H119.523L119.603 27.28C120.435 26.5973 121.416 26.256 122.547 26.256C123.507 26.256 124.205 26.48 124.643 26.928C125.08 27.376 125.299 28.08 125.299 29.04V34H123.987ZM127.976 26.416V24.544L129.288 24.144V26.416H131.384L131.304 27.456H129.288V31.824C129.288 32.2933 129.389 32.624 129.592 32.816C129.805 33.008 130.168 33.104 130.68 33.104C130.957 33.104 131.261 33.0507 131.592 32.944V33.936C131.197 34.0853 130.744 34.16 130.232 34.16C129.496 34.16 128.936 33.9627 128.552 33.568C128.168 33.1733 127.976 32.6133 127.976 31.888V27.456H126.824V26.416H127.976ZM138.846 34V29.088C138.846 28.4373 138.702 27.9787 138.414 27.712C138.126 27.4453 137.641 27.312 136.958 27.312C136.531 27.312 136.089 27.408 135.63 27.6C135.182 27.7813 134.809 28.0213 134.51 28.32V34H133.198V23.216H134.51V27.232C135.31 26.5813 136.275 26.256 137.406 26.256C138.334 26.256 139.022 26.4853 139.47 26.944C139.929 27.392 140.158 28.0907 140.158 29.04V34H138.846ZM143.635 23.216V32.224C143.635 32.5333 143.683 32.752 143.779 32.88C143.886 32.9973 144.056 33.056 144.291 33.056C144.536 33.056 144.776 33.024 145.011 32.96V34C144.734 34.1067 144.387 34.16 143.971 34.16C143.438 34.16 143.027 34.0213 142.739 33.744C142.462 33.456 142.323 32.9973 142.323 32.368V23.216H143.635ZM146.519 26.416L149.159 32.528L151.879 26.416H153.223L150.039 33.664C149.73 34.3787 149.442 34.9547 149.175 35.392C148.909 35.8293 148.589 36.176 148.215 36.432C147.853 36.688 147.415 36.816 146.903 36.816C146.402 36.816 145.965 36.7467 145.591 36.608V35.552C145.89 35.6587 146.215 35.712 146.567 35.712C146.919 35.712 147.197 35.648 147.399 35.52C147.613 35.4027 147.794 35.2267 147.943 34.992C148.093 34.768 148.279 34.4107 148.503 33.92L145.159 26.416H146.519ZM166.197 33.136C165.867 33.488 165.461 33.7493 164.981 33.92C164.512 34.08 163.936 34.16 163.253 34.16C162.485 34.16 161.845 33.9627 161.333 33.568C160.832 33.1733 160.581 32.608 160.581 31.872C160.581 31.136 160.821 30.56 161.301 30.144C161.781 29.7173 162.517 29.504 163.509 29.504H166.149V29.04C166.149 28.6133 166.091 28.2827 165.973 28.048C165.856 27.8027 165.643 27.6267 165.333 27.52C165.024 27.4133 164.576 27.36 163.989 27.36C163.104 27.36 162.261 27.4987 161.461 27.776V26.688C162.219 26.4 163.12 26.256 164.165 26.256C165.253 26.256 166.064 26.48 166.597 26.928C167.131 27.3653 167.397 28.0693 167.397 29.04V34H166.293L166.197 33.136ZM163.541 30.512C162.955 30.512 162.528 30.624 162.261 30.848C162.005 31.0613 161.877 31.4027 161.877 31.872C161.877 32.3093 162.021 32.624 162.309 32.816C162.597 32.9973 163.024 33.088 163.589 33.088C164.667 33.088 165.52 32.72 166.149 31.984V30.512H163.541ZM175.206 34V29.088C175.206 28.6293 175.147 28.2773 175.03 28.032C174.912 27.776 174.715 27.5947 174.438 27.488C174.171 27.3707 173.782 27.312 173.27 27.312C172.8 27.312 172.358 27.3973 171.942 27.568C171.526 27.7387 171.168 27.9733 170.87 28.272V34H169.558V26.416H170.742L170.822 27.28C171.654 26.5973 172.635 26.256 173.766 26.256C174.726 26.256 175.424 26.48 175.862 26.928C176.299 27.376 176.517 28.08 176.517 29.04V34H175.206ZM183.744 33.136C183.413 33.488 183.008 33.7493 182.528 33.92C182.059 34.08 181.483 34.16 180.8 34.16C180.032 34.16 179.392 33.9627 178.88 33.568C178.379 33.1733 178.128 32.608 178.128 31.872C178.128 31.136 178.368 30.56 178.848 30.144C179.328 29.7173 180.064 29.504 181.056 29.504H183.696V29.04C183.696 28.6133 183.637 28.2827 183.52 28.048C183.403 27.8027 183.189 27.6267 182.88 27.52C182.571 27.4133 182.123 27.36 181.536 27.36C180.651 27.36 179.808 27.4987 179.008 27.776V26.688C179.765 26.4 180.667 26.256 181.712 26.256C182.8 26.256 183.611 26.48 184.144 26.928C184.677 27.3653 184.944 28.0693 184.944 29.04V34H183.84L183.744 33.136ZM181.088 30.512C180.501 30.512 180.075 30.624 179.808 30.848C179.552 31.0613 179.424 31.4027 179.424 31.872C179.424 32.3093 179.568 32.624 179.856 32.816C180.144 32.9973 180.571 33.088 181.136 33.088C182.213 33.088 183.067 32.72 183.696 31.984V30.512H181.088ZM188.416 23.216V32.224C188.416 32.5333 188.464 32.752 188.56 32.88C188.667 32.9973 188.838 33.056 189.072 33.056C189.318 33.056 189.558 33.024 189.792 32.96V34C189.515 34.1067 189.168 34.16 188.752 34.16C188.219 34.16 187.808 34.0213 187.52 33.744C187.243 33.456 187.104 32.9973 187.104 32.368V23.216H188.416ZM191.301 26.416L193.941 32.528L196.661 26.416H198.005L194.821 33.664C194.511 34.3787 194.223 34.9547 193.957 35.392C193.69 35.8293 193.37 36.176 192.997 36.432C192.634 36.688 192.197 36.816 191.685 36.816C191.183 36.816 190.746 36.7467 190.373 36.608V35.552C190.671 35.6587 190.997 35.712 191.349 35.712C191.701 35.712 191.978 35.648 192.181 35.52C192.394 35.4027 192.575 35.2267 192.725 34.992C192.874 34.768 193.061 34.4107 193.285 33.92L189.941 26.416H191.301ZM202.731 32.016C202.731 31.7707 202.673 31.5787 202.555 31.44C202.438 31.2907 202.267 31.168 202.043 31.072C201.83 30.9653 201.489 30.8373 201.019 30.688L200.587 30.544C200.054 30.3627 199.633 30.1973 199.323 30.048C199.025 29.888 198.785 29.6747 198.603 29.408C198.422 29.1307 198.331 28.7733 198.331 28.336C198.331 27.6533 198.571 27.136 199.051 26.784C199.531 26.432 200.283 26.256 201.307 26.256C202.097 26.256 202.811 26.3573 203.451 26.56V27.712C202.779 27.488 202.134 27.376 201.515 27.376C200.833 27.376 200.347 27.4453 200.059 27.584C199.782 27.7227 199.643 27.968 199.643 28.32C199.643 28.5653 199.702 28.7573 199.819 28.896C199.947 29.0347 200.123 29.152 200.347 29.248C200.582 29.3333 200.987 29.4667 201.563 29.648C202.193 29.84 202.678 30.032 203.019 30.224C203.371 30.416 203.627 30.6507 203.787 30.928C203.958 31.2053 204.043 31.5627 204.043 32C204.043 33.44 203.041 34.16 201.035 34.16C200.555 34.16 200.091 34.128 199.643 34.064C199.195 34 198.822 33.9147 198.523 33.808V32.656C199.249 32.912 200.027 33.04 200.859 33.04C201.553 33.04 202.038 32.9707 202.315 32.832C202.593 32.6827 202.731 32.4107 202.731 32.016ZM207.004 24.64V23.44H208.46V24.64H207.004ZM208.444 34H207.132V27.456H205.964L206.092 26.416H208.444V34ZM214.778 32.016C214.778 31.7707 214.719 31.5787 214.602 31.44C214.485 31.2907 214.314 31.168 214.09 31.072C213.877 30.9653 213.535 30.8373 213.066 30.688L212.634 30.544C212.101 30.3627 211.679 30.1973 211.37 30.048C211.071 29.888 210.831 29.6747 210.65 29.408C210.469 29.1307 210.378 28.7733 210.378 28.336C210.378 27.6533 210.618 27.136 211.098 26.784C211.578 26.432 212.33 26.256 213.354 26.256C214.143 26.256 214.858 26.3573 215.498 26.56V27.712C214.826 27.488 214.181 27.376 213.562 27.376C212.879 27.376 212.394 27.4453 212.106 27.584C211.829 27.7227 211.69 27.968 211.69 28.32C211.69 28.5653 211.749 28.7573 211.866 28.896C211.994 29.0347 212.17 29.152 212.394 29.248C212.629 29.3333 213.034 29.4667 213.61 29.648C214.239 29.84 214.725 30.032 215.066 30.224C215.418 30.416 215.674 30.6507 215.834 30.928C216.005 31.2053 216.09 31.5627 216.09 32C216.09 33.44 215.087 34.16 213.082 34.16C212.602 34.16 212.138 34.128 211.69 34.064C211.242 34 210.869 33.9147 210.57 33.808V32.656C211.295 32.912 212.074 33.04 212.906 33.04C213.599 33.04 214.085 32.9707 214.362 32.832C214.639 32.6827 214.778 32.4107 214.778 32.016Z" fill="#6A6A6A"/>
</svg>
