<svg width="280" height="64" viewBox="0 0 280 64" fill="none" xmlns="http://www.w3.org/2000/svg">
<mask id="mask0_2390_37704" style="mask-type:alpha" maskUnits="userSpaceOnUse" x="40" y="16" width="32" height="32">
<rect x="40" y="16" width="32" height="32" fill="#D9D9D9"/>
</mask>
<g mask="url(#mask0_2390_37704)">
<path d="M57.9987 27.9997V21.333H66.6654V27.9997H57.9987ZM45.332 31.9997V21.333H53.9987V31.9997H45.332ZM57.9987 42.6663V31.9997H66.6654V42.6663H57.9987ZM45.332 42.6663V35.9997H53.9987V42.6663H45.332ZM46.6654 30.6663H52.6654V22.6663H46.6654V30.6663ZM59.332 41.333H65.332V33.333H59.332V41.333ZM59.332 26.6663H65.332V22.6663H59.332V26.6663ZM46.6654 41.333H52.6654V37.333H46.6654V41.333Z" fill="#6A6A6A"/>
</g>
<path d="M89.4 39V26.12H91.16L95.52 35.06L99.88 26.12H101.64V39H100.02V28.68L96.08 36.76H94.98L91.02 28.68V39H89.4ZM105.516 42.52C104.889 42.52 104.343 42.4333 103.876 42.26V40.94C104.103 41.02 104.309 41.0733 104.496 41.1C104.696 41.1267 104.896 41.14 105.096 41.14C105.549 41.14 105.903 41.06 106.156 40.9C106.423 40.74 106.656 40.4933 106.856 40.16C107.056 39.84 107.276 39.42 107.516 38.9L103.336 29.52H105.036L108.336 37.16L111.736 29.52H113.416L109.436 38.58C109.103 39.34 108.763 40.0133 108.416 40.6C108.069 41.2 107.669 41.6667 107.216 42C106.763 42.3467 106.196 42.52 105.516 42.52ZM123.805 39.2C122.205 39.2 120.912 39 119.925 38.6V37.14C120.485 37.3533 121.078 37.52 121.705 37.64C122.345 37.7467 122.998 37.8 123.665 37.8C124.812 37.8 125.672 37.6467 126.245 37.34C126.818 37.02 127.105 36.4533 127.105 35.64C127.105 35.1333 126.985 34.7333 126.745 34.44C126.518 34.1333 126.138 33.88 125.605 33.68C125.072 33.4667 124.358 33.2533 123.465 33.04C122.052 32.6933 121.058 32.2467 120.485 31.7C119.912 31.14 119.625 30.3933 119.625 29.46C119.625 28.3667 120.018 27.5067 120.805 26.88C121.592 26.24 122.792 25.92 124.405 25.92C125.152 25.92 125.845 25.9733 126.485 26.08C127.125 26.1867 127.618 26.3 127.965 26.42V27.86C127.485 27.6867 126.965 27.5533 126.405 27.46C125.845 27.3667 125.265 27.32 124.665 27.32C123.572 27.32 122.732 27.48 122.145 27.8C121.558 28.12 121.265 28.6733 121.265 29.46C121.265 29.9 121.365 30.26 121.565 30.54C121.778 30.8067 122.132 31.04 122.625 31.24C123.118 31.4267 123.805 31.6267 124.685 31.84C125.738 32.0933 126.558 32.4 127.145 32.76C127.732 33.1067 128.145 33.52 128.385 34C128.625 34.48 128.745 35.0267 128.745 35.64C128.745 36.7733 128.332 37.6533 127.505 38.28C126.678 38.8933 125.445 39.2 123.805 39.2ZM135.618 39.2C133.965 39.2 132.738 38.7733 131.938 37.92C131.138 37.0533 130.738 35.8333 130.738 34.26C130.738 32.5933 131.192 31.3533 132.098 30.54C133.005 29.7267 134.225 29.32 135.758 29.32C136.385 29.32 136.905 29.3667 137.318 29.46C137.732 29.54 138.132 29.6733 138.518 29.86V31.16C137.798 30.8133 136.978 30.64 136.058 30.64C134.885 30.64 133.978 30.92 133.338 31.48C132.698 32.0267 132.378 32.9533 132.378 34.26C132.378 35.5133 132.658 36.4333 133.218 37.02C133.778 37.5933 134.705 37.88 135.998 37.88C136.918 37.88 137.765 37.7067 138.538 37.36V38.68C138.125 38.8533 137.678 38.98 137.198 39.06C136.732 39.1533 136.205 39.2 135.618 39.2ZM140.377 39V29.52H141.857L141.977 30.72C142.443 30.4133 142.99 30.1333 143.617 29.88C144.257 29.6267 144.883 29.44 145.497 29.32V30.6C145.123 30.68 144.717 30.7933 144.277 30.94C143.837 31.0733 143.417 31.2267 143.017 31.4C142.617 31.5733 142.283 31.7533 142.017 31.94V39H140.377ZM148.368 42.52C147.741 42.52 147.194 42.4333 146.728 42.26V40.94C146.954 41.02 147.161 41.0733 147.348 41.1C147.548 41.1267 147.748 41.14 147.948 41.14C148.401 41.14 148.754 41.06 149.008 40.9C149.274 40.74 149.508 40.4933 149.708 40.16C149.908 39.84 150.128 39.42 150.368 38.9L146.188 29.52H147.888L151.188 37.16L154.588 29.52H156.268L152.288 38.58C151.954 39.34 151.614 40.0133 151.268 40.6C150.921 41.2 150.521 41.6667 150.068 42C149.614 42.3467 149.048 42.52 148.368 42.52ZM163.087 39.2C162.381 39.2 161.761 39.1067 161.227 38.92C160.707 38.72 160.227 38.4133 159.787 38L159.667 39H158.267V25.52H159.907V30.22C160.774 29.62 161.827 29.32 163.067 29.32C164.414 29.32 165.467 29.7067 166.227 30.48C166.987 31.24 167.367 32.4733 167.367 34.18C167.367 35.9 166.987 37.1667 166.227 37.98C165.467 38.7933 164.421 39.2 163.087 39.2ZM162.667 37.88C163.774 37.88 164.561 37.5733 165.027 36.96C165.494 36.3467 165.727 35.42 165.727 34.18C165.727 32.8867 165.474 31.9733 164.967 31.44C164.474 30.9067 163.694 30.64 162.627 30.64C162.054 30.64 161.541 30.7267 161.087 30.9C160.634 31.06 160.241 31.2867 159.907 31.58V36.74C160.267 37.1267 160.681 37.4133 161.147 37.6C161.614 37.7867 162.121 37.88 162.667 37.88ZM174.431 39.2C172.738 39.2 171.471 38.7933 170.631 37.98C169.791 37.1667 169.371 35.9133 169.371 34.22C169.371 32.7 169.731 31.5067 170.451 30.64C171.184 29.76 172.338 29.32 173.911 29.32C174.844 29.32 175.611 29.4933 176.211 29.84C176.824 30.1733 177.278 30.64 177.571 31.24C177.878 31.8267 178.031 32.4933 178.031 33.24V35.02H171.011C171.064 35.74 171.218 36.3067 171.471 36.72C171.738 37.1333 172.131 37.4333 172.651 37.62C173.184 37.7933 173.884 37.88 174.751 37.88C175.724 37.88 176.618 37.7133 177.431 37.38V38.66C177.018 38.8333 176.551 38.9667 176.031 39.06C175.524 39.1533 174.991 39.2 174.431 39.2ZM171.011 33.84H176.571V33.06C176.571 32.2867 176.364 31.6933 175.951 31.28C175.551 30.8533 174.884 30.64 173.951 30.64C172.818 30.64 172.044 30.9067 171.631 31.44C171.218 31.9733 171.011 32.7733 171.011 33.84Z" fill="#6A6A6A"/>
</svg>
