<svg width="40" height="40" viewBox="0 0 50 61" fill="none" xmlns="http://www.w3.org/2000/svg">
<circle cx="25" cy="25.9248" r="24.5" fill="#B0D1FF" stroke="#006CFF"/>
<path d="M15.8 30.9248V23.6448H13.154V21.9088H20.7V23.6448H18.054V30.9248H15.8ZM21.432 30.9248V29.2728H23.238V30.9248H21.432ZM24.3917 30.9248V21.9088H29.1517C30.0571 21.9088 30.7384 22.1235 31.1957 22.5528C31.6624 22.9821 31.8957 23.5888 31.8957 24.3728C31.8957 24.8488 31.8024 25.2501 31.6157 25.5768C31.4384 25.8941 31.2004 26.1415 30.9017 26.3188C31.3124 26.4681 31.6344 26.6875 31.8677 26.9768C32.1011 27.2661 32.2177 27.7001 32.2177 28.2788C32.2177 29.1375 31.9657 29.7955 31.4617 30.2528C30.9577 30.7008 30.2344 30.9248 29.2917 30.9248H24.3917ZM26.6457 25.5768H28.4797C28.8717 25.5768 29.1564 25.4881 29.3337 25.3108C29.5111 25.1335 29.5997 24.8861 29.5997 24.5688C29.5997 24.2235 29.5111 23.9668 29.3337 23.7988C29.1564 23.6215 28.8344 23.5328 28.3677 23.5328H26.6457V25.5768ZM26.6457 29.3148H28.7037C29.1144 29.3148 29.4177 29.2308 29.6137 29.0628C29.8191 28.8948 29.9217 28.5961 29.9217 28.1668C29.9217 27.8215 29.8237 27.5648 29.6277 27.3968C29.4317 27.2195 29.0957 27.1308 28.6197 27.1308H26.6457V29.3148Z" fill="white"/>
<circle cx="25" cy="50.9248" r="10" fill="#E6F0FF"/>
<path d="M26.223 55.0348C24.3017 55.0348 23.341 54.0925 23.341 52.2078V50.7668C23.341 50.1801 23.4693 49.6595 23.726 49.2048C23.99 48.7428 24.364 48.3835 24.848 48.1268C25.332 47.8628 25.9077 47.7308 26.575 47.7308C26.9563 47.7308 27.2863 47.7528 27.565 47.7968C27.851 47.8408 28.1223 47.9141 28.379 48.0168V49.4578C28.137 49.3551 27.8803 49.2818 27.609 49.2378C27.3377 49.1865 27.0407 49.1608 26.718 49.1608C26.1533 49.1608 25.7243 49.2781 25.431 49.5128C25.145 49.7401 25.002 50.0371 25.002 50.4038V50.6788C25.2147 50.5321 25.4713 50.4221 25.772 50.3488C26.0727 50.2681 26.3477 50.2278 26.597 50.2278C27.4477 50.2278 28.071 50.4331 28.467 50.8438C28.8703 51.2471 29.072 51.8301 29.072 52.5928C29.072 53.0695 28.973 53.4911 28.775 53.8578C28.5843 54.2245 28.28 54.5141 27.862 54.7268C27.444 54.9321 26.8977 55.0348 26.223 55.0348ZM26.234 53.7588C26.652 53.7588 26.9637 53.6598 27.169 53.4618C27.3817 53.2638 27.488 52.9961 27.488 52.6588C27.488 52.2921 27.3963 52.0135 27.213 51.8228C27.0297 51.6321 26.7107 51.5368 26.256 51.5368C26.0433 51.5368 25.827 51.5735 25.607 51.6468C25.3943 51.7201 25.1927 51.8155 25.002 51.9328V52.5268C25.002 53.3481 25.4127 53.7588 26.234 53.7588Z" fill="#006CFF"/>
</svg>
