<svg width="40" height="40" viewBox="0 0 50 61" fill="none" xmlns="http://www.w3.org/2000/svg">
<circle cx="25" cy="25.4453" r="24.5" fill="#B0D1FF" stroke="#006CFF"/>
<path d="M13.434 30.4453L16.878 21.4293H19.314L22.758 30.4453H20.406L19.594 28.4013H16.584L15.786 30.4453H13.434ZM16.892 26.7353H19.286L18.082 23.5993L16.892 26.7353ZM23.6195 30.4453V28.7933H25.4255V30.4453H23.6195ZM31.0732 30.5853C29.5146 30.5853 28.3292 30.1933 27.5172 29.4093C26.7052 28.616 26.2992 27.5006 26.2992 26.0633C26.2992 24.5606 26.7146 23.3893 27.5452 22.5493C28.3759 21.7093 29.5986 21.2893 31.2132 21.2893C31.7639 21.2893 32.2586 21.322 32.6972 21.3873C33.1452 21.4526 33.5699 21.5506 33.9712 21.6813V23.6133C33.5699 23.464 33.1499 23.3613 32.7112 23.3053C32.2819 23.2493 31.8386 23.2213 31.3812 23.2213C30.4106 23.2213 29.7012 23.4546 29.2532 23.9213C28.8146 24.3786 28.5952 25.0926 28.5952 26.0633C28.5952 26.95 28.8052 27.608 29.2252 28.0373C29.6452 28.4573 30.2659 28.6673 31.0872 28.6673C31.6286 28.6673 32.1326 28.5926 32.5992 28.4433V26.7353H30.6532V25.3213H34.4892V29.7873C34.1719 29.9926 33.7286 30.1793 33.1592 30.3473C32.5992 30.506 31.9039 30.5853 31.0732 30.5853Z" fill="white"/>
<circle cx="25" cy="50.4453" r="10" fill="#E6F0FF"/>
<path d="M21.507 54.4453V48.9893L20.341 49.1763V47.6913L23.278 47.2513V54.4453H21.507ZM26.354 54.5553C26.1413 54.5553 25.903 54.5406 25.639 54.5113C25.3823 54.4893 25.1256 54.4526 24.869 54.4013C24.6196 54.35 24.3996 54.284 24.209 54.2033V52.7293C24.385 52.8026 24.583 52.8686 24.803 52.9273C25.0303 52.9786 25.254 53.019 25.474 53.0483C25.7013 53.0776 25.903 53.0923 26.079 53.0923C26.5336 53.0923 26.8673 53.0226 27.08 52.8833C27.3 52.744 27.41 52.5056 27.41 52.1683C27.41 51.8676 27.333 51.6513 27.179 51.5193C27.0323 51.38 26.7463 51.3103 26.321 51.3103H24.176V50.4193L24.363 47.3613H28.763L28.631 48.7253H25.881L25.804 50.0123H26.728C27.586 50.0123 28.213 50.203 28.609 50.5843C29.0123 50.9583 29.214 51.5083 29.214 52.2343C29.214 52.9383 28.9756 53.503 28.499 53.9283C28.0296 54.3463 27.3146 54.5553 26.354 54.5553Z" fill="#006CFF"/>
</svg>
