<svg width="40" height="40" viewBox="0 0 50 61" fill="none" xmlns="http://www.w3.org/2000/svg">
<circle cx="25" cy="25.7935" r="24.5" fill="#B0D1FF" stroke="#006CFF"/>
<path d="M13.434 30.7935L16.878 21.7775H19.314L22.758 30.7935H20.406L19.594 28.7495H16.584L15.786 30.7935H13.434ZM16.892 27.0835H19.286L18.082 23.9475L16.892 27.0835ZM23.6195 30.7935V29.1415H25.4255V30.7935H23.6195ZM26.2992 30.7935L29.7432 21.7775H32.1792L35.6232 30.7935H33.2712L32.4592 28.7495H29.4492L28.6512 30.7935H26.2992ZM29.7572 27.0835H32.1512L30.9472 23.9475L29.7572 27.0835Z" fill="white"/>
<circle cx="25" cy="50.7935" r="10" fill="#E6F0FF"/>
<path d="M21.507 54.7935V49.3375L20.341 49.5245V48.0395L23.278 47.5995V54.7935H21.507ZM27.289 54.7935V53.3855H23.956V52.2085L27.509 47.7095H29.06V51.9555H29.72V53.3855H29.06V54.7935H27.289ZM25.661 52.0215H27.586V49.6565L25.661 52.0215Z" fill="#006CFF"/>
</svg>
