<svg width="40" height="40" viewBox="0 0 50 61" fill="none" xmlns="http://www.w3.org/2000/svg">
<circle cx="25" cy="25.8379" r="24.5" fill="#B0D1FF" stroke="#006CFF"/>
<path d="M13.714 30.8379V21.8219H15.968V29.1019H20.224V30.8379H13.714ZM20.8168 30.8379V29.1859H22.6228V30.8379H20.8168ZM26.7843 30.8379V21.8219H31.5443C32.4496 21.8219 33.131 22.0366 33.5883 22.4659C34.055 22.8952 34.2883 23.5019 34.2883 24.2859C34.2883 24.7619 34.195 25.1632 34.0083 25.4899C33.831 25.8072 33.593 26.0546 33.2943 26.2319C33.705 26.3812 34.027 26.6006 34.2603 26.8899C34.4936 27.1792 34.6103 27.6132 34.6103 28.1919C34.6103 29.0506 34.3583 29.7086 33.8543 30.1659C33.3503 30.6139 32.627 30.8379 31.6843 30.8379H26.7843ZM29.0383 25.4899H30.8723C31.2643 25.4899 31.549 25.4012 31.7263 25.2239C31.9036 25.0466 31.9923 24.7992 31.9923 24.4819C31.9923 24.1366 31.9036 23.8799 31.7263 23.7119C31.549 23.5346 31.227 23.4459 30.7603 23.4459H29.0383V25.4899ZM29.0383 29.2279H31.0963C31.507 29.2279 31.8103 29.1439 32.0063 28.9759C32.2116 28.8079 32.3143 28.5092 32.3143 28.0799C32.3143 27.7346 32.2163 27.4779 32.0203 27.3099C31.8243 27.1326 31.4883 27.0439 31.0123 27.0439H29.0383V29.2279Z" fill="white"/>
<circle cx="25" cy="50.8379" r="10" fill="#E6F0FF"/>
<path d="M20.507 54.8379V49.3819L19.341 49.5689V48.0839L22.278 47.6439V54.8379H20.507ZM24.342 54.8379V49.3819L23.176 49.5689V48.0839L26.113 47.6439V54.8379H24.342Z" fill="#006CFF"/>
</svg>
