<svg width="40" height="40" viewBox="0 0 50 61" fill="none" xmlns="http://www.w3.org/2000/svg">
<circle cx="25" cy="25.8818" r="24.5" fill="#B0D1FF" stroke="#006CFF"/>
<path d="M13.714 30.8818V21.8658H15.94L18.39 26.8638L20.826 21.8658H23.038V30.8818H20.784V25.7018L19.006 29.3418H17.76L15.968 25.7018V30.8818H13.714ZM24.1801 30.8818V29.2298H25.9861V30.8818H24.1801ZM31.7038 31.0218C30.1264 31.0218 28.9224 30.6205 28.0918 29.8178C27.2704 29.0058 26.8598 27.8812 26.8598 26.4438C26.8598 24.9412 27.2611 23.7792 28.0638 22.9578C28.8758 22.1365 30.0844 21.7258 31.6898 21.7258C32.2404 21.7258 32.7304 21.7678 33.1598 21.8518C33.5984 21.9358 34.0184 22.0478 34.4198 22.1878V24.1618C33.6078 23.8258 32.7538 23.6578 31.8578 23.6578C30.9244 23.6578 30.2384 23.8818 29.7998 24.3298C29.3704 24.7778 29.1558 25.4825 29.1558 26.4438C29.1558 27.3585 29.3844 28.0305 29.8418 28.4598C30.2991 28.8892 30.9804 29.1038 31.8858 29.1038C32.3244 29.1038 32.7584 29.0665 33.1878 28.9918C33.6171 28.9078 34.0324 28.7818 34.4338 28.6138V30.6018C34.0418 30.7325 33.6264 30.8352 33.1878 30.9098C32.7491 30.9845 32.2544 31.0218 31.7038 31.0218Z" fill="white"/>
<circle cx="25" cy="50.8818" r="10" fill="#E6F0FF"/>
<path d="M26.311 54.9918C25.299 54.9918 24.551 54.8158 24.067 54.4638C23.583 54.1045 23.341 53.5728 23.341 52.8688C23.341 52.5095 23.4327 52.1795 23.616 51.8788C23.7993 51.5782 24.0523 51.3582 24.375 51.2188C24.0817 51.0722 23.8653 50.8742 23.726 50.6248C23.5867 50.3682 23.517 50.0968 23.517 49.8108C23.517 49.1655 23.737 48.6522 24.177 48.2708C24.6243 47.8822 25.3357 47.6878 26.311 47.6878C27.3083 47.6878 28.0233 47.8822 28.456 48.2708C28.8887 48.6522 29.105 49.1655 29.105 49.8108C29.105 50.1042 29.0353 50.3865 28.896 50.6578C28.764 50.9218 28.5403 51.1308 28.225 51.2848C28.9363 51.5782 29.292 52.1062 29.292 52.8688C29.292 53.5728 29.0463 54.1045 28.555 54.4638C28.071 54.8158 27.323 54.9918 26.311 54.9918ZM26.586 50.7788C26.8793 50.6908 27.092 50.5808 27.224 50.4488C27.356 50.3095 27.422 50.1078 27.422 49.8438C27.422 49.2938 27.0517 49.0188 26.311 49.0188C25.9443 49.0188 25.6657 49.0848 25.475 49.2168C25.2917 49.3415 25.2 49.5505 25.2 49.8438C25.2 50.2838 25.4383 50.5515 25.915 50.6468L26.586 50.7788ZM26.311 53.6718C26.751 53.6718 27.0737 53.6058 27.279 53.4738C27.4917 53.3418 27.598 53.1292 27.598 52.8358C27.598 52.5792 27.5283 52.3922 27.389 52.2748C27.2497 52.1502 27.0223 52.0548 26.707 51.9888L25.904 51.8238C25.6327 51.8825 25.4163 51.9815 25.255 52.1208C25.101 52.2602 25.024 52.4802 25.024 52.7808C25.024 53.0962 25.1303 53.3235 25.343 53.4628C25.5557 53.6022 25.8783 53.6718 26.311 53.6718Z" fill="#006CFF"/>
</svg>
