<svg width="40" height="40" viewBox="0 0 50 61" fill="none" xmlns="http://www.w3.org/2000/svg">
<circle cx="25" cy="25.9624" r="24.5" fill="#B0D1FF" stroke="#006CFF"/>
<path d="M13.714 30.9624V21.9464H15.968V25.4464L19.076 21.9464H21.652L18.432 25.6284L21.848 30.9624H19.44L17.032 27.0704L15.968 28.2324V30.9624H13.714ZM22.7172 30.9624V29.3104H24.5232V30.9624H22.7172ZM29.8909 31.1024C28.4256 31.1024 27.3102 30.7291 26.5449 29.9824C25.7796 29.2357 25.3969 28.0737 25.3969 26.4964C25.3969 24.8257 25.7796 23.6264 26.5449 22.8984C27.3102 22.1704 28.4256 21.8064 29.8909 21.8064C31.3562 21.8064 32.4716 22.1704 33.2369 22.8984C34.0022 23.6264 34.3849 24.8257 34.3849 26.4964C34.3849 28.0737 34.0022 29.2357 33.2369 29.9824C32.4716 30.7291 31.3562 31.1024 29.8909 31.1024ZM29.8909 29.1844C30.6469 29.1844 31.1976 28.9697 31.5429 28.5404C31.8976 28.1017 32.0749 27.4204 32.0749 26.4964C32.0749 25.4884 31.8976 24.7791 31.5429 24.3684C31.1976 23.9484 30.6469 23.7384 29.8909 23.7384C29.1256 23.7384 28.5656 23.9484 28.2109 24.3684C27.8656 24.7791 27.6929 25.4884 27.6929 26.4964C27.6929 27.4204 27.8656 28.1017 28.2109 28.5404C28.5656 28.9697 29.1256 29.1844 29.8909 29.1844Z" fill="white"/>
<circle cx="25" cy="50.9624" r="10" fill="#E6F0FF"/>
<path d="M25.519 55.0724C25.3063 55.0724 25.068 55.0577 24.804 55.0284C24.5473 55.0064 24.2907 54.9697 24.034 54.9184C23.7847 54.8671 23.5647 54.8011 23.374 54.7204V53.2464C23.55 53.3197 23.748 53.3857 23.968 53.4444C24.1953 53.4957 24.419 53.5361 24.639 53.5654C24.8663 53.5947 25.068 53.6094 25.244 53.6094C25.6987 53.6094 26.0323 53.5397 26.245 53.4004C26.465 53.2611 26.575 53.0227 26.575 52.6854C26.575 52.3847 26.498 52.1684 26.344 52.0364C26.1973 51.8971 25.9113 51.8274 25.486 51.8274H23.341V50.9364L23.528 47.8784H27.928L27.796 49.2424H25.046L24.969 50.5294H25.893C26.751 50.5294 27.378 50.7201 27.774 51.1014C28.1773 51.4754 28.379 52.0254 28.379 52.7514C28.379 53.4554 28.1407 54.0201 27.664 54.4454C27.1947 54.8634 26.4797 55.0724 25.519 55.0724Z" fill="#006CFF"/>
</svg>
