<svg width="40" height="40" viewBox="0 0 50 61" fill="none" xmlns="http://www.w3.org/2000/svg">
<circle cx="25" cy="25.1416" r="24.5" fill="#B0D1FF" stroke="#006CFF"/>
<path d="M13.714 30.1416V21.1256H15.968V24.6256L19.076 21.1256H21.652L18.432 24.8076L21.848 30.1416H19.44L17.032 26.2496L15.968 27.4116V30.1416H13.714ZM22.7172 30.1416V28.4896H24.5232V30.1416H22.7172ZM25.6769 30.1416V21.1256H32.2289V22.8616H27.9309V24.7516H31.7109V26.5156H27.9309V30.1416H25.6769Z" fill="white"/>
<circle cx="25" cy="50.1416" r="10" fill="#E6F0FF"/>
<path d="M21.507 54.1416V48.6856L20.341 48.8726V47.3876L23.278 46.9476V54.1416H21.507ZM26.387 54.2516C26.1816 54.2516 25.9396 54.2369 25.661 54.2076C25.3823 54.1783 25.1073 54.1379 24.836 54.0866C24.572 54.0279 24.352 53.9619 24.176 53.8886V52.4146C24.4766 52.5539 24.7993 52.6529 25.144 52.7116C25.4886 52.7703 25.8113 52.7996 26.112 52.7996C26.574 52.7996 26.9186 52.7373 27.146 52.6126C27.3806 52.4879 27.498 52.2606 27.498 51.9306C27.498 51.6739 27.399 51.4869 27.201 51.3696C27.0103 51.2523 26.7316 51.1936 26.365 51.1936H25.21L25.331 49.9506H26.288C26.662 49.9506 26.9333 49.8919 27.102 49.7746C27.2706 49.6499 27.355 49.4519 27.355 49.1806C27.355 48.9239 27.2523 48.7296 27.047 48.5976C26.849 48.4656 26.5263 48.3996 26.079 48.3996C25.7636 48.3996 25.4446 48.4363 25.122 48.5096C24.7993 48.5756 24.5206 48.6636 24.286 48.7736V47.3216C24.5426 47.2189 24.8616 47.1309 25.243 47.0576C25.6316 46.9843 26.0203 46.9476 26.409 46.9476C27.3036 46.9476 27.9856 47.1383 28.455 47.5196C28.9316 47.8936 29.17 48.3739 29.17 48.9606C29.17 49.2979 29.0966 49.6133 28.95 49.9066C28.8106 50.1999 28.5943 50.4199 28.301 50.5666C28.6383 50.6839 28.8876 50.8746 29.049 51.1386C29.2176 51.4026 29.302 51.7216 29.302 52.0956C29.302 52.5869 29.1773 52.9939 28.928 53.3166C28.6786 53.6319 28.334 53.8666 27.894 54.0206C27.4613 54.1746 26.959 54.2516 26.387 54.2516Z" fill="#006CFF"/>
</svg>
