<svg width="40" height="40" viewBox="0 0 50 61" fill="none" xmlns="http://www.w3.org/2000/svg">
<circle cx="25" cy="25.8447" r="24.5" fill="#B0D1FF" stroke="#006CFF"/>
<path d="M13.714 30.8447V21.8287H18.474C19.3793 21.8287 20.0607 22.0434 20.518 22.4727C20.9847 22.9021 21.218 23.5087 21.218 24.2927C21.218 24.7687 21.1247 25.1701 20.938 25.4967C20.7607 25.8141 20.5227 26.0614 20.224 26.2387C20.6347 26.3881 20.9567 26.6074 21.19 26.8967C21.4233 27.1861 21.54 27.6201 21.54 28.1987C21.54 29.0574 21.288 29.7154 20.784 30.1727C20.28 30.6207 19.5567 30.8447 18.614 30.8447H13.714ZM15.968 25.4967H17.802C18.194 25.4967 18.4787 25.4081 18.656 25.2307C18.8333 25.0534 18.922 24.8061 18.922 24.4887C18.922 24.1434 18.8333 23.8867 18.656 23.7187C18.4787 23.5414 18.1567 23.4527 17.69 23.4527H15.968V25.4967ZM15.968 29.2347H18.026C18.4367 29.2347 18.74 29.1507 18.936 28.9827C19.1413 28.8147 19.244 28.5161 19.244 28.0867C19.244 27.7414 19.146 27.4847 18.95 27.3167C18.754 27.1394 18.418 27.0507 17.942 27.0507H15.968V29.2347ZM22.4711 30.8447V29.1927H24.2771V30.8447H22.4711ZM29.9948 30.9847C28.4175 30.9847 27.2135 30.5834 26.3828 29.7807C25.5615 28.9687 25.1508 27.8441 25.1508 26.4067C25.1508 24.9041 25.5521 23.7421 26.3548 22.9207C27.1668 22.0994 28.3755 21.6887 29.9808 21.6887C30.5315 21.6887 31.0215 21.7307 31.4508 21.8147C31.8895 21.8987 32.3095 22.0107 32.7108 22.1507V24.1247C31.8988 23.7887 31.0448 23.6207 30.1488 23.6207C29.2155 23.6207 28.5295 23.8447 28.0908 24.2927C27.6615 24.7407 27.4468 25.4454 27.4468 26.4067C27.4468 27.3214 27.6755 27.9934 28.1328 28.4227C28.5901 28.8521 29.2715 29.0667 30.1768 29.0667C30.6155 29.0667 31.0495 29.0294 31.4788 28.9547C31.9081 28.8707 32.3235 28.7447 32.7248 28.5767V30.5647C32.3328 30.6954 31.9175 30.7981 31.4788 30.8727C31.0401 30.9474 30.5455 30.9847 29.9948 30.9847Z" fill="white"/>
<circle cx="25" cy="50.8447" r="10" fill="#E6F0FF"/>
<path d="M25.838 54.9547C25.4567 54.9547 25.123 54.9327 24.837 54.8887C24.5583 54.8521 24.2907 54.7861 24.034 54.6907V53.2497C24.5107 53.4404 25.0643 53.5357 25.695 53.5357C26.267 53.5357 26.696 53.4184 26.982 53.1837C27.268 52.9491 27.411 52.6521 27.411 52.2927V52.0177C27.1983 52.1571 26.9417 52.2671 26.641 52.3477C26.3477 52.4284 26.0727 52.4687 25.816 52.4687C24.958 52.4687 24.331 52.2634 23.935 51.8527C23.539 51.4421 23.341 50.8591 23.341 50.1037C23.341 49.6271 23.4363 49.2054 23.627 48.8387C23.825 48.4647 24.133 48.1751 24.551 47.9697C24.9763 47.7571 25.5227 47.6507 26.19 47.6507C27.1727 47.6507 27.8987 47.8854 28.368 48.3547C28.8373 48.8241 29.072 49.5317 29.072 50.4777V51.9187C29.072 52.5054 28.94 53.0297 28.676 53.4917C28.4193 53.9464 28.049 54.3057 27.565 54.5697C27.0883 54.8264 26.5127 54.9547 25.838 54.9547ZM26.157 51.1597C26.3697 51.1597 26.586 51.1231 26.806 51.0497C27.026 50.9691 27.2277 50.8701 27.411 50.7527V50.1697C27.411 49.3484 27.0003 48.9377 26.179 48.9377C25.761 48.9377 25.4457 49.0367 25.233 49.2347C25.0277 49.4254 24.925 49.6931 24.925 50.0377C24.925 50.3971 25.013 50.6757 25.189 50.8737C25.3723 51.0644 25.695 51.1597 26.157 51.1597Z" fill="#006CFF"/>
</svg>
