<svg width="40" height="40" viewBox="0 0 50 61" fill="none" xmlns="http://www.w3.org/2000/svg">
<circle cx="25" cy="25.4897" r="24.5" fill="#B0D1FF" stroke="#006CFF"/>
<path d="M16.878 30.4897L13.434 21.4737H15.786L18.082 27.9137L20.392 21.4737H22.758L19.314 30.4897H16.878ZM23.6195 30.4897V28.8377H25.4255V30.4897H23.6195ZM28.3992 30.4897L26.2992 21.4737H28.5112L29.7012 26.9057L30.9332 22.7477V21.4737H32.7812L34.3352 26.9197L35.5812 21.4737H37.7932L35.7072 30.4897H33.6212L32.1092 25.2817L30.4852 30.4897H28.3992Z" fill="white"/>
<circle cx="25" cy="50.4897" r="10" fill="#E6F0FF"/>
<path d="M22.507 54.4897V49.0337L21.341 49.2207V47.7357L24.278 47.2957V54.4897H22.507ZM25.176 54.4897V53.6647C25.374 53.2541 25.627 52.8874 25.935 52.5647C26.2503 52.2421 26.5913 51.9157 26.958 51.5857C27.2953 51.2777 27.563 51.0321 27.761 50.8487C27.959 50.6654 28.0983 50.4894 28.179 50.3207C28.267 50.1521 28.311 49.9504 28.311 49.7157C28.311 49.1144 27.9223 48.8137 27.145 48.8137C26.8443 48.8137 26.5473 48.8504 26.254 48.9237C25.9606 48.9897 25.682 49.0741 25.418 49.1767V47.6477C25.704 47.5451 26.0376 47.4607 26.419 47.3947C26.8076 47.3287 27.1926 47.2957 27.574 47.2957C28.4026 47.2957 29.0333 47.5047 29.466 47.9227C29.8986 48.3407 30.115 48.9274 30.115 49.6827C30.115 50.1081 30.016 50.4784 29.818 50.7937C29.62 51.1017 29.323 51.4281 28.927 51.7727C28.6336 52.0221 28.3696 52.2531 28.135 52.4657C27.9076 52.6711 27.7133 52.8911 27.552 53.1257H30.181V54.4897H25.176Z" fill="#006CFF"/>
</svg>
