<svg width="40" height="40" viewBox="0 0 50 61" fill="none" xmlns="http://www.w3.org/2000/svg">
<circle cx="25" cy="25.0972" r="24.5" fill="#B0D1FF" stroke="#006CFF"/>
<path d="M13.434 30.0972L16.878 21.0812H19.314L22.758 30.0972H20.406L19.594 28.0532H16.584L15.786 30.0972H13.434ZM16.892 26.3872H19.286L18.082 23.2512L16.892 26.3872ZM23.6195 30.0972V28.4452H25.4255V30.0972H23.6195ZM26.2992 30.0972L29.7432 21.0812H32.1792L35.6232 30.0972H33.2712L32.4592 28.0532H29.4492L28.6512 30.0972H26.2992ZM29.7572 26.3872H32.1512L30.9472 23.2512L29.7572 26.3872Z" fill="white"/>
<circle cx="25" cy="50.0972" r="10" fill="#E6F0FF"/>
<path d="M24.507 54.0972V48.6412L23.341 48.8282V47.3432L26.278 46.9032V54.0972H24.507ZM30.058 54.2072C28.1366 54.2072 27.176 53.2648 27.176 51.3802V49.9392C27.176 49.3525 27.3043 48.8318 27.561 48.3772C27.825 47.9152 28.199 47.5558 28.683 47.2992C29.167 47.0352 29.7426 46.9032 30.41 46.9032C30.7913 46.9032 31.1213 46.9252 31.4 46.9692C31.686 47.0132 31.9573 47.0865 32.214 47.1892V48.6302C31.972 48.5275 31.7153 48.4542 31.444 48.4102C31.1726 48.3588 30.8756 48.3332 30.553 48.3332C29.9883 48.3332 29.5593 48.4505 29.266 48.6852C28.98 48.9125 28.837 49.2095 28.837 49.5762V49.8512C29.0496 49.7045 29.3063 49.5945 29.607 49.5212C29.9076 49.4405 30.1826 49.4002 30.432 49.4002C31.2826 49.4002 31.906 49.6055 32.302 50.0162C32.7053 50.4195 32.907 51.0025 32.907 51.7652C32.907 52.2418 32.808 52.6635 32.61 53.0302C32.4193 53.3968 32.115 53.6865 31.697 53.8992C31.279 54.1045 30.7326 54.2072 30.058 54.2072ZM30.069 52.9312C30.487 52.9312 30.7986 52.8322 31.004 52.6342C31.2166 52.4362 31.323 52.1685 31.323 51.8312C31.323 51.4645 31.2313 51.1858 31.048 50.9952C30.8646 50.8045 30.5456 50.7092 30.091 50.7092C29.8783 50.7092 29.662 50.7458 29.442 50.8192C29.2293 50.8925 29.0276 50.9878 28.837 51.1052V51.6992C28.837 52.5205 29.2476 52.9312 30.069 52.9312Z" fill="#006CFF"/>
</svg>
