<svg width="174" height="48" viewBox="0 0 174 48" fill="none" xmlns="http://www.w3.org/2000/svg">
<g clip-path="url(#clip0_2390_37740)">
<path opacity="0.82" d="M31.9178 0.177874L22.8323 8.55831C24.0016 9.64466 24.6692 10.2331 25.3017 10.8603C27.9001 13.3934 29.4711 16.8166 29.7074 20.46C29.9437 24.1034 28.8284 27.7051 26.5796 30.5602C21.8133 36.6386 13.5425 37.8866 6.79547 33.5477C0.955756 29.7875 -1.06323 21.5719 2.25915 14.8727C5.36429 8.60034 10.5811 4.81751 16.9096 2.45404C21.7206 0.646687 26.6499 -0.449365 31.9178 0.177874Z" fill="#006CFF"/>
<path opacity="0.82" d="M8.33203 47.9997L17.5964 39.4447C16.3792 38.2904 15.6381 37.6244 14.9385 36.9163C12.4609 34.3997 10.9649 31.062 10.726 27.5177C10.4871 23.9733 11.5213 20.4609 13.6383 17.6271C17.8423 11.9625 25.816 10.2069 32.1062 13.5597C38.6487 17.0483 41.3865 24.0482 38.8148 31.2033C38.0673 33.2725 37.0386 35.3838 35.6202 37.0456C28.5634 45.4099 19.1936 48.0126 8.33203 47.9997Z" fill="#B0D1FF"/>
<path d="M69.0907 23.0658C67.7044 22.3751 66.2503 21.8332 64.7524 21.4492C63.5736 21.1033 62.5833 20.8026 61.7719 20.5439C61.1048 20.3566 60.4762 20.05 59.9158 19.6386C59.7076 19.4722 59.5412 19.2584 59.4302 19.0145C59.3192 18.7707 59.2666 18.5037 59.2769 18.2354C59.2572 17.9092 59.3255 17.5836 59.4747 17.2937C59.6238 17.0038 59.8481 16.7604 60.1235 16.5897C60.8559 16.1915 61.6829 16.0058 62.513 16.053C63.3077 16.051 64.0989 16.1598 64.8642 16.3763C65.6049 16.5828 66.3298 16.8432 67.0334 17.1555C67.5988 17.4058 68.1511 17.6853 68.6882 17.9929C68.9788 18.1361 69.2409 18.3323 69.4613 18.5717L72.1096 13.5085C71.3237 13.0623 70.4346 12.6161 69.4421 12.1699C68.4095 11.7095 67.341 11.3364 66.2475 11.0545C65.0878 10.7545 63.8953 10.6046 62.6983 10.6083C61.0432 10.588 59.4023 10.9184 57.8809 11.5783C56.4645 12.1871 55.2466 13.1878 54.3668 14.4655C53.4915 15.7588 53.0538 17.3301 53.0538 19.1795C53.0126 20.3369 53.2714 21.485 53.8046 22.5097C54.3652 23.4593 55.1658 24.2405 56.1238 24.7729C57.3757 25.4783 58.7038 26.0349 60.0819 26.4316C61.3087 26.8044 62.3938 27.1375 63.3372 27.4306C64.1241 27.6591 64.8764 27.9952 65.5734 28.4297C65.8337 28.593 66.0471 28.8226 66.1923 29.0955C66.3375 29.3684 66.4094 29.675 66.4008 29.9848C66.4054 30.2718 66.3345 30.5548 66.1952 30.8048C66.056 31.0548 65.8535 31.2628 65.6086 31.4074C65.0804 31.748 64.2775 31.9172 63.1999 31.9151C62.1939 31.9147 61.1925 31.7777 60.2225 31.5077C59.3119 31.2596 58.4212 30.9418 57.5582 30.5571C56.8677 30.2549 56.1975 29.9072 55.552 29.516C55.2059 29.327 54.8841 29.0957 54.5936 28.8274L51.9453 34.1492C53.0069 34.8602 54.1411 35.4531 55.3284 35.9177C56.5708 36.4044 57.8538 36.7777 59.1619 37.0332C60.4521 37.29 61.7636 37.421 63.0785 37.4244C64.3037 37.4273 65.525 37.284 66.7171 36.9976C67.8385 36.7409 68.9039 36.2785 69.8606 35.6332C70.7805 35.0028 71.5323 34.152 72.0489 33.1566C72.6203 31.9921 72.898 30.7024 72.8571 29.4029C72.8571 27.7798 72.5323 26.4747 71.8828 25.4875C71.1747 24.4494 70.2127 23.615 69.0907 23.0658Z" fill="#454545"/>
<path d="M87.4184 31.6562C87.0676 31.9511 86.6702 32.1839 86.2428 32.3449C85.6606 32.5563 85.0386 32.6309 84.4237 32.5631C83.8088 32.4953 83.2172 32.2869 82.6936 31.9537C82.0457 31.5104 81.5202 30.9073 81.1666 30.2013C80.7828 29.3898 80.582 28.5021 80.5787 27.6024C80.5753 26.7027 80.7696 25.8135 81.1474 24.9991C81.5028 24.303 82.0369 23.7166 82.6936 23.3017C83.35 22.8892 84.1094 22.676 84.8819 22.6873C85.5513 22.6807 86.2112 22.8477 86.7987 23.1723C87.3801 23.4984 87.8678 23.972 88.2139 24.5464L93.945 22.7973C93.1705 21.2524 91.9785 19.9619 90.5076 19.0759C88.9763 18.1188 87.1075 17.6414 84.9011 17.6436C82.6947 17.6457 80.8322 18.1048 79.3137 19.0209C77.8224 19.8925 76.595 21.1604 75.7645 22.6873C74.9457 24.1909 74.5212 25.8818 74.5314 27.5986C74.5242 28.9036 74.7616 30.1982 75.231 31.4137C75.6922 32.6048 76.3865 33.6892 77.2724 34.6017C78.197 35.5535 79.305 36.3029 80.5277 36.8035C83.2235 37.8282 86.1867 37.8762 88.9135 36.9393C90.0405 36.5221 91.0814 35.8972 91.9835 35.0963C92.8217 34.3565 93.5031 33.4524 93.9865 32.4387L88.2362 30.6507C88.0322 31.0375 87.7542 31.3793 87.4184 31.6562Z" fill="#454545"/>
<path d="M107.665 17.4047C106.472 17.441 105.318 17.8423 104.355 18.5557C103.254 19.3581 102.369 20.4262 101.78 21.6628V17.9252H96.375V37.2371H102.253V25.5168C102.831 24.5699 103.713 23.853 104.751 23.4863C105.984 23.0127 107.295 22.779 108.613 22.7977V17.4403C108.498 17.4138 108.38 17.4019 108.262 17.4047H107.665Z" fill="#454545"/>
<path d="M119.429 31.2487L114.956 17.9247H108.887L116.234 37.3013C116.087 37.9857 115.865 38.6515 115.573 39.2865C115.386 39.7128 115.088 40.0794 114.71 40.3469C114.351 40.5676 113.936 40.6797 113.516 40.6703C113.126 40.6659 112.737 40.6226 112.356 40.5409C111.928 40.4536 111.468 40.3372 110.976 40.1885V45.2646C111.464 45.4563 111.969 45.6003 112.484 45.6946C112.982 45.782 113.486 45.8252 113.992 45.824C115.13 45.8363 116.259 45.6027 117.301 45.1385C118.284 44.6979 119.162 44.0497 119.876 43.2374C120.592 42.4222 121.136 41.4671 121.473 40.431L128.821 17.915H123.253L119.429 31.2487Z" fill="#454545"/>
<path d="M149.082 20.5792C148.357 19.6801 147.457 18.9425 146.437 18.4129C145.393 17.883 144.238 17.6137 143.07 17.6273C141.758 17.5956 140.46 17.9157 139.31 18.5552C138.235 19.1838 137.351 20.0986 136.754 21.1999V10.0713H130.863V37.2301H135.975V33.9969C136.585 35.1108 137.489 36.0318 138.585 36.6578C139.768 37.311 141.1 37.6377 142.447 37.6052C143.661 37.6242 144.864 37.3791 145.977 36.8866C147.089 36.394 148.084 35.6655 148.894 34.7503C149.714 33.8269 150.356 32.7567 150.788 31.5947C151.249 30.3548 151.479 29.0395 151.468 27.7148C151.476 26.3741 151.26 25.0417 150.829 23.7736C150.44 22.6118 149.848 21.53 149.082 20.5792ZM145.092 29.6321C144.881 30.2058 144.555 30.7287 144.134 31.1679C143.697 31.6165 143.176 31.9723 142.602 32.2143C142.027 32.4564 141.411 32.5799 140.789 32.5776C140.383 32.5749 139.979 32.5072 139.594 32.3771C139.195 32.2476 138.813 32.0718 138.454 31.8533C138.093 31.6298 137.766 31.3555 137.482 31.0385C137.186 30.7094 136.938 30.3379 136.748 29.936V25.9754C137.009 25.3598 137.368 24.7918 137.812 24.2941C138.236 23.8132 138.743 23.4154 139.31 23.1205C139.943 22.7972 140.65 22.6503 141.358 22.6946C142.066 22.7389 142.749 22.9729 143.338 23.3726C143.996 23.8425 144.521 24.4777 144.862 25.2156C145.231 25.9931 145.42 26.8457 145.415 27.7084C145.424 28.3673 145.314 29.0225 145.092 29.6418V29.6321Z" fill="#454545"/>
<path d="M172.452 22.6643C171.629 21.1486 170.414 19.888 168.938 19.0172C167.405 18.0904 165.547 17.627 163.367 17.627C161.186 17.627 159.322 18.0958 157.776 19.0334C156.286 19.9154 155.06 21.1905 154.23 22.7225C153.399 24.276 152.974 26.019 152.997 27.7856C152.99 29.0636 153.224 30.3311 153.687 31.52C154.145 32.6997 154.839 33.7708 155.725 34.6659C156.656 35.5975 157.764 36.3298 158.98 36.8192C160.375 37.3677 161.861 37.6357 163.357 37.6081C164.727 37.6249 166.089 37.3984 167.382 36.9388C168.539 36.526 169.611 35.9013 170.545 35.0959C171.413 34.3515 172.12 33.4334 172.621 32.3994L167.622 30.9865C167.306 31.7297 166.74 32.3357 166.025 32.6969C165.265 33.1223 164.411 33.3448 163.542 33.3435C162.844 33.3453 162.153 33.1907 161.52 32.8909C160.893 32.5979 160.354 32.1415 159.958 31.5685C159.536 30.9344 159.289 30.1977 159.242 29.4346H173.509C173.532 29.1921 173.564 28.9043 173.599 28.5745C173.638 28.2397 173.657 27.9029 173.656 27.5658C173.673 25.8549 173.259 24.1678 172.452 22.6643ZM159.118 25.7746C159.195 25.0501 159.433 24.3526 159.814 23.7345C160.173 23.163 160.674 22.6978 161.268 22.3862C161.899 22.0694 162.595 21.9045 163.3 21.9045C164.004 21.9045 164.7 22.0694 165.331 22.3862C165.932 22.6936 166.44 23.1594 166.801 23.7345C167.182 24.3531 167.421 25.0502 167.5 25.7746H159.118Z" fill="#454545"/>
</g>
<defs>
<clipPath id="clip0_2390_37740">
<rect width="173" height="48" fill="white" transform="translate(0.664062)"/>
</clipPath>
</defs>
</svg>
