<svg width="24" height="24" viewBox="0 0 24 24" fill="none" xmlns="http://www.w3.org/2000/svg">
<path d="M9.50065 24L9.03398 20.1333C8.61176 20.0222 8.15087 19.828 7.65132 19.5507C7.15087 19.2724 6.73398 18.9778 6.40065 18.6667L2.83398 20.1667L0.333984 15.8333L3.43398 13.5C3.38954 13.2778 3.35087 13.0387 3.31798 12.7827C3.28421 12.5276 3.26732 12.2778 3.26732 12.0333C3.26732 11.8111 3.28421 11.572 3.31798 11.316C3.35087 11.0609 3.38954 10.7889 3.43398 10.5L0.333984 8.16667L2.83398 3.9L6.36732 5.36667C6.76732 5.03333 7.19532 4.73333 7.65132 4.46667C8.10643 4.2 8.55621 4 9.00065 3.86667L9.50065 0H14.5007L14.9673 3.86667C15.4784 4.06667 15.9287 4.27778 16.318 4.5C16.7064 4.72222 17.1118 5.01111 17.534 5.36667L21.1673 3.9L23.6673 8.16667L20.4673 10.5667C20.5562 10.8333 20.6007 11.0836 20.6007 11.3173V12C20.6007 12.2 20.5953 12.4169 20.5847 12.6507C20.5731 12.8836 20.534 13.1667 20.4673 13.5L23.6007 15.8333L21.1007 20.1667L17.534 18.6333C17.1118 18.9889 16.6953 19.2889 16.2847 19.5333C15.8731 19.7778 15.434 19.9778 14.9673 20.1333L14.5007 24H9.50065ZM11.9673 15.3333C12.9007 15.3333 13.6895 15.0111 14.334 14.3667C14.9784 13.7222 15.3007 12.9333 15.3007 12C15.3007 11.0667 14.9784 10.2778 14.334 9.63333C13.6895 8.98889 12.9007 8.66667 11.9673 8.66667C11.034 8.66667 10.2451 8.98889 9.60065 9.63333C8.95621 10.2778 8.63399 11.0667 8.63399 12C8.63399 12.9333 8.95621 13.7222 9.60065 14.3667C10.2451 15.0111 11.034 15.3333 11.9673 15.3333ZM11.9673 14C11.4118 14 10.9398 13.8053 10.5513 13.416C10.162 13.0276 9.96732 12.5556 9.96732 12C9.96732 11.4444 10.162 10.9724 10.5513 10.584C10.9398 10.1947 11.4118 10 11.9673 10C12.5229 10 12.9953 10.1947 13.3847 10.584C13.7731 10.9724 13.9673 11.4444 13.9673 12C13.9673 12.5556 13.7731 13.0276 13.3847 13.416C12.9953 13.8053 12.5229 14 11.9673 14ZM10.6673 22.6667H13.2673L13.7673 19.0667C14.434 18.8889 15.0398 18.6444 15.5847 18.3333C16.1287 18.0222 16.6784 17.5889 17.234 17.0333L20.534 18.4667L21.8673 16.2L18.9673 14C19.0784 13.6222 19.1509 13.272 19.1847 12.9493C19.2175 12.6276 19.234 12.3111 19.234 12C19.234 11.6667 19.2175 11.3498 19.1847 11.0493C19.1509 10.7498 19.0784 10.4111 18.9673 10.0333L21.934 7.8L20.6007 5.53333L17.2007 6.96667C16.8007 6.52222 16.2731 6.10533 15.618 5.716C14.962 5.32756 14.334 5.06667 13.734 4.93333L13.334 1.33333H10.6673L10.2673 4.93333C9.60065 5.06667 8.98376 5.29422 8.41665 5.616C7.85043 5.93867 7.28954 6.37778 6.73398 6.93333L3.40065 5.53333L2.06732 7.8L4.96732 9.96667C4.85621 10.2556 4.77843 10.5778 4.73398 10.9333C4.68954 11.2889 4.66732 11.6556 4.66732 12.0333C4.66732 12.3667 4.68954 12.7 4.73398 13.0333C4.77843 13.3667 4.8451 13.6889 4.93398 14L2.06732 16.2L3.40065 18.4667L6.70065 17.0667C7.23398 17.6 7.77843 18.0222 8.33398 18.3333C8.88954 18.6444 9.52287 18.8889 10.234 19.0667L10.6673 22.6667Z" fill="#6A6A6A"/>
</svg>
