<svg width="280" height="64" viewBox="0 0 280 64" fill="none" xmlns="http://www.w3.org/2000/svg">
<mask id="mask0_2390_37734" style="mask-type:alpha" maskUnits="userSpaceOnUse" x="40" y="16" width="32" height="32">
<rect x="40" y="16" width="32" height="32" fill="#D9D9D9"/>
</mask>
<g mask="url(#mask0_2390_37734)">
<path d="M53.4987 44L53.032 40.1333C52.6098 40.0222 52.1489 39.828 51.6494 39.5507C51.1489 39.2724 50.732 38.9778 50.3987 38.6667L46.832 40.1667L44.332 35.8333L47.432 33.5C47.3876 33.2778 47.3489 33.0387 47.316 32.7827C47.2823 32.5276 47.2654 32.2778 47.2654 32.0333C47.2654 31.8111 47.2823 31.572 47.316 31.316C47.3489 31.0609 47.3876 30.7889 47.432 30.5L44.332 28.1667L46.832 23.9L50.3654 25.3667C50.7654 25.0333 51.1934 24.7333 51.6494 24.4667C52.1045 24.2 52.5543 24 52.9987 23.8667L53.4987 20H58.4987L58.9654 23.8667C59.4765 24.0667 59.9267 24.2778 60.316 24.5C60.7045 24.7222 61.1098 25.0111 61.532 25.3667L65.1654 23.9L67.6654 28.1667L64.4654 30.5667C64.5543 30.8333 64.5987 31.0836 64.5987 31.3173V32C64.5987 32.2 64.5934 32.4169 64.5827 32.6507C64.5711 32.8836 64.532 33.1667 64.4654 33.5L67.5987 35.8333L65.0987 40.1667L61.532 38.6333C61.1098 38.9889 60.6934 39.2889 60.2827 39.5333C59.8711 39.7778 59.432 39.9778 58.9654 40.1333L58.4987 44H53.4987ZM55.9654 35.3333C56.8987 35.3333 57.6876 35.0111 58.332 34.3667C58.9765 33.7222 59.2987 32.9333 59.2987 32C59.2987 31.0667 58.9765 30.2778 58.332 29.6333C57.6876 28.9889 56.8987 28.6667 55.9654 28.6667C55.032 28.6667 54.2431 28.9889 53.5987 29.6333C52.9543 30.2778 52.632 31.0667 52.632 32C52.632 32.9333 52.9543 33.7222 53.5987 34.3667C54.2431 35.0111 55.032 35.3333 55.9654 35.3333ZM55.9654 34C55.4098 34 54.9378 33.8053 54.5494 33.416C54.16 33.0276 53.9654 32.5556 53.9654 32C53.9654 31.4444 54.16 30.9724 54.5494 30.584C54.9378 30.1947 55.4098 30 55.9654 30C56.5209 30 56.9934 30.1947 57.3827 30.584C57.7711 30.9724 57.9654 31.4444 57.9654 32C57.9654 32.5556 57.7711 33.0276 57.3827 33.416C56.9934 33.8053 56.5209 34 55.9654 34ZM54.6654 42.6667H57.2654L57.7654 39.0667C58.432 38.8889 59.0378 38.6444 59.5827 38.3333C60.1267 38.0222 60.6765 37.5889 61.232 37.0333L64.532 38.4667L65.8654 36.2L62.9654 34C63.0765 33.6222 63.1489 33.272 63.1827 32.9493C63.2156 32.6276 63.232 32.3111 63.232 32C63.232 31.6667 63.2156 31.3498 63.1827 31.0493C63.1489 30.7498 63.0765 30.4111 62.9654 30.0333L65.932 27.8L64.5987 25.5333L61.1987 26.9667C60.7987 26.5222 60.2711 26.1053 59.616 25.716C58.96 25.3276 58.332 25.0667 57.732 24.9333L57.332 21.3333H54.6654L54.2654 24.9333C53.5987 25.0667 52.9818 25.2942 52.4147 25.616C51.8485 25.9387 51.2876 26.3778 50.732 26.9333L47.3987 25.5333L46.0654 27.8L48.9654 29.9667C48.8543 30.2556 48.7765 30.5778 48.732 30.9333C48.6876 31.2889 48.6654 31.6556 48.6654 32.0333C48.6654 32.3667 48.6876 32.7 48.732 33.0333C48.7765 33.3667 48.8431 33.6889 48.932 34L46.0654 36.2L47.3987 38.4667L50.6987 37.0667C51.232 37.6 51.7765 38.0222 52.332 38.3333C52.8876 38.6444 53.5209 38.8889 54.232 39.0667L54.6654 42.6667Z" fill="#6A6A6A"/>
</g>
<path d="M93.18 39.2C91.58 39.2 90.2867 39 89.3 38.6V37.14C89.86 37.3533 90.4533 37.52 91.08 37.64C91.72 37.7467 92.3733 37.8 93.04 37.8C94.1867 37.8 95.0467 37.6467 95.62 37.34C96.1933 37.02 96.48 36.4533 96.48 35.64C96.48 35.1333 96.36 34.7333 96.12 34.44C95.8933 34.1333 95.5133 33.88 94.98 33.68C94.4467 33.4667 93.7333 33.2533 92.84 33.04C91.4267 32.6933 90.4333 32.2467 89.86 31.7C89.2867 31.14 89 30.3933 89 29.46C89 28.3667 89.3933 27.5067 90.18 26.88C90.9667 26.24 92.1667 25.92 93.78 25.92C94.5267 25.92 95.22 25.9733 95.86 26.08C96.5 26.1867 96.9933 26.3 97.34 26.42V27.86C96.86 27.6867 96.34 27.5533 95.78 27.46C95.22 27.3667 94.64 27.32 94.04 27.32C92.9467 27.32 92.1067 27.48 91.52 27.8C90.9333 28.12 90.64 28.6733 90.64 29.46C90.64 29.9 90.74 30.26 90.94 30.54C91.1533 30.8067 91.5067 31.04 92 31.24C92.4933 31.4267 93.18 31.6267 94.06 31.84C95.1133 32.0933 95.9333 32.4 96.52 32.76C97.1067 33.1067 97.52 33.52 97.76 34C98 34.48 98.12 35.0267 98.12 35.64C98.12 36.7733 97.7067 37.6533 96.88 38.28C96.0533 38.8933 94.82 39.2 93.18 39.2ZM105.173 39.2C103.48 39.2 102.213 38.7933 101.373 37.98C100.533 37.1667 100.113 35.9133 100.113 34.22C100.113 32.7 100.473 31.5067 101.193 30.64C101.927 29.76 103.08 29.32 104.653 29.32C105.587 29.32 106.353 29.4933 106.953 29.84C107.567 30.1733 108.02 30.64 108.313 31.24C108.62 31.8267 108.773 32.4933 108.773 33.24V35.02H101.753C101.807 35.74 101.96 36.3067 102.213 36.72C102.48 37.1333 102.873 37.4333 103.393 37.62C103.927 37.7933 104.627 37.88 105.493 37.88C106.467 37.88 107.36 37.7133 108.173 37.38V38.66C107.76 38.8333 107.293 38.9667 106.773 39.06C106.267 39.1533 105.733 39.2 105.173 39.2ZM101.753 33.84H107.313V33.06C107.313 32.2867 107.107 31.6933 106.693 31.28C106.293 30.8533 105.627 30.64 104.693 30.64C103.56 30.64 102.787 30.9067 102.373 31.44C101.96 31.9733 101.753 32.7733 101.753 33.84ZM114.637 39.2C113.704 39.2 112.997 38.9533 112.517 38.46C112.051 37.9533 111.817 37.2533 111.817 36.36V30.82H110.377V29.52H111.817V27.18L113.457 26.68V29.52H116.077L115.977 30.82H113.457V36.28C113.457 36.8533 113.584 37.2667 113.837 37.52C114.104 37.76 114.557 37.88 115.197 37.88C115.544 37.88 115.924 37.8133 116.337 37.68V38.92C115.844 39.1067 115.277 39.2 114.637 39.2ZM121.688 39.2C120.755 39.2 120.048 38.9533 119.568 38.46C119.101 37.9533 118.868 37.2533 118.868 36.36V30.82H117.428V29.52H118.868V27.18L120.508 26.68V29.52H123.128L123.028 30.82H120.508V36.28C120.508 36.8533 120.635 37.2667 120.888 37.52C121.155 37.76 121.608 37.88 122.248 37.88C122.595 37.88 122.975 37.8133 123.388 37.68V38.92C122.895 39.1067 122.328 39.2 121.688 39.2ZM125.788 27.3V25.8H127.608V27.3H125.788ZM125.948 39V30.82H124.488L124.648 29.52H127.588V39H125.948ZM130.416 39V29.52H131.896L131.996 30.6C132.449 30.2267 132.976 29.92 133.576 29.68C134.189 29.44 134.889 29.32 135.676 29.32C136.876 29.32 137.749 29.6 138.296 30.16C138.842 30.72 139.116 31.6 139.116 32.8V39H137.476V32.86C137.476 32.0333 137.309 31.46 136.976 31.14C136.642 30.8067 136.002 30.64 135.056 30.64C134.469 30.64 133.916 30.7467 133.396 30.96C132.876 31.1733 132.429 31.4667 132.056 31.84V39H130.416ZM145.502 42.52C144.795 42.52 144.102 42.48 143.422 42.4C142.755 42.32 142.182 42.1933 141.702 42.02V40.66C142.235 40.8333 142.835 40.9667 143.502 41.06C144.169 41.1533 144.809 41.2 145.422 41.2C146.422 41.2 147.155 41.14 147.622 41.02C148.089 40.9 148.322 40.5933 148.322 40.1C148.322 39.7533 148.195 39.5067 147.942 39.36C147.702 39.2133 147.269 39.14 146.642 39.14H144.122C142.375 39.14 141.502 38.5533 141.502 37.38C141.502 36.9933 141.622 36.6267 141.862 36.28C142.115 35.92 142.489 35.6667 142.982 35.52C142.449 35.2533 142.055 34.8867 141.802 34.42C141.549 33.94 141.422 33.3733 141.422 32.72C141.422 31.5333 141.762 30.6733 142.442 30.14C143.135 29.5933 144.189 29.32 145.602 29.32C145.895 29.32 146.195 29.3467 146.502 29.4C146.822 29.44 147.069 29.48 147.242 29.52H150.662L150.602 30.64H148.882C149.189 30.8933 149.409 31.2 149.542 31.56C149.675 31.9067 149.742 32.2933 149.742 32.72C149.742 33.7733 149.435 34.5933 148.822 35.18C148.209 35.7533 147.269 36.04 146.002 36.04C145.789 36.04 145.595 36.0333 145.422 36.02C145.262 35.9933 145.069 35.9667 144.842 35.94C144.429 35.9533 144.042 36.0733 143.682 36.3C143.322 36.5133 143.142 36.7933 143.142 37.14C143.142 37.3667 143.229 37.5333 143.402 37.64C143.589 37.7467 143.922 37.8 144.402 37.8H147.022C147.969 37.8 148.695 37.9933 149.202 38.38C149.709 38.7533 149.962 39.3067 149.962 40.04C149.962 40.9733 149.575 41.62 148.802 41.98C148.029 42.34 146.929 42.52 145.502 42.52ZM145.602 34.8C146.549 34.8 147.202 34.6467 147.562 34.34C147.922 34.0333 148.102 33.4933 148.102 32.72C148.102 31.9467 147.909 31.3867 147.522 31.04C147.149 30.6933 146.509 30.52 145.602 30.52C144.709 30.52 144.062 30.6867 143.662 31.02C143.262 31.3533 143.062 31.92 143.062 32.72C143.062 33.4533 143.249 33.9867 143.622 34.32C144.009 34.64 144.669 34.8 145.602 34.8ZM155.232 39.2C154.618 39.2 154.032 39.16 153.472 39.08C152.925 39 152.465 38.8933 152.092 38.76V37.32C152.545 37.48 153.018 37.6 153.512 37.68C154.018 37.76 154.518 37.8 155.012 37.8C155.852 37.8 156.452 37.7133 156.812 37.54C157.172 37.3533 157.352 37.0133 157.352 36.52C157.352 36.16 157.252 35.8867 157.052 35.7C156.865 35.5133 156.572 35.3467 156.172 35.2C155.785 35.0533 155.285 34.88 154.672 34.68C154.125 34.4933 153.638 34.3 153.212 34.1C152.785 33.9 152.452 33.6333 152.212 33.3C151.972 32.9533 151.852 32.4933 151.852 31.92C151.852 31.08 152.145 30.44 152.732 30C153.318 29.5467 154.265 29.32 155.572 29.32C156.078 29.32 156.565 29.36 157.032 29.44C157.498 29.5067 157.905 29.5933 158.252 29.7V31.14C157.412 30.86 156.605 30.72 155.832 30.72C155.005 30.72 154.405 30.8067 154.032 30.98C153.672 31.14 153.492 31.4467 153.492 31.9C153.492 32.2067 153.572 32.4533 153.732 32.64C153.905 32.8133 154.165 32.9667 154.512 33.1C154.872 33.22 155.332 33.3733 155.892 33.56C156.625 33.7867 157.218 34.02 157.672 34.26C158.125 34.5 158.458 34.7933 158.672 35.14C158.885 35.4867 158.992 35.94 158.992 36.5C158.992 37.4333 158.665 38.12 158.012 38.56C157.358 38.9867 156.432 39.2 155.232 39.2Z" fill="#6A6A6A"/>
</svg>
