<svg width="323" height="240" viewBox="0 0 323 240" fill="none" xmlns="http://www.w3.org/2000/svg">
<path d="M323 210.908H0.904297V211.069H323V210.908Z" fill="#EBEBEB"/>
<path d="M290.726 221.273H281.128V221.434H290.726V221.273Z" fill="#EBEBEB"/>
<path d="M214.273 223.025H208.675V223.186H214.273V223.025Z" fill="#EBEBEB"/>
<path d="M278.409 215.295H256.384V215.456H278.409V215.295Z" fill="#EBEBEB"/>
<path d="M71.527 218.619H43.7044V218.78H71.527V218.619Z" fill="#EBEBEB"/>
<path d="M87.2968 218.619H77.2603V218.78H87.2968V218.619Z" fill="#EBEBEB"/>
<path d="M165.019 216.455H104.671V216.616H165.019V216.455Z" fill="#EBEBEB"/>
<path d="M153.578 182.177H29.1908C28.2163 182.176 27.2824 181.787 26.5939 181.098C25.9055 180.408 25.5189 179.473 25.5189 178.499V3.64612C25.5273 2.67728 25.9177 1.7509 26.6053 1.06821C27.2928 0.385522 28.2219 0.00165969 29.1908 0H153.578C154.553 0 155.489 0.387538 156.179 1.07736C156.868 1.76718 157.256 2.70278 157.256 3.67833V178.499C157.256 179.475 156.868 180.41 156.179 181.1C155.489 181.79 154.553 182.177 153.578 182.177V182.177ZM29.1908 0.128839C28.259 0.130545 27.366 0.501867 26.7078 1.1613C26.0496 1.82074 25.6799 2.7144 25.6799 3.64612V178.499C25.6799 179.431 26.0496 180.324 26.7078 180.984C27.366 181.643 28.259 182.015 29.1908 182.016H153.578C154.51 182.015 155.404 181.644 156.063 180.984C156.722 180.325 157.093 179.431 157.095 178.499V3.64612C157.093 2.71381 156.722 1.82016 156.063 1.16091C155.404 0.501658 154.51 0.130542 153.578 0.128839H29.1908Z" fill="#EBEBEB"/>
<path d="M292.923 182.177H168.529C167.554 182.176 166.62 181.788 165.93 181.098C165.241 180.409 164.853 179.474 164.851 178.499V3.64612C164.861 2.67669 165.253 1.75032 165.942 1.06781C166.63 0.385297 167.56 0.00164159 168.529 0H292.923C293.891 0.00335269 294.818 0.387964 295.504 1.07047C296.19 1.75298 296.58 2.67839 296.588 3.64612V178.499C296.588 179.472 296.202 180.406 295.515 181.095C294.828 181.785 293.896 182.174 292.923 182.177V182.177ZM168.529 0.128839C167.597 0.130542 166.703 0.501658 166.044 1.16091C165.385 1.82016 165.014 2.71381 165.012 3.64612V178.499C165.014 179.431 165.385 180.325 166.044 180.984C166.703 181.644 167.597 182.015 168.529 182.016H292.923C293.855 182.015 294.749 181.644 295.408 180.984C296.067 180.325 296.438 179.431 296.44 178.499V3.64612C296.438 2.71381 296.067 1.82016 295.408 1.16091C294.749 0.501658 293.855 0.130542 292.923 0.128839H168.529Z" fill="#EBEBEB"/>
<path d="M139.07 210.908H151.065V128.535H139.07V210.908Z" fill="#E6E6E6"/>
<path d="M143.29 210.908H139.064V195.254H147.716L143.29 210.908Z" fill="#F0F0F0"/>
<path d="M265.925 210.908H277.92V128.535H265.925V210.908Z" fill="#E6E6E6"/>
<path d="M139.07 206.631L269.609 206.631V128.529H139.07V206.631Z" fill="#F0F0F0"/>
<path d="M265.384 210.908H269.609V195.254H260.958L265.384 210.908Z" fill="#F0F0F0"/>
<path d="M226.571 135.003V199.609H265.268V135.003H226.571Z" fill="#E6E6E6"/>
<path d="M242.09 137.271H249.749C252.986 137.312 256.122 136.142 258.542 133.992H233.303C235.72 136.142 238.854 137.312 242.09 137.271Z" fill="#F0F0F0"/>
<path d="M184.988 135.003V199.609H223.685V135.003H184.988Z" fill="#E6E6E6"/>
<path d="M200.121 137.271H207.774C211.011 137.312 214.147 136.142 216.567 133.992H191.327C193.748 136.142 196.883 137.312 200.121 137.271V137.271Z" fill="#F0F0F0"/>
<path d="M143.412 135.003V199.609H182.109V135.003H143.412Z" fill="#E6E6E6"/>
<path d="M158.538 137.271H166.191C169.428 137.313 172.565 136.143 174.984 133.992H149.745C152.165 136.142 155.301 137.312 158.538 137.271V137.271Z" fill="#F0F0F0"/>
<path d="M45.9848 210.908H127.836L127.836 26.9142H45.9848L45.9848 210.908Z" fill="#F0F0F0"/>
<path d="M45.9848 210.908H126.109L126.109 26.9142H45.9848L45.9848 210.908Z" fill="#F5F5F5"/>
<path d="M121.226 206.734L121.226 31.0886L50.8678 31.0886L50.8678 206.734H121.226Z" fill="#F0F0F0"/>
<path d="M114.314 63.7751C114.314 58.6872 112.293 53.8076 108.695 50.2099C105.098 46.6122 100.218 44.5911 95.1302 44.5911H76.964C71.8761 44.5911 66.9965 46.6122 63.3988 50.2099C59.8011 53.8076 57.78 58.6872 57.78 63.7751H114.314Z" fill="#FAFAFA"/>
<path d="M114.314 195.815V153.852H57.7864V195.815H114.314Z" fill="#F5F5F5"/>
<path d="M114.314 75.583H89.3776V148.435H114.314V75.583Z" fill="#F5F5F5"/>
<path d="M82.7166 75.583H57.78V148.435H82.7166V75.583Z" fill="#F5F5F5"/>
<path d="M66.8244 111.684H56.614C56.4048 111.685 56.1973 111.646 56.0036 111.567C55.8098 111.488 55.6336 111.371 55.4851 111.224C55.3365 111.077 55.2186 110.901 55.1382 110.708C55.0578 110.515 55.0164 110.308 55.0164 110.099C55.0164 109.679 55.1833 109.276 55.4805 108.978C55.7777 108.681 56.1808 108.514 56.6011 108.514H66.8115C67.2313 108.516 67.6334 108.683 67.9302 108.98C68.227 109.277 68.3945 109.679 68.3962 110.099C68.3962 110.517 68.231 110.918 67.9366 111.215C67.6422 111.512 67.2424 111.68 66.8244 111.684V111.684Z" fill="#E0E0E0"/>
<path d="M52.1304 206.734L52.1304 31.0886H50.8613L50.8613 206.734H52.1304Z" fill="#F0F0F0"/>
<path d="M179.609 108.34L266.408 108.34V26.9143L179.609 26.9143V108.34Z" fill="#E6E6E6"/>
<path d="M177.426 108.34L264.224 108.34V26.9143L177.426 26.9143V108.34Z" fill="#F5F5F5"/>
<path d="M172.349 113.056L266.408 113.056V108.34L172.349 108.34V113.056Z" fill="#E6E6E6"/>
<path d="M169.889 113.056L259.103 113.056V108.34L169.889 108.34V113.056Z" fill="#F5F5F5"/>
<path d="M260.294 104.101V31.1467L181.349 31.1467V104.101H260.294Z" fill="white"/>
<path d="M223.009 104.101V31.1467H218.635V104.101H223.009Z" fill="#F5F5F5"/>
<path d="M183.004 104.108V31.1531H181.349V104.108H183.004Z" fill="#E6E6E6"/>
<path d="M224.664 104.101V31.1467H223.009V104.101H224.664Z" fill="#E6E6E6"/>
<path d="M191.276 110.498C189.678 93.9552 188.57 67.1182 189.433 58.1382C189.448 57.9851 189.496 57.8371 189.572 57.7038C189.649 57.5705 189.753 57.455 189.878 57.3652C190.045 57.2439 190.242 57.1717 190.448 57.1567C190.654 57.1417 190.86 57.1845 191.043 57.2803C191.226 57.3761 191.378 57.521 191.483 57.6987C191.588 57.8765 191.641 58.08 191.637 58.2863C191.482 62.7377 191.308 73.8565 192.281 93.034C192.751 102.581 193.434 109.139 192.964 110.498H191.276Z" fill="#E6E6E6"/>
<path d="M185.323 72.375C180.814 67.3245 171.499 63.7364 162.036 63.7557C158.325 63.7557 173.335 69.6243 179.577 76.0984C184.428 81.1231 189.884 89.5813 191.759 94.2775C190.554 84.3892 189.871 77.419 185.323 72.375Z" fill="#E6E6E6"/>
<path d="M194.336 73.9145C198.111 68.6579 206.827 64.6123 216.238 64.155C219.942 63.9746 205.86 70.5969 200.604 77.3351C196.52 82.5853 192.332 91.2883 191.186 96.0553C190.941 86.1541 190.561 79.1711 194.336 73.9145Z" fill="#E6E6E6"/>
<path d="M185.143 53.9445C181.278 49.6671 173.432 46.6265 165.424 46.6458C162.274 46.6458 174.991 51.619 180.279 57.0946C184.383 61.3527 189.015 68.5161 190.586 72.4908C189.549 64.1292 188.97 58.2155 185.143 53.9445Z" fill="#E6E6E6"/>
<path d="M192.751 60.2642C195.972 55.8128 203.329 52.3857 211.31 51.9992C214.441 51.8511 202.517 57.4362 198.072 63.1631C194.613 67.608 191.07 74.9775 190.09 79.0166C189.859 70.6292 189.556 64.7156 192.751 60.2642Z" fill="#E6E6E6"/>
<path d="M191.92 128.536C189.526 128.526 187.227 127.605 185.489 125.96C183.751 124.314 182.706 122.067 182.566 119.678L181.742 105.3H202.163L201.332 119.678C201.193 122.078 200.14 124.334 198.39 125.981C196.639 127.629 194.324 128.543 191.92 128.536V128.536Z" fill="#E6E6E6"/>
<path d="M203.451 108.566H180.382L179.725 102.581H204.108L203.451 108.566Z" fill="#E6E6E6"/>
<path d="M161.952 240C230.934 240 286.854 236.735 286.854 232.708C286.854 228.68 230.934 225.416 161.952 225.416C92.9706 225.416 37.0499 228.68 37.0499 232.708C37.0499 236.735 92.9706 240 161.952 240Z" fill="#F5F5F5"/>
<path d="M164.471 225.738L159.092 226.343L157.108 214.142L162.487 213.537L164.471 225.738Z" fill="#FFC3BD"/>
<path d="M188.551 226.91H183.178L181.845 214.471H187.217L188.551 226.91Z" fill="#FFC3BD"/>
<path d="M182.74 226.285H189.285C189.392 226.286 189.495 226.322 189.578 226.389C189.661 226.455 189.719 226.548 189.743 226.652L190.806 231.426C190.831 231.542 190.83 231.663 190.802 231.778C190.774 231.894 190.72 232.002 190.644 232.093C190.568 232.185 190.473 232.259 190.365 232.308C190.257 232.358 190.139 232.382 190.02 232.379C187.913 232.347 186.374 232.225 183.719 232.225C182.09 232.225 177.168 232.392 174.913 232.392C172.659 232.392 172.337 230.163 173.29 229.964C177.426 229.055 180.544 227.805 181.871 226.614C182.11 226.4 182.42 226.283 182.74 226.285Z" fill="#263238"/>
<path d="M159.008 225.422L164.806 224.778C164.912 224.765 165.02 224.789 165.11 224.847C165.201 224.904 165.269 224.992 165.302 225.093L166.893 229.712C166.933 229.823 166.947 229.941 166.934 230.057C166.922 230.174 166.883 230.287 166.821 230.386C166.76 230.486 166.676 230.571 166.577 230.633C166.478 230.696 166.366 230.736 166.249 230.749C164.142 230.956 161.095 231.175 158.448 231.477C155.356 231.825 154.84 232.656 151.201 232.566C148.991 232.514 148.431 230.273 149.358 230.092C153.584 229.274 154.396 228.636 157.733 226.002C158.093 225.689 158.536 225.488 159.008 225.422Z" fill="#263238"/>
<path d="M163.75 69.0897C161.946 70.5778 160.168 71.8726 158.332 73.1996C156.496 74.5267 154.621 75.7764 152.689 76.9553C150.756 78.1341 148.779 79.2872 146.698 80.3244C144.575 81.4308 142.364 82.3594 140.088 83.1009C139.489 83.2877 138.903 83.4487 138.227 83.6098C137.565 83.7548 136.897 83.8623 136.223 83.9319C135.012 84.0671 133.878 84.1187 132.745 84.1767C130.483 84.2797 128.235 84.2733 126.045 84.2604C121.613 84.2089 117.22 83.9963 112.8 83.6162L112.736 79.5836C117.071 79.0296 121.426 78.5464 125.736 78.0633C127.887 77.8249 130.039 77.5672 132.133 77.2902C133.183 77.1485 134.22 76.981 135.173 76.8007C135.586 76.727 135.994 76.6324 136.397 76.5172C136.771 76.3884 137.235 76.2402 137.686 76.0663C139.527 75.3166 141.316 74.4428 143.039 73.4509C144.823 72.4266 146.601 71.325 148.353 70.1591C150.106 68.9931 151.851 67.782 153.584 66.5516C155.317 65.3212 157.037 64.0135 158.66 62.7766L163.75 69.0897Z" fill="#FFC3BD"/>
<path d="M169 64.503C168.227 69.5792 157.54 77.3417 157.54 77.3417L149.867 67.827C153.226 64.2397 156.79 60.8499 160.541 57.6745C163.988 54.853 169.837 58.9758 169 64.503Z" fill="#407BFF"/>
<path d="M114.218 79.9956L111.171 77.8247L110.836 84.6854C110.836 84.6854 112.523 84.6853 113.174 83.4485L114.218 79.9956Z" fill="#FFC3BD"/>
<path d="M108.413 75.8279L107.789 82.5468L110.836 84.6855L111.171 77.8249L108.413 75.8279Z" fill="#FFC3BD"/>
<path opacity="0.2" d="M157.114 214.149L158.132 220.436L163.511 219.83L162.493 213.543L157.114 214.149Z" fill="black"/>
<path opacity="0.2" d="M187.217 214.471H181.845L182.534 220.887H187.907L187.217 214.471Z" fill="black"/>
<path d="M187.295 57.8354C187.695 57.9245 188.073 58.093 188.407 58.3308C188.74 58.5685 189.023 58.8708 189.238 59.2197C189.453 59.5687 189.596 59.9571 189.658 60.3622C189.721 60.7673 189.701 61.1807 189.601 61.5781C188.436 66.4157 187.558 71.318 186.973 76.2593C186.464 80.4208 186.161 84.3954 185.974 87.9964C185.523 96.4354 185.71 102.871 185.459 105.055L156.799 103.071C153.887 80.2661 157.295 65.7074 159.214 59.8002C159.51 58.8802 160.06 58.0627 160.801 57.4425C161.542 56.8223 162.444 56.4247 163.402 56.2958C164.503 56.1541 165.817 56.0123 167.209 55.9286C167.692 55.9286 168.188 55.8835 168.684 55.8706C172.761 55.9098 176.833 56.1829 180.879 56.6887C181.645 56.7789 182.418 56.8949 183.172 57.0108C184.673 57.2749 186.109 57.5713 187.295 57.8354Z" fill="#263238"/>
<path d="M180.634 42.9097C179.59 46.7748 178.321 53.8996 180.879 56.7083C174.237 61.1789 169.998 67.4662 168.774 66.1006C168.13 65.3855 167.859 57.0819 168.697 55.8579C173.142 55.1171 173.258 51.8704 172.71 48.7718L180.634 42.9097Z" fill="#FFC3BD"/>
<path d="M180.363 55.1042C180.363 55.1042 169.534 59.897 168.124 70.6035C171.1 67.1506 177.69 63.395 177.69 63.395L174.784 62.564C176.631 61.8621 178.543 61.3463 180.492 61.0244C180.17 59.5427 181.89 56.5923 181.89 56.5923L180.363 55.1042Z" fill="#407BFF"/>
<path d="M170.597 54.9302C170.597 54.9302 172.034 61.05 168.104 70.6034C167.492 66.9572 164.922 60.8567 164.922 60.8567L167.576 61.5718C167.576 61.5718 167.441 60.3414 165.296 58.6987C166.094 57.1655 168.594 55.3553 168.594 55.3553L170.597 54.9302Z" fill="#407BFF"/>
<path opacity="0.2" d="M177.413 45.2996L172.723 48.7653C172.864 49.4871 172.939 50.2202 172.949 50.9556C174.636 50.8332 177.058 49.1583 177.355 47.419C177.503 46.7219 177.523 46.0037 177.413 45.2996Z" fill="black"/>
<path d="M166.874 31.7135C164.252 31.823 162.809 36.3388 165.463 40.088C168.117 43.8372 170.398 31.5653 166.874 31.7135Z" fill="#263238"/>
<path d="M179.79 35.6882C180.099 41.0092 180.55 44.1077 178.212 47.1354C174.688 51.6963 167.872 50.0665 165.972 44.9452C164.271 40.3328 164.039 32.4028 168.967 29.6843C170.049 29.0777 171.268 28.7578 172.508 28.7549C173.748 28.752 174.969 29.0664 176.053 29.668C177.138 30.2696 178.05 31.1385 178.704 32.1922C179.358 33.2459 179.732 34.4493 179.79 35.6882Z" fill="#FFC3BD"/>
<path d="M180.569 39.7724C176.537 37.1956 175.113 33.8007 174.804 32.0936C173.238 32.4608 165.47 36.036 163.08 32.0936C160.69 28.1511 163.724 25.8321 168.169 28.2607C166.191 24.7691 167.988 23.062 174.205 22.9074C180.421 22.7528 179.584 26.3603 179.584 26.3603C179.584 26.3603 184.286 24.3118 185.955 27.9192C187.881 32.0678 184.325 39.1475 180.569 39.7724Z" fill="#263238"/>
<path d="M178.521 25.407C178.579 25.407 180.872 25.961 183.52 23.3005C183.049 25.5681 178.94 27.0819 178.94 27.0819L178.521 25.407Z" fill="#263238"/>
<path d="M181.607 33.1953C179.133 32.3385 176.131 36.0104 177.239 40.4424C178.347 44.8745 184.95 34.3484 181.607 33.1953Z" fill="#263238"/>
<path d="M183.011 40.1139C182.9 40.7683 182.66 41.3942 182.307 41.9558C181.953 42.5174 181.492 43.0036 180.949 43.3864C179.494 44.4042 178.179 43.2446 178.096 41.5633C178.018 40.0495 178.688 37.6982 180.382 37.3503C182.077 37.0024 183.275 38.4905 183.011 40.1139Z" fill="#FFC3BD"/>
<path d="M164.883 163.567C166.172 147.861 175.641 104.372 175.641 104.372L156.799 103.071C156.799 103.071 149.532 146.231 148.978 162.62C148.398 179.658 155.253 217.518 155.253 217.518L164.271 216.487C164.271 216.487 163.582 179.343 164.883 163.567Z" fill="#407BFF"/>
<path opacity="0.5" d="M164.883 163.567C166.172 147.861 175.641 104.372 175.641 104.372L156.799 103.071C156.799 103.071 149.532 146.231 148.978 162.62C148.398 179.658 155.253 217.518 155.253 217.518L164.271 216.487C164.271 216.487 163.582 179.343 164.883 163.567Z" fill="white"/>
<path opacity="0.2" d="M168.542 119.098C164.742 123.955 164.677 141.001 166.146 153.614C167.544 144.518 169.747 133 171.686 123.337L168.542 119.098Z" fill="black"/>
<path d="M166.964 103.766C166.964 103.766 169 149.749 171.267 165.319C173.747 182.371 180.054 219.669 180.054 219.669H189.891C189.891 219.669 188.274 184.567 186.973 167.812C185.497 148.731 185.459 105.081 185.459 105.081L166.964 103.766Z" fill="#407BFF"/>
<path opacity="0.5" d="M166.964 103.766C166.964 103.766 169 149.749 171.267 165.319C173.747 182.371 180.054 219.669 180.054 219.669H189.891C189.891 219.669 188.274 184.567 186.973 167.812C185.497 148.731 185.459 105.081 185.459 105.081L166.964 103.766Z" fill="white"/>
<path d="M178.875 219.856H190.458V216.397L177.509 216.171L178.875 219.856Z" fill="#407BFF"/>
<path d="M154.853 218.523L165.624 217.299L165.231 213.82L153.172 214.999L154.853 218.523Z" fill="#407BFF"/>
<path d="M171.956 38.1233C172.008 38.5549 171.821 38.935 171.538 38.9672C171.254 38.9994 170.99 38.6773 170.932 38.2457C170.874 37.8141 171.068 37.4404 171.351 37.4082C171.634 37.376 171.905 37.6981 171.956 38.1233Z" fill="#263238"/>
<path d="M167.106 38.7095C167.157 39.1411 166.97 39.5147 166.687 39.5534C166.404 39.592 166.139 39.2635 166.088 38.8319C166.036 38.4003 166.223 38.0267 166.5 37.9944C166.777 37.9622 167.041 38.2779 167.106 38.7095Z" fill="#263238"/>
<path d="M168.665 38.7417C168.308 40.1172 167.764 41.4372 167.048 42.6648C167.368 42.8393 167.722 42.9417 168.086 42.9651C168.45 42.9885 168.814 42.9322 169.154 42.8001L168.665 38.7417Z" fill="#ED847E"/>
<path d="M173.277 36.3711C173.232 36.3855 173.185 36.3871 173.139 36.3757C173.093 36.3643 173.052 36.3404 173.019 36.3066C172.803 36.072 172.535 35.8914 172.236 35.7795C171.937 35.6676 171.617 35.6275 171.299 35.6625C171.262 35.6731 171.223 35.6754 171.185 35.6689C171.147 35.6625 171.111 35.6476 171.079 35.6254C171.048 35.6031 171.022 35.574 171.003 35.5403C170.984 35.5066 170.973 35.4691 170.971 35.4305C170.963 35.3974 170.963 35.3631 170.969 35.3298C170.976 35.2965 170.989 35.2649 171.009 35.237C171.028 35.2092 171.053 35.1856 171.082 35.1679C171.111 35.1502 171.143 35.1388 171.177 35.1342C171.577 35.0813 171.984 35.1257 172.363 35.2636C172.742 35.4016 173.082 35.629 173.354 35.9266C173.379 35.95 173.398 35.978 173.411 36.009C173.424 36.04 173.431 36.0733 173.431 36.1069C173.431 36.1406 173.424 36.1739 173.411 36.2049C173.398 36.2359 173.379 36.2639 173.354 36.2873C173.334 36.32 173.308 36.3484 173.277 36.3711Z" fill="#263238"/>
<path d="M171.409 44.5201C172.022 44.3904 172.596 44.1149 173.08 43.7168C173.564 43.3187 173.946 42.8099 174.192 42.2332C174.204 42.1999 174.203 42.1629 174.189 42.1304C174.174 42.0978 174.148 42.0722 174.115 42.0593C174.079 42.0468 174.041 42.0485 174.007 42.0642C173.973 42.0799 173.947 42.1082 173.934 42.143C173.7 42.6714 173.344 43.1373 172.897 43.5032C172.449 43.8691 171.922 44.1247 171.357 44.2495C171.323 44.26 171.293 44.2828 171.274 44.3137C171.255 44.3446 171.248 44.3813 171.254 44.417C171.264 44.4493 171.285 44.4771 171.313 44.4958C171.342 44.5145 171.375 44.5231 171.409 44.5201Z" fill="#263238"/>
<path d="M164.806 37.2859C164.756 37.3053 164.701 37.3053 164.651 37.2859C164.588 37.2639 164.535 37.2178 164.505 37.1577C164.475 37.0975 164.47 37.0279 164.49 36.9638C164.614 36.579 164.827 36.2292 165.113 35.9435C165.398 35.6578 165.748 35.4444 166.133 35.3211C166.166 35.3125 166.2 35.3105 166.233 35.3153C166.266 35.3201 166.298 35.3315 166.327 35.3489C166.356 35.3664 166.381 35.3894 166.401 35.4167C166.421 35.4441 166.435 35.4751 166.442 35.5079C166.451 35.5397 166.453 35.5728 166.449 35.6054C166.444 35.638 166.433 35.6694 166.416 35.6976C166.4 35.7259 166.377 35.7505 166.351 35.7699C166.324 35.7893 166.294 35.8032 166.262 35.8107C165.961 35.9097 165.688 36.0778 165.464 36.3016C165.241 36.5254 165.072 36.7985 164.973 37.0991C164.966 37.143 164.947 37.184 164.917 37.2171C164.887 37.2502 164.849 37.2741 164.806 37.2859Z" fill="#263238"/>
<path d="M180.962 227.226C180.597 227.253 180.234 227.155 179.932 226.949C179.839 226.87 179.767 226.771 179.721 226.659C179.675 226.547 179.657 226.425 179.667 226.305C179.666 226.23 179.686 226.156 179.724 226.092C179.763 226.028 179.819 225.977 179.886 225.944C180.479 225.635 182.212 226.704 182.405 226.826C182.428 226.838 182.446 226.858 182.456 226.881C182.467 226.904 182.469 226.93 182.463 226.955C182.46 226.98 182.449 227.004 182.431 227.022C182.414 227.041 182.391 227.053 182.367 227.058C181.906 227.167 181.435 227.223 180.962 227.226ZM180.163 226.111C180.108 226.11 180.053 226.121 180.002 226.144C179.976 226.157 179.953 226.179 179.938 226.205C179.923 226.231 179.917 226.262 179.919 226.292C179.907 226.377 179.917 226.465 179.947 226.546C179.977 226.627 180.027 226.699 180.093 226.756C180.389 227 181.091 227.039 182.025 226.852C181.459 226.487 180.826 226.235 180.163 226.111Z" fill="#407BFF"/>
<path d="M182.341 227.033C182.32 227.039 182.297 227.039 182.276 227.033C181.722 226.73 180.647 225.551 180.763 224.958C180.782 224.864 180.832 224.78 180.906 224.719C180.98 224.658 181.073 224.624 181.168 224.623C181.265 224.61 181.363 224.618 181.456 224.645C181.55 224.673 181.636 224.721 181.71 224.784C182.354 225.293 182.463 226.846 182.463 226.91C182.467 226.933 182.464 226.957 182.453 226.978C182.443 226.999 182.426 227.016 182.405 227.026C182.385 227.035 182.362 227.037 182.341 227.033ZM181.278 224.855H181.226C181.059 224.855 181.046 224.952 181.04 224.984C180.969 225.338 181.684 226.227 182.206 226.646C182.167 226.033 181.942 225.446 181.561 224.965C181.483 224.896 181.382 224.857 181.278 224.855Z" fill="#407BFF"/>
<path d="M158.57 226.214C157.733 226.485 156.225 226.858 155.581 226.414C155.486 226.349 155.409 226.261 155.356 226.159C155.303 226.057 155.276 225.943 155.278 225.828C155.273 225.758 155.286 225.689 155.315 225.625C155.344 225.562 155.389 225.508 155.446 225.467C156.051 225.042 158.325 225.879 158.577 225.976C158.601 225.986 158.622 226.003 158.637 226.025C158.652 226.046 158.66 226.072 158.66 226.098C158.66 226.125 158.651 226.15 158.635 226.171C158.618 226.192 158.596 226.207 158.57 226.214ZM155.6 225.66C155.578 225.678 155.56 225.7 155.549 225.726C155.538 225.752 155.533 225.78 155.536 225.808C155.535 225.884 155.552 225.959 155.587 226.027C155.622 226.094 155.673 226.152 155.736 226.195C156.097 226.453 156.979 226.401 158.139 226.073C157.205 225.783 155.974 225.467 155.6 225.66Z" fill="#407BFF"/>
<path d="M158.57 226.214C158.537 226.227 158.5 226.227 158.467 226.214C157.791 226.002 156.386 224.99 156.419 224.378C156.419 224.23 156.502 224.043 156.844 223.972C156.968 223.943 157.097 223.94 157.222 223.963C157.347 223.986 157.466 224.036 157.572 224.108C158.313 224.591 158.622 226.04 158.635 226.04C158.638 226.062 158.637 226.085 158.63 226.106C158.623 226.127 158.612 226.147 158.596 226.163L158.57 226.214ZM156.76 224.282C156.676 224.327 156.67 224.378 156.67 224.404C156.67 224.771 157.623 225.577 158.325 225.899C158.196 225.297 157.883 224.75 157.43 224.333C157.355 224.279 157.268 224.242 157.177 224.224C157.086 224.206 156.992 224.208 156.902 224.23C156.852 224.237 156.804 224.252 156.76 224.275V224.282Z" fill="#407BFF"/>
<path d="M191.817 65.5787C191.682 67.6788 191.437 69.6307 191.173 71.647C190.909 73.6633 190.574 75.641 190.194 77.638C189.446 81.717 188.34 85.7222 186.889 89.607L186.245 91.108L186.084 91.4816L186.045 91.5783L185.981 91.72L185.787 92.1194C185.544 92.5831 185.245 93.0157 184.898 93.4078C184.344 94.0404 183.691 94.5798 182.966 95.0054C182.377 95.3583 181.759 95.658 181.117 95.9008C178.989 96.6694 176.765 97.1356 174.507 97.2858C170.406 97.59 166.284 97.4366 162.216 96.8284L162.364 92.7958L165.205 92.4737C166.159 92.3642 167.106 92.216 168.046 92.0872C169.927 91.8102 171.789 91.501 173.567 91.0887C175.206 90.7554 176.8 90.2278 178.315 89.5169C178.721 89.3441 179.078 89.0716 179.352 88.7245C179.352 88.6279 179.165 89.0337 179.403 88.3895L179.829 87.1462C180.87 83.5846 181.667 79.9557 182.212 76.2852C182.521 74.417 182.779 72.5295 183.037 70.6356C183.294 68.7417 183.494 66.8155 183.681 65.0054L191.817 65.5787Z" fill="#FFC3BD"/>
<path d="M192.294 61.6879C194.922 66.0941 192.68 79.9571 192.68 79.9571L178.894 77.3804C178.894 77.3804 178.147 69.4439 180.775 63.3499C183.629 56.7405 189.111 56.3411 192.294 61.6879Z" fill="#407BFF"/>
<path d="M158.525 105.197L151.214 71.1832C150.864 69.7302 150.05 68.4306 148.896 67.4811C147.742 66.5315 146.31 65.9836 144.817 65.9202H116.807C118.3 65.9857 119.731 66.5343 120.884 67.4836C122.038 68.4328 122.852 69.7312 123.204 71.1832L130.509 105.197C130.861 106.649 131.675 107.947 132.829 108.896C133.983 109.845 135.413 110.394 136.906 110.46H164.922C163.429 110.395 161.998 109.847 160.844 108.897C159.69 107.948 158.876 106.649 158.525 105.197Z" fill="#263238"/>
<path opacity="0.7" d="M158.525 105.197L151.214 71.1832C150.864 69.7302 150.05 68.4306 148.896 67.4811C147.742 66.5315 146.31 65.9836 144.817 65.9202H116.807C118.3 65.9857 119.731 66.5343 120.884 67.4836C122.038 68.4328 122.852 69.7312 123.204 71.1832L130.509 105.197C130.861 106.649 131.675 107.947 132.829 108.896C133.983 109.845 135.413 110.394 136.906 110.46H164.922C163.429 110.395 161.998 109.847 160.844 108.897C159.69 107.948 158.876 106.649 158.525 105.197Z" fill="#407BFF"/>
<path d="M105.88 106.897L105.161 114.878L105.806 114.936L106.524 106.955L105.88 106.897Z" fill="#407BFF"/>
<path d="M104.434 118.735L104.126 122.077L104.767 122.136L105.075 118.794L104.434 118.735Z" fill="#407BFF"/>
<path d="M116.807 65.9202H144.817C143.383 65.9468 142.008 66.4964 140.951 67.4657C139.894 68.4349 139.228 69.757 139.077 71.1832L131.81 150.213C131.658 151.639 130.991 152.962 129.933 153.931C128.874 154.9 127.499 155.449 126.064 155.476H108.581C107.907 155.488 107.239 155.357 106.621 155.09C106.002 154.823 105.448 154.428 104.994 153.929C104.541 153.431 104.2 152.842 103.993 152.201C103.786 151.56 103.718 150.882 103.795 150.213L111.061 71.1832C111.213 69.7564 111.881 68.4343 112.939 67.4652C113.997 66.496 115.373 65.9466 116.807 65.9202Z" fill="#407BFF"/>
<path d="M121.278 150.213C121.202 150.882 121.269 151.56 121.476 152.201C121.683 152.842 122.025 153.431 122.478 153.929C122.931 154.428 123.485 154.824 124.104 155.09C124.722 155.357 125.391 155.488 126.064 155.476H98.0484C97.3752 155.488 96.707 155.357 96.0888 155.09C95.4705 154.824 94.9164 154.428 94.4637 153.929C94.011 153.431 93.6702 152.841 93.464 152.2C93.2579 151.559 93.1912 150.882 93.2685 150.213H121.278Z" fill="#263238"/>
<path opacity="0.7" d="M121.278 150.213C121.202 150.882 121.269 151.56 121.476 152.201C121.683 152.842 122.025 153.431 122.478 153.929C122.931 154.428 123.485 154.824 124.104 155.09C124.722 155.357 125.391 155.488 126.064 155.476H98.0484C97.3752 155.488 96.707 155.357 96.0888 155.09C95.4705 154.824 94.9164 154.428 94.4637 153.929C94.011 153.431 93.6702 152.841 93.464 152.2C93.2579 151.559 93.1912 150.882 93.2685 150.213H121.278Z" fill="#407BFF"/>
<g opacity="0.5">
<path d="M134.252 74.7778H115.261C115.115 74.7796 114.97 74.7503 114.836 74.6918C114.702 74.6334 114.582 74.547 114.484 74.4386C114.386 74.3301 114.312 74.202 114.267 74.0628C114.222 73.9236 114.208 73.7764 114.224 73.6311C114.258 73.3211 114.404 73.034 114.634 72.8231C114.863 72.6123 115.162 72.4919 115.474 72.4845H134.432C134.579 72.4826 134.723 72.5119 134.858 72.5704C134.992 72.6289 135.112 72.7152 135.21 72.8237C135.308 72.9321 135.382 73.0602 135.426 73.1994C135.471 73.3387 135.486 73.4858 135.469 73.6311C135.436 73.9358 135.295 74.2187 135.072 74.4289C134.849 74.639 134.558 74.7627 134.252 74.7778Z" fill="white"/>
<path d="M133.659 80.9749H114.701C114.554 80.9777 114.408 80.9491 114.273 80.891C114.139 80.8329 114.018 80.7467 113.919 80.6381C113.82 80.5296 113.746 80.4012 113.701 80.2615C113.655 80.1218 113.641 79.9741 113.657 79.8282C113.691 79.5182 113.837 79.2311 114.067 79.0203C114.297 78.8094 114.595 78.6891 114.907 78.6816H133.865C134.012 78.6788 134.158 78.7074 134.293 78.7655C134.427 78.8236 134.548 78.9098 134.647 79.0184C134.746 79.1269 134.82 79.2553 134.866 79.395C134.911 79.5347 134.926 79.6824 134.909 79.8282C134.875 80.1383 134.729 80.4254 134.499 80.6362C134.27 80.8471 133.971 80.9674 133.659 80.9749Z" fill="white"/>
<path d="M128.454 87.1785H114.134C113.988 87.1804 113.843 87.1511 113.709 87.0926C113.575 87.0341 113.455 86.9478 113.356 86.8393C113.258 86.7308 113.184 86.6027 113.14 86.4635C113.095 86.3243 113.08 86.1772 113.097 86.0319C113.131 85.7218 113.276 85.4347 113.506 85.2239C113.736 85.013 114.035 84.8927 114.346 84.8852H128.654C128.801 84.8824 128.946 84.911 129.081 84.9691C129.216 85.0272 129.337 85.1134 129.436 85.222C129.534 85.3305 129.609 85.4589 129.654 85.5986C129.699 85.7383 129.714 85.886 129.698 86.0319C129.663 86.3408 129.519 86.627 129.29 86.8378C129.062 87.0485 128.765 87.1695 128.454 87.1785Z" fill="white"/>
<path d="M118.424 93.4078H113.573C113.427 93.4105 113.282 93.382 113.148 93.3243C113.014 93.2666 112.893 93.181 112.794 93.0732C112.696 92.9653 112.621 92.8377 112.575 92.6988C112.53 92.56 112.514 92.4129 112.53 92.2676C112.564 91.9576 112.71 91.6705 112.939 91.4596C113.169 91.2487 113.468 91.1284 113.78 91.1209H118.637C118.783 91.1191 118.928 91.1484 119.062 91.2069C119.196 91.2654 119.316 91.3517 119.414 91.4602C119.512 91.5686 119.586 91.6967 119.631 91.8359C119.676 91.9751 119.69 92.1223 119.674 92.2676C119.638 92.5765 119.492 92.862 119.262 93.0716C119.033 93.2811 118.735 93.4005 118.424 93.4078Z" fill="white"/>
<path d="M131.965 99.5791H112.994C112.847 99.581 112.702 99.5517 112.568 99.4932C112.434 99.4347 112.314 99.3484 112.216 99.2399C112.118 99.1315 112.044 99.0034 111.999 98.8642C111.955 98.7249 111.94 98.5778 111.956 98.4325C111.991 98.1225 112.136 97.8354 112.366 97.6245C112.596 97.4136 112.894 97.2933 113.206 97.2858H132.158C132.305 97.2831 132.451 97.3117 132.586 97.3697C132.72 97.4278 132.841 97.514 132.94 97.6226C133.039 97.7312 133.113 97.8596 133.158 97.9992C133.204 98.1389 133.218 98.2866 133.202 98.4325C133.168 98.7404 133.024 99.0257 132.797 99.2363C132.57 99.4469 132.275 99.5686 131.965 99.5791Z" fill="white"/>
<path d="M123.945 105.783H112.446C112.299 105.785 112.154 105.757 112.019 105.699C111.884 105.641 111.763 105.554 111.664 105.446C111.566 105.337 111.491 105.209 111.446 105.069C111.401 104.93 111.386 104.782 111.402 104.636C111.437 104.326 111.582 104.039 111.812 103.828C112.042 103.617 112.34 103.497 112.652 103.489H124.145C124.291 103.488 124.436 103.517 124.571 103.575C124.705 103.634 124.825 103.72 124.924 103.828C125.022 103.937 125.097 104.065 125.143 104.204C125.188 104.343 125.204 104.49 125.188 104.636C125.154 104.945 125.01 105.231 124.781 105.442C124.553 105.653 124.256 105.774 123.945 105.783Z" fill="white"/>
<path d="M130.838 111.98H111.879C111.733 111.982 111.588 111.952 111.454 111.894C111.32 111.835 111.2 111.749 111.102 111.641C111.004 111.532 110.93 111.404 110.885 111.265C110.84 111.126 110.826 110.979 110.842 110.833C110.876 110.523 111.022 110.236 111.252 110.025C111.481 109.814 111.78 109.694 112.092 109.687H131.031C131.177 109.685 131.323 109.714 131.457 109.773C131.591 109.831 131.712 109.917 131.81 110.026C131.909 110.134 131.983 110.262 132.029 110.401C132.075 110.54 132.09 110.688 132.075 110.833C132.041 111.141 131.897 111.427 131.67 111.637C131.443 111.848 131.147 111.969 130.838 111.98Z" fill="white"/>
<path d="M125.626 118.183H111.319C111.172 118.186 111.026 118.158 110.891 118.099C110.757 118.041 110.636 117.955 110.537 117.847C110.438 117.738 110.364 117.61 110.319 117.47C110.273 117.33 110.259 117.183 110.275 117.037C110.309 116.727 110.455 116.44 110.685 116.229C110.915 116.018 111.213 115.898 111.525 115.89H125.832C125.979 115.887 126.125 115.916 126.26 115.974C126.394 116.032 126.515 116.118 126.614 116.227C126.713 116.335 126.787 116.464 126.833 116.603C126.878 116.743 126.892 116.891 126.876 117.037C126.842 117.347 126.696 117.634 126.466 117.845C126.237 118.056 125.938 118.176 125.626 118.183Z" fill="white"/>
<path d="M115.609 124.387H110.752C110.605 124.389 110.46 124.359 110.326 124.301C110.192 124.243 110.071 124.156 109.973 124.048C109.874 123.94 109.799 123.812 109.754 123.673C109.708 123.533 109.693 123.386 109.708 123.24C109.743 122.929 109.889 122.641 110.12 122.43C110.351 122.219 110.651 122.1 110.964 122.094H115.815C115.962 122.091 116.108 122.12 116.242 122.178C116.377 122.236 116.498 122.322 116.597 122.43C116.696 122.539 116.77 122.667 116.815 122.807C116.86 122.947 116.875 123.094 116.859 123.24C116.825 123.55 116.679 123.837 116.449 124.048C116.219 124.259 115.921 124.38 115.609 124.387Z" fill="white"/>
<path d="M129.144 130.584H110.191C110.045 130.587 109.899 130.558 109.764 130.5C109.629 130.442 109.508 130.356 109.41 130.247C109.311 130.139 109.236 130.01 109.191 129.871C109.146 129.731 109.131 129.583 109.148 129.438C109.182 129.127 109.328 128.84 109.557 128.63C109.787 128.419 110.086 128.298 110.398 128.291H129.356C129.502 128.289 129.647 128.318 129.781 128.377C129.915 128.435 130.035 128.522 130.133 128.63C130.232 128.739 130.305 128.867 130.35 129.006C130.395 129.145 130.41 129.292 130.393 129.438C130.359 129.748 130.213 130.035 129.984 130.246C129.754 130.456 129.455 130.577 129.144 130.584Z" fill="white"/>
<path d="M121.117 136.788H109.625C109.478 136.79 109.332 136.762 109.197 136.704C109.062 136.646 108.942 136.559 108.843 136.451C108.744 136.342 108.669 136.214 108.624 136.074C108.579 135.935 108.564 135.787 108.581 135.641C108.615 135.331 108.761 135.044 108.99 134.833C109.22 134.622 109.519 134.502 109.831 134.494H121.323C121.47 134.492 121.615 134.52 121.75 134.578C121.885 134.636 122.006 134.723 122.105 134.831C122.204 134.94 122.278 135.068 122.323 135.208C122.368 135.347 122.383 135.495 122.367 135.641C122.332 135.951 122.187 136.238 121.957 136.449C121.727 136.66 121.429 136.78 121.117 136.788Z" fill="white"/>
<path d="M128.016 143.011H109.064C108.917 143.013 108.772 142.985 108.637 142.927C108.502 142.869 108.381 142.782 108.282 142.674C108.184 142.565 108.109 142.437 108.064 142.297C108.019 142.157 108.004 142.01 108.02 141.864C108.056 141.555 108.202 141.27 108.432 141.06C108.662 140.85 108.959 140.731 109.27 140.724H128.229C128.374 140.722 128.519 140.751 128.652 140.809C128.786 140.867 128.905 140.953 129.003 141.061C129.101 141.169 129.176 141.296 129.221 141.434C129.266 141.573 129.281 141.719 129.266 141.864C129.232 142.174 129.086 142.461 128.856 142.672C128.626 142.883 128.328 143.003 128.016 143.011Z" fill="white"/>
</g>
<path d="M164.033 93.1629L159.917 89.5876L157.984 96.1713C157.984 96.1713 162.165 98.4388 163.608 96.3581L164.033 93.1629Z" fill="#FFC3BD"/>
<path d="M155.439 89.3301L154.1 94.8508L157.99 96.1714L159.917 89.5878L155.439 89.3301Z" fill="#FFC3BD"/>
</svg>
