<svg width="550" height="421" viewBox="0 0 550 421" fill="none" xmlns="http://www.w3.org/2000/svg">
<path d="M494.834 391.744H458.406V392.029H494.834V391.744Z" fill="#EBEBEB"/>
<path d="M364.3 394.841H354.742V395.125H364.3V394.841Z" fill="#EBEBEB"/>
<path d="M457.306 381.18H436.199V381.464H457.306V381.18Z" fill="#EBEBEB"/>
<path d="M105.203 383.093H57.6992V383.377H105.203V383.093Z" fill="#EBEBEB"/>
<path d="M121.966 383.093H115.004V383.377H121.966V383.093Z" fill="#EBEBEB"/>
<path d="M247.638 387.896H144.602V388.181H247.638V387.896Z" fill="#EBEBEB"/>
<path d="M262.209 322.658H49.8233C48.1576 322.658 46.5602 321.973 45.3824 320.754C44.2046 319.535 43.543 317.881 43.543 316.158V7.17452C43.5575 5.4605 44.2255 3.82178 45.4018 2.61508C46.578 1.40838 48.1671 0.73138 49.8233 0.731445H262.209C263.034 0.731445 263.851 0.899571 264.613 1.22623C265.375 1.55288 266.067 2.03167 266.65 2.63525C267.233 3.23883 267.696 3.95538 268.011 4.744C268.327 5.53262 268.49 6.37785 268.49 7.23144V316.158C268.49 317.011 268.327 317.856 268.011 318.645C267.696 319.434 267.233 320.15 266.65 320.754C266.067 321.357 265.375 321.836 264.613 322.163C263.851 322.489 263.034 322.658 262.209 322.658ZM49.8233 0.959117C48.2314 0.962126 46.7057 1.61793 45.5801 2.78289C44.4545 3.94785 43.8208 5.52702 43.8179 7.17452V316.158C43.8208 317.805 44.4545 319.384 45.5801 320.549C46.7057 321.714 48.2314 322.37 49.8233 322.373H262.209C263.801 322.37 265.327 321.714 266.452 320.549C267.578 319.384 268.212 317.805 268.215 316.158V7.17452C268.212 5.52702 267.578 3.94785 266.452 2.78289C265.327 1.61793 263.801 0.962126 262.209 0.959117H49.8233Z" fill="#EBEBEB"/>
<path d="M500.112 322.658H287.726C286.06 322.658 284.463 321.973 283.285 320.754C282.107 319.535 281.445 317.881 281.445 316.158V7.17452C281.46 5.4605 282.128 3.82178 283.304 2.61508C284.48 1.40838 286.069 0.73138 287.726 0.731445H500.112C501.777 0.731445 503.375 1.41626 504.552 2.63525C505.73 3.85423 506.392 5.50753 506.392 7.23144V316.158C506.392 317.881 505.73 319.535 504.552 320.754C503.375 321.973 501.777 322.658 500.112 322.658ZM287.726 0.959117C286.134 0.962126 284.608 1.61793 283.482 2.78289C282.357 3.94785 281.723 5.52702 281.72 7.17452V316.158C281.723 317.805 282.357 319.384 283.482 320.549C284.608 321.714 286.134 322.37 287.726 322.373H500.112C501.703 322.37 503.229 321.714 504.355 320.549C505.48 319.384 506.114 317.805 506.117 316.158V7.17452C506.114 5.52702 505.48 3.94785 504.355 2.78289C503.229 1.61793 501.703 0.962126 500.112 0.959117H287.726Z" fill="#EBEBEB"/>
<path d="M549.938 373.428H0V373.712H549.938V373.428Z" fill="#EBEBEB"/>
<path d="M99.9565 230.826L83.1504 225.453C82.9074 225.362 82.7032 225.185 82.5737 224.953C82.4442 224.722 82.3977 224.45 82.4423 224.187C82.4869 223.923 82.6199 223.684 82.8177 223.512C83.0156 223.34 83.2658 223.245 83.5244 223.245L102.904 224.303C98.3287 216.073 95.623 210.928 92.5433 204.485C92.4409 204.241 92.4242 203.968 92.496 203.712C92.5679 203.457 92.7238 203.236 92.9367 203.087C93.1497 202.938 93.4062 202.872 93.6618 202.898C93.9174 202.925 94.156 203.043 94.3361 203.233C98.4717 208.048 101.936 211.952 107.535 218.111C108.854 210.142 110.394 202.8 112.308 195.435C112.358 195.133 112.521 194.864 112.762 194.687C113.004 194.509 113.303 194.439 113.595 194.49C113.887 194.541 114.147 194.71 114.318 194.96C114.489 195.21 114.557 195.52 114.508 195.822C113.994 201.756 113.806 207.715 113.947 213.671L114.475 213.865C119.124 208.37 124.003 203.092 129.114 198.03C129.32 197.863 129.576 197.778 129.837 197.789C130.098 197.8 130.347 197.907 130.539 198.09C130.731 198.274 130.853 198.522 130.884 198.791C130.916 199.059 130.853 199.33 130.709 199.556C125.767 206.042 121.201 212.827 117.038 219.875C123.681 217.28 130.361 214.764 137.077 212.328C137.331 212.253 137.602 212.274 137.841 212.389C138.08 212.503 138.272 212.702 138.381 212.95C138.49 213.199 138.51 213.479 138.436 213.741C138.362 214.003 138.2 214.228 137.979 214.377C131.017 218.464 124.132 222.641 117.258 226.967L134.977 232.807C135.222 232.899 135.427 233.078 135.556 233.312C135.686 233.546 135.731 233.82 135.683 234.085C135.636 234.35 135.499 234.589 135.297 234.759C135.095 234.93 134.841 235.021 134.581 235.015L116.378 233.877C119.974 238.237 122.471 241.231 125.386 244.612C125.55 244.819 125.638 245.08 125.635 245.348C125.631 245.617 125.536 245.875 125.366 246.078C125.197 246.281 124.963 246.415 124.707 246.457C124.451 246.499 124.189 246.446 123.967 246.308C120.304 243.792 117.082 241.561 112.396 238.339C112.88 242.21 113.287 245.169 113.782 248.152C113.81 248.42 113.744 248.689 113.598 248.912C113.452 249.135 113.234 249.297 112.984 249.369C112.733 249.441 112.466 249.419 112.229 249.307C111.993 249.195 111.803 248.999 111.692 248.755C110.471 245.534 109.36 242.335 107.953 238.077C102.662 264.26 104.026 289.679 109.14 315.724L102.805 314.586C99.0712 289.003 100.079 262.918 105.775 237.725C102.596 241.14 100.275 243.678 98.0757 246.251C97.8892 246.44 97.6438 246.554 97.3833 246.573C97.1229 246.592 96.8644 246.515 96.6541 246.355C96.4437 246.194 96.2953 245.962 96.2354 245.699C96.1755 245.436 96.2079 245.16 96.3269 244.919C97.8228 242.346 99.4396 239.739 101.617 236.359C95.953 237.645 92.0814 238.533 87.8029 239.535C87.5462 239.582 87.2814 239.534 87.0558 239.399C86.8301 239.263 86.6584 239.049 86.5712 238.795C86.4839 238.541 86.4869 238.262 86.5796 238.01C86.6722 237.758 86.8485 237.548 87.077 237.417C90.9155 235.289 94.5891 233.467 99.9565 230.826Z" fill="#EBEBEB"/>
<path d="M91.0128 239.877L103.925 232.796C104.249 232.627 104.5 232.34 104.63 231.99C104.76 231.639 104.76 231.252 104.63 230.902C104.5 230.552 104.249 230.264 103.926 230.095C103.603 229.925 103.23 229.886 102.881 229.985L86.9433 234.094C89.539 226.353 91.1778 221.14 92.7836 215.402C92.8821 215.049 92.8528 214.67 92.7013 214.338C92.5497 214.005 92.2863 213.741 91.9603 213.594C91.6342 213.448 91.2678 213.429 90.9295 213.542C90.5912 213.655 90.3041 213.891 90.1219 214.207C87.5042 218.76 85.0075 222.858 81.3229 228.903C79.1232 222.733 76.8025 217.007 74.2947 211.384C74.1373 211.048 73.8656 210.785 73.5319 210.644C73.1982 210.503 72.8259 210.494 72.4865 210.62C72.1471 210.745 71.8644 210.996 71.6926 211.324C71.5209 211.652 71.4723 212.034 71.556 212.397C72.6559 216.859 73.5688 221.356 74.2727 225.761L73.7888 226.057C69.6093 222.688 65.3344 219.459 60.9642 216.37C60.6599 216.152 60.287 216.061 59.9208 216.117C59.5545 216.172 59.2221 216.369 58.9905 216.668C58.759 216.966 58.6455 217.345 58.6729 217.727C58.7004 218.109 58.8667 218.466 59.1385 218.726C63.7433 223.09 68.1428 227.666 72.337 232.455C66.6836 231.445 61.0192 230.482 55.3439 229.563C54.9852 229.512 54.6208 229.6 54.3212 229.81C54.0216 230.021 53.808 230.339 53.7218 230.703C53.6355 231.067 53.6828 231.451 53.8545 231.781C54.0261 232.111 54.3099 232.363 54.651 232.489C60.9203 234.766 67.1456 237.042 73.3489 239.467L59.6114 247.162C59.2744 247.328 59.0115 247.621 58.8765 247.982C58.7415 248.342 58.7446 248.742 58.8851 249.099C59.0257 249.457 59.293 249.746 59.6325 249.906C59.972 250.067 60.3579 250.087 60.7113 249.963L75.5046 246.081C73.3049 249.963 71.721 252.911 70.0052 255.848C69.8175 256.165 69.7489 256.542 69.8124 256.908C69.876 257.273 70.0672 257.602 70.3498 257.831C70.6324 258.061 70.9866 258.174 71.3449 258.151C71.7033 258.127 72.0407 257.968 72.293 257.703L80.2891 249.61C80.421 251.886 80.531 253.913 80.597 255.78C80.6116 256.154 80.7594 256.509 81.0119 256.776C81.2645 257.044 81.6039 257.206 81.9647 257.23C82.3255 257.254 82.6821 257.139 82.9657 256.907C83.2493 256.675 83.4399 256.342 83.5007 255.973C83.8637 253.696 84.2156 251.329 84.6006 248.494C94.4995 273.208 97.7991 298.422 97.4251 325.003L103.441 322.612C102.496 296.757 96.7998 271.324 86.6573 247.675C88.9451 249.337 90.8589 250.748 92.6077 252.08C92.8994 252.346 93.2811 252.481 93.6689 252.455C94.0567 252.429 94.4187 252.245 94.6754 251.943C94.9321 251.641 95.0624 251.246 95.0377 250.845C95.0129 250.444 94.8351 250.069 94.5434 249.803C93.3556 248.494 92.0467 247.105 90.5399 245.512C94.9394 245.637 98.305 245.739 101.539 245.853C101.895 245.861 102.242 245.735 102.514 245.498C102.786 245.26 102.966 244.928 103.018 244.563C103.071 244.199 102.993 243.827 102.8 243.517C102.606 243.208 102.31 242.982 101.968 242.882C98.756 241.983 95.4233 241.061 91.0128 239.877Z" fill="#F0F0F0"/>
<path d="M113.814 254.243L104.179 248.949C103.958 248.826 103.788 248.623 103.701 248.379C103.614 248.135 103.615 247.866 103.706 247.624C103.796 247.381 103.969 247.181 104.191 247.06C104.414 246.939 104.671 246.907 104.916 246.969L116.783 250.031C114.847 244.271 113.649 240.446 112.461 236.166C112.341 235.901 112.328 235.599 112.424 235.325C112.52 235.05 112.717 234.827 112.972 234.703C113.227 234.579 113.52 234.565 113.785 234.665C114.05 234.764 114.266 234.968 114.385 235.232C116.343 238.579 118.18 241.652 120.919 246.149C122.58 241.539 124.295 237.27 126.176 233.069C126.287 232.831 126.479 232.645 126.715 232.545C126.952 232.445 127.215 232.438 127.455 232.527C127.696 232.616 127.896 232.794 128.017 233.027C128.138 233.259 128.172 233.53 128.112 233.786C127.265 237.201 126.572 240.617 126.044 243.929L126.352 244.111C129.52 241.554 132.768 239.106 136.097 236.769C136.204 236.682 136.326 236.618 136.457 236.58C136.588 236.543 136.725 236.532 136.859 236.549C136.994 236.566 137.124 236.61 137.243 236.679C137.361 236.748 137.465 236.84 137.549 236.951C137.633 237.062 137.695 237.188 137.731 237.324C137.768 237.459 137.778 237.601 137.762 237.74C137.745 237.88 137.702 238.014 137.636 238.137C137.569 238.259 137.48 238.367 137.373 238.454C133.905 241.709 130.605 245.124 127.474 248.699C131.698 247.94 135.936 247.215 140.189 246.525C140.446 246.479 140.71 246.537 140.928 246.685C141.146 246.833 141.303 247.061 141.365 247.323C141.428 247.585 141.392 247.862 141.266 248.098C141.139 248.334 140.931 248.512 140.684 248.596C136.013 250.274 131.353 252.011 126.704 253.81L136.933 259.502C137.158 259.624 137.331 259.828 137.42 260.075C137.509 260.321 137.507 260.593 137.414 260.838C137.322 261.083 137.145 261.284 136.918 261.403C136.692 261.522 136.431 261.55 136.185 261.483L125.186 258.591C126.803 261.517 128.024 263.702 129.289 265.922C129.411 266.145 129.452 266.405 129.404 266.656C129.356 266.907 129.223 267.132 129.029 267.291C128.835 267.449 128.592 267.53 128.345 267.519C128.099 267.508 127.863 267.406 127.683 267.231L121.766 261.209C121.656 263.019 121.579 264.567 121.524 266.013C121.519 266.282 121.417 266.539 121.238 266.734C121.059 266.928 120.815 267.046 120.556 267.063C120.297 267.08 120.041 266.996 119.839 266.827C119.637 266.657 119.504 266.416 119.467 266.15C119.192 264.431 118.917 262.587 118.609 260.39C111.372 278.41 109.018 296.817 109.26 316.169L104.861 314.427C105.551 295.575 109.701 277.032 117.091 259.786C115.32 261.084 113.792 262.177 112.494 263.201C112.287 263.371 112.026 263.453 111.763 263.429C111.5 263.406 111.256 263.28 111.08 263.076C110.904 262.872 110.81 262.607 110.818 262.334C110.825 262.061 110.933 261.801 111.119 261.608C112.054 260.583 113.066 259.49 114.265 258.193L105.949 258.443C105.694 258.454 105.444 258.366 105.248 258.197C105.051 258.028 104.922 257.79 104.885 257.528C104.849 257.267 104.906 257 105.048 256.781C105.19 256.561 105.405 256.403 105.652 256.337C107.995 255.814 110.481 255.131 113.814 254.243Z" fill="#F5F5F5"/>
<path d="M86.6587 373.234H119.457C120.562 373.236 121.626 372.801 122.432 372.019C123.237 371.236 123.723 370.164 123.79 369.022L127.266 310.465C127.42 307.881 78.6956 307.881 78.8716 310.465L82.3472 369.022C82.4143 370.16 82.8973 371.228 83.6981 372.011C84.4989 372.793 85.5575 373.23 86.6587 373.234Z" fill="#F0F0F0"/>
<path d="M84.6901 237.941C84.2637 237.577 83.9324 237.108 83.7268 236.577C83.5212 236.046 83.4477 235.47 83.5133 234.902L84.2502 228.413L82.5674 231.43C82.3345 231.853 82.0167 232.221 81.6353 232.507C81.2539 232.793 80.8177 232.991 80.3561 233.088C79.8945 233.185 79.4182 233.179 78.9592 233.069C78.5002 232.96 78.0691 232.75 77.6949 232.454L74.3953 229.882L77.398 234.902C77.8191 235.597 77.9842 236.426 77.863 237.237C77.7418 238.048 77.3425 238.787 76.738 239.319L72.8555 242.734L76.661 241.834C77.4677 241.639 78.316 241.764 79.0373 242.186C79.7587 242.608 80.3003 243.295 80.5546 244.111L81.8635 248.255L82.6994 243.849C82.79 243.383 82.9739 242.941 83.2392 242.552C83.5044 242.163 83.8453 241.836 84.2399 241.592C84.6344 241.348 85.074 241.191 85.5303 241.133C85.9867 241.075 86.4498 241.116 86.8899 241.254L89.4526 242.028L84.6901 237.941Z" fill="#E6E6E6"/>
<path d="M106.545 226.763C106.858 226.498 107.101 226.156 107.251 225.767C107.401 225.379 107.453 224.958 107.403 224.543L106.864 219.796L108.096 222.004C108.266 222.313 108.497 222.581 108.775 222.79C109.053 222.998 109.371 223.143 109.708 223.214C110.044 223.286 110.391 223.281 110.726 223.202C111.061 223.123 111.375 222.971 111.649 222.756L114.057 220.877L111.858 224.543C111.553 225.051 111.435 225.655 111.524 226.246C111.612 226.837 111.903 227.376 112.342 227.764L115.179 230.292L112.397 229.631C111.809 229.492 111.192 229.586 110.667 229.893C110.142 230.201 109.747 230.7 109.559 231.293L108.602 234.321L107.986 231.1C107.92 230.758 107.786 230.435 107.593 230.15C107.401 229.865 107.153 229.624 106.865 229.443C106.578 229.262 106.257 229.145 105.924 229.099C105.59 229.053 105.252 229.079 104.928 229.176L103.059 229.745L106.545 226.763Z" fill="#F5F5F5"/>
<path d="M119.512 253.935C119.734 253.741 119.906 253.492 120.014 253.212C120.121 252.932 120.16 252.629 120.128 252.33L119.743 248.915L120.622 250.497C120.746 250.718 120.913 250.909 121.113 251.058C121.313 251.206 121.541 251.309 121.782 251.36C122.023 251.41 122.272 251.407 122.512 251.351C122.752 251.294 122.978 251.186 123.174 251.032L124.901 249.678L123.328 252.307C123.119 252.668 123.038 253.094 123.1 253.51C123.163 253.926 123.364 254.306 123.669 254.584L125.704 256.394L123.713 255.916C123.297 255.814 122.858 255.873 122.481 256.083C122.104 256.293 121.815 256.638 121.667 257.054L120.985 259.229L120.546 256.952C120.499 256.706 120.403 256.473 120.264 256.268C120.126 256.062 119.947 255.889 119.74 255.76C119.533 255.63 119.302 255.547 119.062 255.515C118.822 255.483 118.578 255.503 118.346 255.574L117.004 255.984L119.512 253.935Z" fill="#E6E6E6"/>
<path d="M423.056 92.5508H394.272C393.47 92.5508 392.82 93.2235 392.82 94.0534V99.8476C392.82 100.678 393.47 101.35 394.272 101.35H423.056C423.858 101.35 424.508 100.678 424.508 99.8476V94.0534C424.508 93.2235 423.858 92.5508 423.056 92.5508Z" fill="#F5F5F5"/>
<path d="M413.376 103.456H384.592C383.791 103.456 383.141 104.129 383.141 104.959V110.753C383.141 111.583 383.791 112.256 384.592 112.256H413.376C414.178 112.256 414.828 111.583 414.828 110.753V104.959C414.828 104.129 414.178 103.456 413.376 103.456Z" fill="#F5F5F5"/>
<path d="M446.54 103.456H417.757C416.955 103.456 416.305 104.129 416.305 104.959V110.753C416.305 111.583 416.955 112.256 417.757 112.256H446.54C447.342 112.256 447.992 111.583 447.992 110.753V104.959C447.992 104.129 447.342 103.456 446.54 103.456Z" fill="#F0F0F0"/>
<path d="M461.926 22.5078H431.217C430.416 22.5078 429.766 23.1806 429.766 24.0104V30.3397C429.766 31.1696 430.416 31.8423 431.217 31.8423H461.926C462.728 31.8423 463.378 31.1696 463.378 30.3397V24.0104C463.378 23.1806 462.728 22.5078 461.926 22.5078Z" fill="#F5F5F5"/>
<path d="M461.926 45.6621H431.217C430.416 45.6621 429.766 46.3349 429.766 47.1647V53.494C429.766 54.3238 430.416 54.9966 431.217 54.9966H461.926C462.728 54.9966 463.378 54.3238 463.378 53.494V47.1647C463.378 46.3349 462.728 45.6621 461.926 45.6621Z" fill="#F5F5F5"/>
<path d="M451.664 34.0742H420.956C420.154 34.0742 419.504 34.747 419.504 35.5768V41.9061C419.504 42.736 420.154 43.4087 420.956 43.4087H451.664C452.466 43.4087 453.116 42.736 453.116 41.9061V35.5768C453.116 34.747 452.466 34.0742 451.664 34.0742Z" fill="#F5F5F5"/>
<path d="M486.836 34.0742H456.128C455.326 34.0742 454.676 34.747 454.676 35.5768V41.9061C454.676 42.736 455.326 43.4087 456.128 43.4087H486.836C487.638 43.4087 488.288 42.736 488.288 41.9061V35.5768C488.288 34.747 487.638 34.0742 486.836 34.0742Z" fill="#F0F0F0"/>
<path d="M240.796 306.037H452.027V299.753H240.796V306.037Z" fill="#F5F5F5"/>
<path d="M450.453 306.037H497.77V299.753H450.453V306.037Z" fill="#EBEBEB"/>
<path d="M262.75 321.314V306.037H252.906L262.75 321.314Z" fill="#E0E0E0"/>
<path d="M257.832 321.314L247.988 306.037H252.905L262.749 321.314H257.832Z" fill="#FAFAFA"/>
<path d="M490.059 321.314V306.037H480.215L490.059 321.314Z" fill="#E0E0E0"/>
<path d="M485.134 321.314L475.301 306.037H480.217L490.061 321.314H485.134Z" fill="#FAFAFA"/>
<path d="M463.96 300.607H469.526C470.118 300.608 470.705 300.484 471.251 300.244C471.796 300.004 472.289 299.652 472.7 299.21C473.111 298.768 473.432 298.244 473.642 297.67C473.852 297.097 473.949 296.485 473.925 295.872L473.221 274.175H460.243L459.539 295.872C459.515 296.487 459.612 297.1 459.824 297.676C460.035 298.251 460.358 298.776 460.771 299.218C461.184 299.661 461.68 300.012 462.228 300.251C462.776 300.49 463.365 300.611 463.96 300.607Z" fill="#F0F0F0"/>
<path d="M440.358 286.866C445.177 281.878 445.177 273.791 440.358 268.804C435.539 263.816 427.725 263.816 422.906 268.804C418.087 273.791 418.087 281.878 422.906 286.866C427.725 291.854 435.539 291.854 440.358 286.866Z" fill="#F0F0F0"/>
<path d="M430.778 300.414H432.493V291.956H431.635C429.813 292.01 427.998 291.684 426.298 290.999C424.599 290.314 423.05 289.284 421.742 287.968C420.435 286.653 419.395 285.079 418.685 283.341C417.975 281.602 417.61 279.734 417.61 277.846C417.61 275.959 417.975 274.091 418.685 272.352C419.395 270.613 420.435 269.04 421.742 267.724C423.05 266.409 424.599 265.378 426.298 264.693C427.998 264.008 429.813 263.683 431.635 263.736V261.949C427.769 262.157 424.12 263.864 421.416 266.731C418.711 269.598 417.149 273.414 417.041 277.419C416.933 281.425 418.286 285.325 420.832 288.344C423.378 291.363 426.929 293.278 430.778 293.709V300.414Z" fill="#EBEBEB"/>
<path d="M424.385 300.607H439.058C439.058 299.702 438.71 298.833 438.091 298.193C437.472 297.552 436.633 297.192 435.758 297.192H427.663C426.788 297.192 425.949 297.552 425.33 298.193C424.711 298.833 424.363 299.702 424.363 300.607H424.385Z" fill="#EBEBEB"/>
<path d="M464.798 300.608L453.205 288.609L441.602 300.608H464.798Z" fill="#F5F5F5"/>
<path d="M453.203 288.609L464.796 300.608H453.203V288.609Z" fill="#E6E6E6"/>
<path d="M372.375 284.91C372.43 286.049 372.463 286.959 372.463 287.563C372.463 290.047 371.94 292.501 370.929 294.754C369.919 297.007 368.445 299.005 366.612 300.608H346.231C344.404 299.008 342.935 297.015 341.926 294.768C340.918 292.521 340.394 290.074 340.391 287.597C340.391 286.993 340.391 286.083 340.479 284.944L372.375 284.91Z" fill="#F5F5F5"/>
<path d="M369.559 294.255C369.558 295.465 369.813 296.66 370.305 297.757C370.797 298.854 371.514 299.827 372.407 300.607H382.306C383.444 299.605 384.292 298.297 384.759 296.828C384.955 296.865 385.154 296.884 385.353 296.885C387.344 296.885 389.565 295.246 389.565 293.06C389.565 290.874 388.289 289.235 386.387 289.235C385.946 289.24 385.509 289.313 385.089 289.451V289.304C385.083 288.774 384.875 288.269 384.51 287.897C384.145 287.526 383.654 287.32 383.142 287.323H371.538C371.282 287.317 371.028 287.363 370.789 287.46C370.551 287.556 370.333 287.701 370.149 287.885C369.965 288.069 369.818 288.29 369.716 288.533C369.615 288.777 369.561 289.038 369.559 289.304C369.559 291.592 369.559 293.459 369.559 294.255ZM385.067 295.587C385.146 295.148 385.186 294.702 385.188 294.255C385.188 293.641 385.188 292.4 385.188 290.84C385.588 290.647 386.022 290.543 386.464 290.533C388.267 290.533 388.41 292.48 388.41 293.083C388.41 294.494 386.783 295.633 385.43 295.633L385.067 295.587Z" fill="#EBEBEB"/>
<path d="M277.653 300.608L279.27 281.381H255.722L254.094 300.608H277.653Z" fill="#F0F0F0"/>
<path d="M277.652 300.608L279.269 281.381H280.545L278.917 300.608H277.652Z" fill="#E0E0E0"/>
<path d="M275.409 298.65L276.707 283.351H257.954L256.656 298.65H275.409Z" fill="#FAFAFA"/>
<path d="M273.978 297.386L275.056 284.603H259.394L258.305 297.386H273.978Z" fill="#EBEBEB"/>
<path d="M304.205 300.608H280.547L283.165 269.554H306.834L304.205 300.608Z" fill="#F0F0F0"/>
<path d="M304.203 300.608H305.336L307.965 269.554H306.832L304.203 300.608Z" fill="#E0E0E0"/>
<path d="M302.06 297.443H283.219L285.309 272.718H304.149L302.06 297.443Z" fill="#E0E0E0"/>
<path d="M300.685 295.406H284.945L286.694 274.756H302.433L300.685 295.406Z" fill="#FAFAFA"/>
<path d="M289.319 285.957L290.867 287.558C292.233 288.972 294.447 288.972 295.813 287.558L297.361 285.957C298.727 284.543 298.727 282.251 297.361 280.837L295.813 279.235C294.447 277.822 292.233 277.822 290.867 279.235L289.319 280.837C287.953 282.251 287.953 284.543 289.319 285.957Z" fill="#EBEBEB"/>
<path d="M288.562 291.899L289.324 292.687C290.69 294.101 292.904 294.101 294.27 292.687L295.032 291.899C296.398 290.485 296.398 288.193 295.032 286.779L294.27 285.99C292.904 284.577 290.69 284.577 289.324 285.99L288.562 286.779C287.196 288.193 287.196 290.485 288.562 291.899Z" fill="#E6E6E6"/>
<path d="M76.3188 78.9814H109.931C110.733 78.9814 111.383 78.3087 111.383 77.4788V70.3414C111.383 69.5115 110.733 68.8387 109.931 68.8387H76.3188C75.517 68.8387 74.8669 69.5115 74.8669 70.3414V77.4788C74.8669 78.3087 75.517 78.9814 76.3188 78.9814Z" fill="#F5F5F5"/>
<path d="M93.3696 66.4141H126.982C127.784 66.4141 128.434 65.7413 128.434 64.9114V57.774C128.434 56.9441 127.784 56.2713 126.982 56.2713L93.3696 56.2713C92.5677 56.2713 91.9177 56.9441 91.9177 57.774V64.9114C91.9177 65.7413 92.5677 66.4141 93.3696 66.4141Z" fill="#F5F5F5"/>
<path d="M55.1586 66.4141H88.7708C89.5726 66.4141 90.2227 65.7413 90.2227 64.9114V57.774C90.2227 56.9441 89.5726 56.2713 88.7708 56.2713L55.1586 56.2713C54.3568 56.2713 53.7068 56.9441 53.7068 57.774V64.9114C53.7068 65.7413 54.3568 66.4141 55.1586 66.4141Z" fill="#F0F0F0"/>
<path d="M274.97 420.453C392.747 420.453 488.225 414.684 488.225 407.567C488.225 400.45 392.747 394.681 274.97 394.681C157.192 394.681 61.7148 400.45 61.7148 407.567C61.7148 414.684 157.192 420.453 274.97 420.453Z" fill="#F5F5F5"/>
<path d="M431.966 30.8867H367.623C356.307 30.8867 347.133 40.3816 347.133 52.0942V232.842C347.133 244.554 356.307 254.049 367.623 254.049H431.966C443.283 254.049 452.457 244.554 452.457 232.842V52.0942C452.457 40.3816 443.283 30.8867 431.966 30.8867Z" fill="#006CFF"/>
<path opacity="0.3" d="M432.197 30.8867H367.393C356.203 30.8867 347.133 40.2746 347.133 51.8552V233.081C347.133 244.661 356.203 254.049 367.393 254.049H432.197C443.386 254.049 452.457 244.661 452.457 233.081V51.8552C452.457 40.2746 443.386 30.8867 432.197 30.8867Z" fill="black"/>
<path d="M452.457 41.8377V86.1082H347.133V41.8377C347.133 38.9333 348.248 36.1479 350.232 34.0942C352.216 32.0405 354.907 30.8867 357.714 30.8867H441.876C444.682 30.8867 447.374 32.0405 449.358 34.0942C451.342 36.1479 452.457 38.9333 452.457 41.8377Z" fill="#006CFF"/>
<path d="M421.78 218.942H377.807C371.83 218.942 366.984 223.957 366.984 230.144V230.998C366.984 237.184 371.83 242.199 377.807 242.199H421.78C427.757 242.199 432.603 237.184 432.603 230.998V230.144C432.603 223.957 427.757 218.942 421.78 218.942Z" fill="#006CFF"/>
<path d="M382.756 232.352C382.756 234.469 381.117 235.881 378.555 236.097L378.214 237.85H376.674L377.015 236.097C375.756 236.017 374.538 235.597 373.484 234.879L374.507 232.91C375.363 233.544 376.364 233.936 377.411 234.048L377.939 231.362C376.509 230.918 374.936 230.326 374.936 228.402C374.936 226.285 376.619 224.85 379.226 224.668L379.567 222.915H381.107L380.766 224.679C381.762 224.761 382.728 225.072 383.592 225.59L382.657 227.56C381.97 227.098 381.185 226.813 380.37 226.729L379.831 229.529C381.249 229.95 382.756 230.519 382.756 232.352ZM378.357 229.074L378.797 226.797C377.928 226.968 377.433 227.457 377.422 228.072C377.411 228.687 377.829 228.834 378.357 229.074ZM380.26 232.762C380.26 232.306 379.908 232.01 379.369 231.806L378.951 233.991C379.809 233.809 380.282 233.365 380.282 232.762H380.26Z" fill="white"/>
<path d="M425.84 171.359H371.473V173.636H425.84V171.359Z" fill="#006CFF"/>
<path d="M425.84 133.976H371.473V136.252H425.84V133.976Z" fill="#006CFF"/>
<path d="M425.84 97.9473H371.473V100.224H425.84V97.9473Z" fill="#006CFF"/>
<path d="M404.909 123.925C408.603 120.102 408.603 113.904 404.909 110.08C401.215 106.257 395.226 106.257 391.532 110.08C387.838 113.904 387.838 120.102 391.532 123.925C395.226 127.749 401.215 127.749 404.909 123.925Z" fill="#006CFF"/>
<path d="M404.987 114.885L399.554 120.52L397.013 123.15L394.473 120.52L397.013 117.891L402.447 112.256L404.987 114.885Z" fill="white"/>
<path d="M399.551 120.52L397.01 123.15L391.621 117.572L394.162 114.942L397.01 117.891L399.551 120.52Z" fill="white"/>
<path d="M398.221 162.913C403.445 162.913 407.68 158.53 407.68 153.123C407.68 147.716 403.445 143.333 398.221 143.333C392.997 143.333 388.762 147.716 388.762 153.123C388.762 158.53 392.997 162.913 398.221 162.913Z" fill="#006CFF"/>
<path d="M404.987 151.006L399.554 156.64L397.013 159.27L394.473 156.64L397.013 154.011L402.447 148.376L404.987 151.006Z" fill="white"/>
<path d="M399.551 156.64L397.01 159.27L391.621 153.692L394.162 151.062L397.01 154.011L399.551 156.64Z" fill="white"/>
<path d="M398.221 201.651C403.445 201.651 407.68 197.268 407.68 191.861C407.68 186.454 403.445 182.071 398.221 182.071C392.997 182.071 388.762 186.454 388.762 191.861C388.762 197.268 392.997 201.651 398.221 201.651Z" fill="#006CFF"/>
<path d="M404.987 189.744L399.554 195.379L397.013 198.008L394.473 195.379L397.013 192.749L402.447 187.114L404.987 189.744Z" fill="white"/>
<path d="M399.551 195.379L397.01 198.008L391.621 192.43L394.162 189.801L397.01 192.749L399.551 195.379Z" fill="white"/>
<path d="M385.828 70.4219L387.599 73.3474L390.832 74.1784L388.688 76.8308L388.919 80.28L385.828 78.9823L382.726 80.28L382.957 76.8308L380.812 74.1784L384.057 73.3474L385.828 70.4219Z" fill="white"/>
<path d="M398.223 70.4219L399.994 73.3474L403.239 74.1784L401.094 76.8308L401.325 80.28L398.223 78.9823L395.133 80.28L395.363 76.8308L393.219 74.1784L396.452 73.3474L398.223 70.4219Z" fill="white"/>
<path d="M410.629 70.4219L412.389 73.3474L415.633 74.1784L413.488 76.8308L413.719 80.28L410.629 78.9823L407.527 80.28L407.758 76.8308L405.613 74.1784L408.858 73.3474L410.629 70.4219Z" fill="white"/>
<path d="M308.216 18.1826H243.873C232.557 18.1826 223.383 27.6775 223.383 39.3901V220.138C223.383 231.85 232.557 241.345 243.873 241.345H308.216C319.533 241.345 328.707 231.85 328.707 220.138V39.3901C328.707 27.6775 319.533 18.1826 308.216 18.1826Z" fill="#006CFF"/>
<path opacity="0.5" d="M307.534 18.1826H244.555C238.94 18.1826 233.555 20.4913 229.584 24.6009C225.613 28.7104 223.383 34.2841 223.383 40.0959V219.432C223.383 222.311 223.931 225.161 224.996 227.82C226.06 230.48 227.621 232.896 229.588 234.931C231.555 236.966 233.891 238.58 236.461 239.68C239.031 240.781 241.785 241.347 244.566 241.345H307.534C310.316 241.347 313.07 240.781 315.64 239.68C318.21 238.58 320.545 236.966 322.513 234.931C324.48 232.896 326.04 230.48 327.105 227.82C328.17 225.161 328.718 222.311 328.718 219.432V40.0959C328.718 37.2172 328.17 34.3668 327.105 31.7074C326.04 29.048 324.48 26.6318 322.513 24.5968C320.545 22.5619 318.21 20.948 315.64 19.8474C313.07 18.7468 310.316 18.1811 307.534 18.1826Z" fill="white"/>
<path d="M328.718 29.1902V73.4493H223.383V29.1902C223.383 26.2858 224.498 23.5004 226.482 21.4467C228.466 19.393 231.157 18.2393 233.964 18.2393H318.126C320.933 18.2393 323.626 19.3926 325.612 21.446C327.598 23.4994 328.715 26.2848 328.718 29.1902Z" fill="#006CFF"/>
<path d="M298.921 206.238H254.948C248.971 206.238 244.125 211.253 244.125 217.44V218.293C244.125 224.48 248.971 229.495 254.948 229.495H298.921C304.898 229.495 309.744 224.48 309.744 218.293V217.44C309.744 211.253 304.898 206.238 298.921 206.238Z" fill="#006CFF"/>
<path d="M302.992 158.655H248.625V160.932H302.992V158.655Z" fill="#006CFF"/>
<path d="M302.992 121.271H248.625V123.548H302.992V121.271Z" fill="#006CFF"/>
<path d="M302.992 85.2432H248.625V87.5199H302.992V85.2432Z" fill="#006CFF"/>
<path d="M284.182 142.667C285.382 137.405 282.234 132.132 277.149 130.89C272.065 129.648 266.97 132.907 265.77 138.169C264.57 143.431 267.719 148.704 272.804 149.946C277.888 151.188 282.982 147.929 284.182 142.667Z" fill="#006CFF"/>
<path d="M281.752 138.313L276.308 143.937L273.767 146.566L271.227 143.937L273.767 141.318L279.212 135.684L281.752 138.313Z" fill="white"/>
<path d="M276.31 143.937L273.769 146.566L268.391 140.988L270.92 138.37L273.769 141.318L276.31 143.937Z" fill="white"/>
<path d="M279.424 188.202C284.25 186.133 286.542 180.406 284.543 175.411C282.544 170.416 277.011 168.044 272.184 170.113C267.358 172.182 265.066 177.909 267.065 182.904C269.064 187.899 274.597 190.271 279.424 188.202Z" fill="#006CFF"/>
<path d="M282.577 177.04L277.132 182.675L274.591 185.304L272.051 182.675L274.591 180.045L280.036 174.41L282.577 177.04Z" fill="white"/>
<path d="M277.134 182.675L274.593 185.304L269.215 179.726L271.745 177.097L274.593 180.045L277.134 182.675Z" fill="white"/>
<path d="M274.977 114.089C280.146 114.089 284.337 109.751 284.337 104.401C284.337 99.0511 280.146 94.7139 274.977 94.7139C269.808 94.7139 265.617 99.0511 265.617 104.401C265.617 109.751 269.808 114.089 274.977 114.089Z" fill="#002D6B"/>
<path opacity="0.5" d="M274.977 114.089C280.146 114.089 284.337 109.751 284.337 104.401C284.337 99.0511 280.146 94.7139 274.977 94.7139C269.808 94.7139 265.617 99.0511 265.617 104.401C265.617 109.751 269.808 114.089 274.977 114.089Z" fill="white"/>
<path d="M277.756 98.9233L269.691 107.271L272.203 109.87L280.269 101.523L277.756 98.9233Z" fill="white"/>
<path d="M269.697 101.527L277.762 109.874L280.274 107.274L272.209 98.9269L269.697 101.527Z" fill="white"/>
<path d="M318.191 30.4316V56.4088L323.493 50.9334V30.4316H318.191Z" fill="#006CFF"/>
<path d="M328.783 30.4316V56.4088L323.492 50.9334V30.4316H328.783Z" fill="#006CFF"/>
<g opacity="0.3">
<path d="M328.794 30.4199V56.4199L323.493 50.9216L318.191 56.4199V30.4199H328.794Z" fill="black"/>
</g>
<path d="M326.079 4.45407C326.441 5.16693 327.057 5.70525 327.797 5.9541C328.537 6.20295 329.342 6.1426 330.039 5.78594C330.529 5.53826 331.075 5.4335 331.619 5.48293C332.162 5.53236 332.683 5.73411 333.124 6.06651C333.565 6.3989 333.91 6.84938 334.122 7.36954C334.334 7.88971 334.406 8.4599 334.328 9.01887C334.225 9.81594 334.423 10.6235 334.879 11.2742C335.336 11.9248 336.017 12.3687 336.781 12.5136C337.319 12.6086 337.821 12.8539 338.234 13.223C338.647 13.5922 338.954 14.071 339.123 14.6079C339.292 15.1447 339.315 15.7191 339.191 16.2689C339.068 16.8187 338.801 17.323 338.42 17.7273C337.88 18.3065 337.579 19.0798 337.579 19.8844C337.579 20.6891 337.88 21.4624 338.42 22.0416C338.8 22.4471 339.066 22.9522 339.19 23.5025C339.313 24.0528 339.289 24.6275 339.121 25.1648C338.952 25.7021 338.645 26.1818 338.233 26.5521C337.821 26.9224 337.319 27.1695 336.781 27.2667C336.022 27.4167 335.347 27.8631 334.897 28.5136C334.446 29.1641 334.255 29.9688 334.361 30.7614C334.436 31.3195 334.363 31.8882 334.15 32.4066C333.937 32.925 333.592 33.3737 333.151 33.7046C332.71 34.0355 332.191 34.2362 331.649 34.2852C331.106 34.3343 330.561 34.2298 330.072 33.9829C329.374 33.6322 328.571 33.575 327.833 33.8233C327.095 34.0716 326.478 34.6061 326.112 35.3148C325.857 35.8125 325.475 36.2287 325.008 36.519C324.541 36.8092 324.006 36.9626 323.462 36.9626C322.917 36.9626 322.383 36.8092 321.916 36.519C321.449 36.2287 321.067 35.8125 320.811 35.3148C320.441 34.5869 319.809 34.0392 319.051 33.7899C318.294 33.5407 317.472 33.61 316.763 33.9829C316.274 34.2298 315.729 34.3343 315.187 34.2852C314.644 34.2362 314.125 34.0355 313.685 33.7046C313.244 33.3737 312.899 32.925 312.685 32.4066C312.472 31.8882 312.399 31.3195 312.474 30.7614C312.583 29.9634 312.388 29.1529 311.93 28.5009C311.473 27.8489 310.788 27.4063 310.021 27.2667C309.484 27.1695 308.982 26.9224 308.569 26.5521C308.157 26.1818 307.85 25.7021 307.682 25.1648C307.513 24.6275 307.49 24.0528 307.613 23.5025C307.736 22.9522 308.002 22.4471 308.382 22.0416C308.922 21.4624 309.224 20.6891 309.224 19.8844C309.224 19.0798 308.922 18.3065 308.382 17.7273C308.005 17.3214 307.742 16.8173 307.62 16.2686C307.499 15.7199 307.523 15.1472 307.692 14.6119C307.86 14.0765 308.165 13.5986 308.576 13.229C308.986 12.8594 309.486 12.6122 310.021 12.5136C310.787 12.3713 311.47 11.9281 311.927 11.2768C312.384 10.6254 312.58 9.81639 312.474 9.01887C312.397 8.4599 312.468 7.88971 312.68 7.36954C312.893 6.84938 313.238 6.3989 313.679 6.06651C314.12 5.73411 314.64 5.53236 315.183 5.48293C315.727 5.4335 316.273 5.53826 316.763 5.78594C317.463 6.14018 318.268 6.19929 319.009 5.95079C319.75 5.70229 320.368 5.16564 320.734 4.45407C320.986 3.94485 321.369 3.51748 321.84 3.21905C322.312 2.92061 322.854 2.7627 323.407 2.7627C323.959 2.7627 324.501 2.92061 324.973 3.21905C325.445 3.51748 325.828 3.94485 326.079 4.45407Z" fill="#006CFF"/>
<path d="M326.079 4.45407C326.441 5.16693 327.057 5.70525 327.797 5.9541C328.537 6.20295 329.342 6.1426 330.039 5.78594C330.529 5.53826 331.075 5.4335 331.619 5.48293C332.162 5.53236 332.683 5.73411 333.124 6.06651C333.565 6.3989 333.91 6.84938 334.122 7.36954C334.334 7.88971 334.406 8.4599 334.328 9.01887C334.225 9.81594 334.423 10.6235 334.879 11.2742C335.336 11.9248 336.017 12.3687 336.781 12.5136C337.319 12.6086 337.821 12.8539 338.234 13.223C338.647 13.5922 338.954 14.071 339.123 14.6079C339.292 15.1447 339.315 15.7191 339.191 16.2689C339.068 16.8187 338.801 17.323 338.42 17.7273C337.88 18.3065 337.579 19.0798 337.579 19.8844C337.579 20.6891 337.88 21.4624 338.42 22.0416C338.8 22.4471 339.066 22.9522 339.19 23.5025C339.313 24.0528 339.289 24.6275 339.121 25.1648C338.952 25.7021 338.645 26.1818 338.233 26.5521C337.821 26.9224 337.319 27.1695 336.781 27.2667C336.022 27.4167 335.347 27.8631 334.897 28.5136C334.446 29.1641 334.255 29.9688 334.361 30.7614C334.436 31.3195 334.363 31.8882 334.15 32.4066C333.937 32.925 333.592 33.3737 333.151 33.7046C332.71 34.0355 332.191 34.2362 331.649 34.2852C331.106 34.3343 330.561 34.2298 330.072 33.9829C329.374 33.6322 328.571 33.575 327.833 33.8233C327.095 34.0716 326.478 34.6061 326.112 35.3148C325.857 35.8125 325.475 36.2287 325.008 36.519C324.541 36.8092 324.006 36.9626 323.462 36.9626C322.917 36.9626 322.383 36.8092 321.916 36.519C321.449 36.2287 321.067 35.8125 320.811 35.3148C320.441 34.5869 319.809 34.0392 319.051 33.7899C318.294 33.5407 317.472 33.61 316.763 33.9829C316.274 34.2298 315.729 34.3343 315.187 34.2852C314.644 34.2362 314.125 34.0355 313.685 33.7046C313.244 33.3737 312.899 32.925 312.685 32.4066C312.472 31.8882 312.399 31.3195 312.474 30.7614C312.583 29.9634 312.388 29.1529 311.93 28.5009C311.473 27.8489 310.788 27.4063 310.021 27.2667C309.484 27.1695 308.982 26.9224 308.569 26.5521C308.157 26.1818 307.85 25.7021 307.682 25.1648C307.513 24.6275 307.49 24.0528 307.613 23.5025C307.736 22.9522 308.002 22.4471 308.382 22.0416C308.922 21.4624 309.224 20.6891 309.224 19.8844C309.224 19.0798 308.922 18.3065 308.382 17.7273C308.005 17.3214 307.742 16.8173 307.62 16.2686C307.499 15.7199 307.523 15.1472 307.692 14.6119C307.86 14.0765 308.165 13.5986 308.576 13.229C308.986 12.8594 309.486 12.6122 310.021 12.5136C310.787 12.3713 311.47 11.9281 311.927 11.2768C312.384 10.6254 312.58 9.81639 312.474 9.01887C312.397 8.4599 312.468 7.88971 312.68 7.36954C312.893 6.84938 313.238 6.3989 313.679 6.06651C314.12 5.73411 314.64 5.53236 315.183 5.48293C315.727 5.4335 316.273 5.53826 316.763 5.78594C317.463 6.14018 318.268 6.19929 319.009 5.95079C319.75 5.70229 320.368 5.16564 320.734 4.45407C320.986 3.94485 321.369 3.51748 321.84 3.21905C322.312 2.92061 322.854 2.7627 323.407 2.7627C323.959 2.7627 324.501 2.92061 324.973 3.21905C325.445 3.51748 325.828 3.94485 326.079 4.45407Z" fill="#006CFF"/>
<g opacity="0.5">
<path d="M326.079 4.45407C326.441 5.16693 327.057 5.70525 327.797 5.9541C328.537 6.20295 329.342 6.1426 330.039 5.78594C330.529 5.53826 331.075 5.4335 331.619 5.48293C332.162 5.53236 332.683 5.73411 333.124 6.06651C333.565 6.3989 333.91 6.84938 334.122 7.36954C334.334 7.88971 334.406 8.4599 334.328 9.01887C334.225 9.81594 334.423 10.6235 334.879 11.2742C335.336 11.9248 336.017 12.3687 336.781 12.5136C337.319 12.6086 337.821 12.8539 338.234 13.223C338.647 13.5922 338.954 14.071 339.123 14.6079C339.292 15.1447 339.315 15.7191 339.191 16.2689C339.068 16.8187 338.801 17.323 338.42 17.7273C337.88 18.3065 337.579 19.0798 337.579 19.8844C337.579 20.6891 337.88 21.4624 338.42 22.0416C338.8 22.4471 339.066 22.9522 339.19 23.5025C339.313 24.0528 339.289 24.6275 339.121 25.1648C338.952 25.7021 338.645 26.1818 338.233 26.5521C337.821 26.9224 337.319 27.1695 336.781 27.2667C336.022 27.4167 335.347 27.8631 334.897 28.5136C334.446 29.1641 334.255 29.9688 334.361 30.7614C334.436 31.3195 334.363 31.8882 334.15 32.4066C333.937 32.925 333.592 33.3737 333.151 33.7046C332.71 34.0355 332.191 34.2362 331.649 34.2852C331.106 34.3343 330.561 34.2298 330.072 33.9829C329.374 33.6322 328.571 33.575 327.833 33.8233C327.095 34.0716 326.478 34.6061 326.112 35.3148C325.857 35.8125 325.475 36.2287 325.008 36.519C324.541 36.8092 324.006 36.9626 323.462 36.9626C322.917 36.9626 322.383 36.8092 321.916 36.519C321.449 36.2287 321.067 35.8125 320.811 35.3148C320.441 34.5869 319.809 34.0392 319.051 33.7899C318.294 33.5407 317.472 33.61 316.763 33.9829C316.274 34.2298 315.729 34.3343 315.187 34.2852C314.644 34.2362 314.125 34.0355 313.685 33.7046C313.244 33.3737 312.899 32.925 312.685 32.4066C312.472 31.8882 312.399 31.3195 312.474 30.7614C312.583 29.9634 312.388 29.1529 311.93 28.5009C311.473 27.8489 310.788 27.4063 310.021 27.2667C309.484 27.1695 308.982 26.9224 308.569 26.5521C308.157 26.1818 307.85 25.7021 307.682 25.1648C307.513 24.6275 307.49 24.0528 307.613 23.5025C307.736 22.9522 308.002 22.4471 308.382 22.0416C308.922 21.4624 309.224 20.6891 309.224 19.8844C309.224 19.0798 308.922 18.3065 308.382 17.7273C308.005 17.3214 307.742 16.8173 307.62 16.2686C307.499 15.7199 307.523 15.1472 307.692 14.6119C307.86 14.0765 308.165 13.5986 308.576 13.229C308.986 12.8594 309.486 12.6122 310.021 12.5136C310.787 12.3713 311.47 11.9281 311.927 11.2768C312.384 10.6254 312.58 9.81639 312.474 9.01887C312.397 8.4599 312.468 7.88971 312.68 7.36954C312.893 6.84938 313.238 6.3989 313.679 6.06651C314.12 5.73411 314.64 5.53236 315.183 5.48293C315.727 5.4335 316.273 5.53826 316.763 5.78594C317.463 6.14018 318.268 6.19929 319.009 5.95079C319.75 5.70229 320.368 5.16564 320.734 4.45407C320.986 3.94485 321.369 3.51748 321.84 3.21905C322.312 2.92061 322.854 2.7627 323.407 2.7627C323.959 2.7627 324.501 2.92061 324.973 3.21905C325.445 3.51748 325.828 3.94485 326.079 4.45407Z" fill="white"/>
</g>
<path d="M318.667 16.6689H317.303C317 16.6699 316.707 16.7866 316.482 16.9967C316.257 17.2067 316.114 17.4953 316.082 17.8073L315.752 24.3187C315.743 24.4738 315.765 24.6292 315.816 24.7753C315.867 24.9214 315.947 25.0551 316.05 25.1681C316.153 25.2812 316.277 25.3712 316.415 25.4326C316.553 25.4941 316.702 25.5256 316.852 25.5253H318.216C318.529 25.5202 318.828 25.3931 319.054 25.1694C319.281 24.9458 319.417 24.6419 319.437 24.3187L319.767 17.8073C319.767 17.5054 319.651 17.2158 319.444 17.0024C319.238 16.7889 318.958 16.6689 318.667 16.6689Z" fill="white"/>
<path d="M329.544 16.6685H326.344L327.235 14.4943C327.336 14.2666 327.374 14.0144 327.345 13.7657L327.158 12.0582C327.123 11.7271 326.971 11.421 326.731 11.1985C326.492 10.9759 326.182 10.8524 325.86 10.8516H324.265C324.167 12.5575 323.564 14.1908 322.538 15.5302L321.559 16.8051C321.308 17.131 321.159 17.5279 321.13 17.9435L320.822 24.0223C320.812 24.2143 320.84 24.4064 320.903 24.587C320.967 24.7675 321.066 24.9327 321.194 25.0723C321.321 25.212 321.475 25.3231 321.646 25.399C321.817 25.4749 322.001 25.5138 322.186 25.5135H327.763C328.01 25.5108 328.254 25.4547 328.48 25.3488C328.705 25.243 328.907 25.0897 329.072 24.8988L329.588 24.3069C329.769 24.0693 329.897 23.7933 329.962 23.4987L331.062 18.5924C331.11 18.3673 331.112 18.1341 331.066 17.9085C331.021 17.6828 330.929 17.4697 330.798 17.2833C330.65 17.0871 330.459 16.9294 330.242 16.8227C330.024 16.716 329.785 16.6632 329.544 16.6685Z" fill="white"/>
<path d="M274.977 56.4082L276.748 59.3451L279.993 60.1761L277.848 62.8285L278.079 66.2663L274.977 64.98L271.886 66.2663L272.117 62.8285L269.973 60.1761L273.217 59.3451L274.977 56.4082Z" fill="white"/>
<path d="M260.252 219.682C260.252 221.799 258.614 223.211 256.051 223.439L255.71 225.18H254.17L254.511 223.439C253.252 223.35 252.036 222.927 250.98 222.209L252.003 220.24C252.859 220.874 253.86 221.266 254.907 221.378L255.435 218.692C254.005 218.248 252.432 217.656 252.432 215.732C252.432 213.615 254.115 212.192 256.722 211.998L257.063 210.245H258.603L258.262 212.01C259.258 212.091 260.224 212.402 261.088 212.92L260.153 214.89C259.462 214.43 258.673 214.148 257.855 214.07L257.327 216.859C258.735 217.28 260.252 217.849 260.252 219.682ZM255.853 216.404L256.293 214.127C255.424 214.298 254.929 214.799 254.918 215.402C254.907 216.005 255.314 216.165 255.864 216.404H255.853ZM257.756 220.092C257.756 219.637 257.404 219.352 256.865 219.147L256.447 221.321C257.294 221.151 257.767 220.695 257.767 220.092H257.756Z" fill="white"/>
<path d="M182.314 30.8867H117.971C106.654 30.8867 97.4805 40.3816 97.4805 52.0942V232.842C97.4805 244.554 106.654 254.049 117.971 254.049H182.314C193.631 254.049 202.805 244.554 202.805 232.842V52.0942C202.805 40.3816 193.631 30.8867 182.314 30.8867Z" fill="#002D6B"/>
<path opacity="0.7" d="M181.995 30.8867H118.29C106.797 30.8867 97.4805 40.5294 97.4805 52.4244V232.512C97.4805 244.407 106.797 254.049 118.29 254.049H181.995C193.488 254.049 202.805 244.407 202.805 232.512V52.4244C202.805 40.5294 193.488 30.8867 181.995 30.8867Z" fill="white"/>
<path d="M202.805 41.8377V86.1082H97.4805V41.8377C97.4805 38.9333 98.5952 36.1479 100.58 34.0942C102.564 32.0405 105.255 30.8867 108.061 30.8867H192.224C195.03 30.8867 197.721 32.0405 199.706 34.0942C201.69 36.1479 202.805 38.9333 202.805 41.8377Z" fill="#006CFF"/>
<path d="M202.805 41.8377V86.1082H97.4805V41.8377C97.4805 38.9333 98.5952 36.1479 100.58 34.0942C102.564 32.0405 105.255 30.8867 108.061 30.8867H192.224C195.03 30.8867 197.721 32.0405 199.706 34.0942C201.69 36.1479 202.805 38.9333 202.805 41.8377Z" fill="#006CFF"/>
<path d="M155.195 162.012C158.851 158.229 158.851 152.095 155.195 148.312C151.54 144.529 145.614 144.529 141.958 148.312C138.303 152.095 138.303 158.229 141.958 162.012C145.614 165.795 151.54 165.795 155.195 162.012Z" fill="#002D6B"/>
<path opacity="0.5" d="M155.195 162.012C158.851 158.229 158.851 152.095 155.195 148.312C151.54 144.529 145.614 144.529 141.958 148.312C138.303 152.095 138.303 158.229 141.958 162.012C145.614 165.795 151.54 165.795 155.195 162.012Z" fill="white"/>
<path d="M151.346 149.688L143.281 158.035L145.793 160.635L153.858 152.288L151.346 149.688Z" fill="white"/>
<path d="M143.283 152.298L151.348 160.646L153.86 158.046L145.795 149.698L143.283 152.298Z" fill="white"/>
<path d="M149.01 200.752C154.234 200.752 158.469 196.368 158.469 190.962C158.469 185.555 154.234 181.172 149.01 181.172C143.786 181.172 139.551 185.555 139.551 190.962C139.551 196.368 143.786 200.752 149.01 200.752Z" fill="#006CFF"/>
<path d="M155.784 188.844L150.339 194.479L147.799 197.109L145.258 194.479L147.799 191.85L153.243 186.215L155.784 188.844Z" fill="white"/>
<path d="M150.341 194.479L147.8 197.109L142.422 191.531L144.952 188.901L147.8 191.85L150.341 194.479Z" fill="white"/>
<path d="M172.128 218.942H128.155C122.178 218.942 117.332 223.957 117.332 230.144V230.998C117.332 237.184 122.178 242.199 128.155 242.199H172.128C178.105 242.199 182.951 237.184 182.951 230.998V230.144C182.951 223.957 178.105 218.942 172.128 218.942Z" fill="#006CFF"/>
<path d="M131.556 232.774C131.556 234.891 129.918 236.303 127.344 236.519L127.014 238.272H125.474L125.815 236.519C124.553 236.437 123.332 236.017 122.273 235.301L123.307 233.332C124.163 233.966 125.164 234.358 126.211 234.47L126.728 231.783C125.309 231.34 123.736 230.748 123.736 228.824C123.736 226.706 125.408 225.272 128.026 225.09L128.367 223.337H129.896L129.566 225.101C130.562 225.183 131.528 225.494 132.392 226.012L131.446 227.981C130.76 227.518 129.975 227.233 129.159 227.15L128.62 229.951C130.039 230.372 131.556 230.941 131.556 232.774ZM127.157 229.495L127.597 227.219C126.717 227.389 126.233 227.879 126.211 228.494C126.189 229.108 126.607 229.256 127.168 229.541L127.157 229.495ZM129.06 233.184C129.06 232.728 128.708 232.432 128.169 232.227L127.751 234.413C128.587 234.231 129.071 233.787 129.071 233.184H129.06Z" fill="white"/>
<path d="M176.199 171.359H121.832V173.636H176.199V171.359Z" fill="#006CFF"/>
<path d="M176.199 133.976H121.832V136.252H176.199V133.976Z" fill="#006CFF"/>
<path d="M176.199 97.9473H121.832V100.224H176.199V97.9473Z" fill="#006CFF"/>
<path d="M155.199 123.951C158.854 120.167 158.854 114.034 155.199 110.251C151.544 106.467 145.618 106.467 141.962 110.251C138.307 114.034 138.307 120.167 141.962 123.951C145.618 127.734 151.544 127.734 155.199 123.951Z" fill="#002D6B"/>
<path opacity="0.5" d="M155.199 123.951C158.854 120.167 158.854 114.034 155.199 110.251C151.544 106.467 145.618 106.467 141.962 110.251C138.307 114.034 138.307 120.167 141.962 123.951C145.618 127.734 151.544 127.734 155.199 123.951Z" fill="white"/>
<path d="M151.35 111.626L143.285 119.974L145.797 122.574L153.862 114.226L151.35 111.626Z" fill="white"/>
<path d="M143.287 114.227L151.352 122.574L153.864 119.974L145.799 111.627L143.287 114.227Z" fill="white"/>
<path d="M286.066 403.845L294.502 405.439L300.882 389.331L291.665 385.518L286.066 403.845Z" fill="#FFC2BC"/>
<path opacity="0.1" d="M289.094 393.622L291.502 386.132L295.748 387.202L300.884 389.331L298.135 396.343L289.094 393.622Z" fill="black"/>
<path d="M284.419 400.817C284.419 400.817 284.089 400.509 283.66 400.157C283.231 399.804 282.967 399.61 282.561 399.314C281.774 398.698 280.845 398.305 279.866 398.176C279.561 398.182 279.266 398.294 279.03 398.495C278.892 398.598 278.791 398.745 278.741 398.913C278.691 399.082 278.696 399.263 278.755 399.428C279.435 400.168 280.339 400.646 281.318 400.783L282.099 400.953C282.826 401.09 283.561 401.185 284.298 401.238C284.342 401.238 284.385 401.225 284.422 401.201C284.459 401.177 284.489 401.142 284.507 401.101C284.531 401.051 284.535 400.994 284.518 400.941C284.502 400.888 284.467 400.843 284.419 400.817ZM282.66 400.589C281.076 400.316 279.36 399.804 279.173 399.223C279.173 399.143 279.107 398.995 279.349 398.768C279.417 398.704 279.497 398.654 279.584 398.623C279.671 398.592 279.763 398.579 279.855 398.586C280.007 398.588 280.158 398.607 280.306 398.642C281.325 399.05 282.276 399.622 283.121 400.339C283.286 400.464 283.44 400.6 283.594 400.737C283.297 400.703 282.978 400.646 282.671 400.589H282.66Z" fill="#006CFF"/>
<path d="M283.989 397.231C283.715 396.876 283.322 396.641 282.889 396.57C282.262 396.468 281.998 396.718 281.899 396.957C281.657 397.47 282.031 398.426 282.581 399.314C282.795 399.655 283.03 399.982 283.285 400.293C283.542 400.61 283.83 400.9 284.143 401.158C284.175 401.171 284.21 401.171 284.242 401.158C284.278 401.169 284.316 401.169 284.352 401.158C284.387 401.146 284.418 401.125 284.443 401.097C284.468 401.069 284.486 401.035 284.495 400.999C284.544 400.663 284.573 400.325 284.583 399.986C284.681 399.025 284.473 398.057 283.989 397.231ZM284.088 400.498C283.978 400.384 283.857 400.27 283.747 400.133C282.878 399.143 282.064 397.618 282.273 397.094C282.273 397.094 282.361 396.889 282.779 396.957H282.9C283.174 397.025 283.417 397.186 283.593 397.413C284.011 398.214 284.198 399.123 284.132 400.031C284.121 400.213 284.11 400.35 284.088 400.498Z" fill="#006CFF"/>
<path d="M285.529 400.179L295.725 402.706C295.906 402.743 296.068 402.844 296.184 402.992C296.301 403.139 296.364 403.324 296.363 403.515L296.055 411.916C296.03 412.286 295.864 412.631 295.594 412.876C295.325 413.121 294.973 413.247 294.614 413.225C294.516 413.237 294.416 413.237 294.317 413.225C290.655 412.257 287.443 411.255 282.857 410.128C277.456 408.797 278.666 409.753 272.298 408.273C268.459 407.374 268.877 403.036 270.56 403.23C278.259 404.175 279.568 402.228 283.121 400.395C283.876 400.041 284.726 399.964 285.529 400.179Z" fill="#002D6B"/>
<path d="M346.781 405.427H354.854L357.241 391.584L347.364 389.672L346.781 405.427Z" fill="#FFC2BC"/>
<path opacity="0.1" d="M347.365 389.672L357.242 391.584L355.636 400.907L347.035 400.543L347.365 389.672Z" fill="black"/>
<path d="M358.979 398.358L344.483 397.504L344.043 391.585L360.266 392.735L358.979 398.358Z" fill="#006CFF"/>
<path opacity="0.5" d="M358.979 398.358L344.483 397.504L344.043 391.585L360.266 392.735L358.979 398.358Z" fill="white"/>
<path d="M345.604 405.643C345.604 405.643 345.23 405.426 344.746 405.176C344.262 404.926 344.02 404.823 343.58 404.652C342.721 404.218 341.758 404.048 340.808 404.163C340.528 404.236 340.287 404.42 340.137 404.675C340.043 404.818 339.992 404.986 339.992 405.159C339.992 405.332 340.043 405.5 340.137 405.643C340.909 406.203 341.852 406.45 342.788 406.337H343.525C344.193 406.294 344.857 406.21 345.516 406.087C345.556 406.074 345.593 406.05 345.622 406.018C345.651 405.986 345.671 405.947 345.681 405.905C345.695 405.858 345.696 405.808 345.682 405.761C345.668 405.714 345.641 405.673 345.604 405.643ZM343.943 405.859C342.447 405.973 340.83 405.859 340.478 405.381C340.412 405.301 340.357 405.176 340.478 404.903C340.52 404.82 340.58 404.749 340.652 404.694C340.724 404.638 340.808 404.601 340.896 404.584C341.031 404.567 341.168 404.567 341.303 404.584C342.338 404.734 343.342 405.061 344.273 405.552C344.457 405.62 344.634 405.708 344.801 405.814L343.943 405.859Z" fill="#006CFF"/>
<path d="M345.738 405.848C345.705 405.507 345.654 405.169 345.584 404.835C345.422 403.858 344.981 402.955 344.319 402.239C344.158 402.098 343.97 401.992 343.767 401.93C343.565 401.867 343.352 401.848 343.142 401.875C342.537 401.932 342.361 402.239 342.339 402.501C342.24 403.07 342.834 403.924 343.582 404.653C343.841 404.925 344.121 405.176 344.418 405.404C344.726 405.656 345.062 405.87 345.419 406.042C345.447 406.053 345.478 406.053 345.507 406.042C345.542 406.053 345.581 406.053 345.617 406.042C345.652 406.024 345.683 405.997 345.704 405.963C345.725 405.929 345.737 405.889 345.738 405.848ZM342.735 402.57C342.735 402.513 342.735 402.353 343.164 402.308H343.274C343.549 402.303 343.816 402.404 344.022 402.592C344.589 403.281 344.968 404.114 345.122 405.006C345.154 405.148 345.176 405.292 345.188 405.438L344.792 405.165C343.791 404.38 342.691 403.093 342.735 402.57Z" fill="#006CFF"/>
<path d="M346.462 404.743L356.295 404.687C356.474 404.687 356.648 404.75 356.788 404.866C356.928 404.982 357.025 405.143 357.065 405.324L358.891 413.588C358.93 413.762 358.936 413.942 358.908 414.117C358.88 414.293 358.819 414.461 358.728 414.612C358.637 414.764 358.518 414.895 358.378 414.998C358.238 415.102 358.08 415.176 357.912 415.216H357.637C354.095 415.216 350.939 414.989 346.528 415.023C341.326 415.023 342.646 415.683 336.53 415.808C332.846 415.888 332.131 411.551 333.715 411.335C340.864 410.356 341.59 408.113 344.34 405.449C344.942 404.956 345.696 404.706 346.462 404.743Z" fill="#002D6B"/>
<path d="M328.578 200.922L290.5 385.335L304.534 389.194C315.027 365.425 323.826 341.099 330.381 322.031C333.494 313.004 334.781 304.512 337.124 296.555C339.961 287.095 343.778 278.398 345.714 270.452C355.888 228.857 355.074 208.025 355.074 208.025L357.273 202.538L328.578 200.922Z" fill="#002D6B"/>
<path opacity="0.3" d="M351.962 240.502C350.587 248.892 348.596 258.909 345.747 270.543C344.823 274.323 338.631 292.525 337.157 296.646C335.442 270.008 341.326 224.93 341.326 224.93L351.962 240.502Z" fill="black"/>
<path d="M340.271 201.867L343.142 303.18L345.661 391.971L358.859 392.916C362.544 371.185 365.249 351.48 367.185 333.722C368.461 322.122 366.305 313.641 366.987 303.704C367.108 302.053 367.229 300.357 367.372 298.627C369.707 270.172 369.866 241.571 367.845 213.091C367.46 207.661 367.196 203.984 367.196 203.984L340.238 200.421L340.271 201.867Z" fill="#002D6B"/>
<path d="M302.677 394.385L288.797 389.957L289.743 384.105L305.229 389.251L302.677 394.385Z" fill="#006CFF"/>
<path opacity="0.5" d="M302.677 394.385L288.797 389.957L289.743 384.105L305.229 389.251L302.677 394.385Z" fill="white"/>
<path d="M338.38 137.607C335.794 141.57 333.865 145.952 332.672 150.573C332.084 152.655 331.621 154.772 331.286 156.913L330.329 159.634L321.838 156.139L320.496 155.593C322.564 145.951 330.571 137.231 336.51 137.379C337.141 137.359 337.771 137.436 338.38 137.607Z" fill="#006CFF"/>
<path opacity="0.2" d="M338.38 137.607C335.794 141.57 333.865 145.952 332.672 150.573C332.084 152.655 331.621 154.772 331.286 156.913L330.329 159.634L321.838 156.139L320.496 155.593C322.564 145.951 330.571 137.231 336.51 137.379C337.141 137.359 337.771 137.436 338.38 137.607Z" fill="white"/>
<path d="M327.766 200.057C328.788 197.689 328.656 193.079 332.033 192.202C336.521 191.064 340.216 190.723 357.88 192.271C366.217 193.011 368.065 199.898 367.779 203.438C367.746 203.909 367.59 204.361 367.328 204.747L366.976 205.271C366.151 205.601 328.349 201.264 327.975 201.503C327.816 201.304 327.712 201.065 327.675 200.81C327.638 200.555 327.67 200.295 327.766 200.057Z" fill="#006CFF"/>
<path opacity="0.2" d="M327.766 200.057C328.788 197.689 328.656 193.079 332.033 192.202C336.521 191.064 340.216 190.723 357.88 192.271C366.217 193.011 368.065 199.898 367.779 203.438C367.746 203.909 367.59 204.361 367.328 204.747L366.976 205.271C366.151 205.601 328.349 201.264 327.975 201.503C327.816 201.304 327.712 201.065 327.675 200.81C327.638 200.555 327.67 200.295 327.766 200.057Z" fill="white"/>
<path d="M336.959 137.539C336.717 138.005 329.204 138.814 329.798 172.828C329.875 177.21 328.798 186.488 328.798 186.488L327.698 189.322C327.256 190.473 327.061 191.709 327.125 192.945C327.19 194.181 327.513 195.388 328.072 196.482L328.622 197.541L366.71 201.548H367.81C367.81 201.548 370.263 180.967 373.54 167.204C374.64 162.719 375.74 157.209 375.74 157.209C374.967 152.023 374.599 146.781 374.64 141.534C374.64 141.534 374.64 141.477 374.64 141.466C370.025 140.05 365.316 138.985 360.551 138.279C355.49 137.48 350.382 137.05 345.263 136.992C340.5 137.254 336.97 137.527 336.959 137.539Z" fill="#006CFF"/>
<path d="M360.509 120.486C359.145 125.506 357.44 134.761 360.619 138.45L358.21 141.056C357.249 142.076 356.038 142.805 354.708 143.166C353.377 143.527 351.976 143.507 350.656 143.107C349.335 142.707 348.145 141.942 347.213 140.895C346.28 139.848 345.641 138.558 345.363 137.163C350.94 136.253 349.763 130.458 350.775 124.869L360.509 120.486Z" fill="#FFC2BC"/>
<path opacity="0.2" d="M347.812 119.12C348.912 123.127 350.54 129.57 349.374 134.021C354.379 134.476 357.7 129.775 357.909 128.272C357.294 126.503 356.808 124.688 356.458 122.843L347.812 119.12Z" fill="black"/>
<path d="M361.983 112.643C361.378 121.181 361.312 124.801 357.099 129.126C350.764 135.649 340.766 133.019 338.885 124.482C337.191 116.787 338.456 104.139 346.584 100.827C348.369 100.096 350.303 99.8486 352.206 100.107C354.108 100.366 355.915 101.122 357.457 102.305C358.998 103.488 360.223 105.058 361.014 106.867C361.806 108.676 362.14 110.664 361.983 112.643Z" fill="#FFC2BC"/>
<path d="M366.742 108.681C365.903 111.909 365.348 115.208 365.081 118.539H361.936C361.652 118.831 361.454 119.199 361.362 119.601C361.271 120.004 361.291 120.425 361.419 120.816C360.888 120.576 360.437 120.18 360.121 119.678C359.894 119.184 359.781 118.642 359.791 118.095C359.713 115.999 359.496 113.911 359.142 111.846C357.525 111.163 355.656 111.345 354.149 110.434C350.756 108.434 347.807 105.72 345.493 102.466C344.241 103.073 343.128 103.948 342.228 105.033C341.327 106.118 340.659 107.389 340.268 108.761C339.902 108.835 339.523 108.796 339.179 108.648C338.835 108.5 338.54 108.25 338.332 107.93C337.933 107.278 337.709 106.527 337.684 105.756C337.463 103.744 337.964 101.719 339.091 100.064C339.923 98.928 341.136 98.1562 342.49 97.901C343.065 97.9112 343.639 97.8384 344.195 97.6847C344.767 97.4115 345.295 96.7058 345.845 96.3415C347.123 95.6109 348.528 95.1484 349.979 94.9804C351.431 94.8124 352.9 94.9423 354.303 95.3625C357.784 96.537 360.937 98.5728 363.487 101.293C364.928 102.762 367.281 106.712 366.742 108.681Z" fill="#002D6B"/>
<path d="M364.852 120.85C364.046 122.28 362.725 123.319 361.179 123.742C359.133 124.277 358.154 122.376 358.759 120.395C359.309 118.608 361.047 116.217 363.071 116.513C363.779 116.644 364.409 117.06 364.821 117.67C365.234 118.281 365.395 119.035 365.27 119.769C365.208 120.156 365.065 120.525 364.852 120.85Z" fill="#FFC2BC"/>
<path d="M349.212 114.783C349.212 115.534 348.805 116.114 348.343 116.126C347.881 116.137 347.496 115.511 347.496 114.771C347.496 114.031 347.903 113.439 348.365 113.428C348.827 113.417 349.212 114.043 349.212 114.783Z" fill="#002D6B"/>
<path d="M341.052 114.691C341.052 115.443 340.645 116.023 340.172 116.035C339.699 116.046 339.325 115.42 339.336 114.669C339.347 113.917 339.732 113.337 340.205 113.325C340.678 113.314 341.085 113.929 341.052 114.691Z" fill="#002D6B"/>
<path d="M344.262 116.24C343.596 117.938 342.712 119.535 341.633 120.987C341.999 121.259 342.418 121.445 342.86 121.534C343.302 121.622 343.758 121.61 344.196 121.499L344.262 116.24Z" fill="#EC837E"/>
<path d="M346.759 124.026C346.352 124.207 345.928 124.345 345.494 124.436C345.446 124.446 345.396 124.437 345.355 124.409C345.314 124.381 345.285 124.338 345.274 124.288C345.27 124.241 345.282 124.193 345.308 124.153C345.334 124.114 345.373 124.085 345.417 124.072C346.306 123.903 347.144 123.519 347.863 122.951C348.582 122.383 349.161 121.648 349.553 120.805C349.563 120.758 349.591 120.718 349.63 120.692C349.669 120.667 349.717 120.658 349.762 120.668C349.782 120.671 349.802 120.678 349.819 120.689C349.837 120.699 349.852 120.714 349.865 120.731C349.877 120.748 349.886 120.767 349.891 120.787C349.896 120.808 349.897 120.829 349.894 120.85C349.292 122.294 348.166 123.435 346.759 124.026Z" fill="#002D6B"/>
<path d="M352.069 110.559C352.022 110.576 351.971 110.578 351.922 110.566C351.874 110.554 351.829 110.528 351.794 110.491C351.467 110.143 351.063 109.881 350.617 109.728C350.17 109.576 349.695 109.537 349.232 109.614C349.15 109.628 349.067 109.611 348.998 109.564C348.929 109.518 348.879 109.446 348.858 109.364C348.842 109.328 348.833 109.29 348.832 109.25C348.831 109.211 348.838 109.172 348.853 109.135C348.867 109.099 348.889 109.066 348.916 109.039C348.944 109.012 348.976 108.99 349.012 108.977C349.571 108.878 350.145 108.92 350.685 109.101C351.225 109.281 351.715 109.594 352.113 110.013C352.173 110.069 352.213 110.145 352.225 110.228C352.237 110.311 352.221 110.396 352.179 110.468C352.169 110.491 352.153 110.511 352.134 110.526C352.115 110.542 352.093 110.553 352.069 110.559Z" fill="#002D6B"/>
<path d="M338.895 110.958C338.838 110.982 338.775 110.988 338.715 110.976C338.654 110.964 338.598 110.934 338.554 110.89C338.522 110.857 338.497 110.818 338.479 110.775C338.462 110.732 338.453 110.686 338.453 110.639C338.453 110.593 338.462 110.547 338.479 110.504C338.497 110.461 338.522 110.422 338.554 110.389C338.97 109.856 339.504 109.436 340.112 109.165C340.719 108.893 341.381 108.778 342.04 108.829C342.085 108.832 342.128 108.844 342.168 108.865C342.208 108.885 342.243 108.914 342.272 108.949C342.301 108.984 342.322 109.025 342.335 109.069C342.349 109.113 342.353 109.159 342.348 109.205C342.335 109.301 342.286 109.387 342.212 109.446C342.138 109.506 342.045 109.533 341.952 109.524C341.408 109.489 340.864 109.591 340.366 109.821C339.869 110.051 339.432 110.402 339.093 110.844C339.037 110.898 338.969 110.938 338.895 110.958Z" fill="#002D6B"/>
<path d="M359.278 135.729L362.325 138.7C362.325 138.7 351.326 146.668 351.139 146.156C350.381 145.057 349.554 144.011 348.664 143.025L359.278 135.729Z" fill="#006CFF"/>
<path d="M348.156 135.455L344.273 137.049C344.273 137.049 344.933 145.655 345.274 145.245C346.366 144.495 347.505 143.822 348.684 143.23L348.156 135.455Z" fill="#006CFF"/>
<path opacity="0.2" d="M359.278 135.729L362.325 138.7C362.325 138.7 351.326 146.668 351.139 146.156C350.381 145.057 349.554 144.011 348.664 143.025L359.278 135.729Z" fill="white"/>
<path opacity="0.2" d="M348.156 135.455L344.273 137.049C344.273 137.049 344.933 145.655 345.274 145.245C346.366 144.495 347.505 143.822 348.684 143.23L348.156 135.455Z" fill="white"/>
<path d="M346.09 170.984C346.794 172.065 352.524 170.984 352.524 170.984L357.441 171.336C357.706 171.34 357.963 171.243 358.165 171.065C358.367 170.888 358.501 170.64 358.54 170.369L359.904 163.937C359.923 163.788 359.886 163.637 359.8 163.516C359.714 163.395 359.585 163.313 359.442 163.288L355.56 162.571C353.998 162.275 352.386 162.627 351.072 163.55L346.959 166.442L346.09 170.984Z" fill="#FFC2BC"/>
<path d="M347.165 166.122L346.912 171.074C346.912 171.074 324.804 179.669 318.469 175.912C314.312 173.453 318.469 163.026 321.835 156.116L330.326 159.406L327.521 166.931L347.165 166.122Z" fill="#FFC2BC"/>
<g opacity="0.1">
<path d="M346.086 170.984C346.79 172.065 352.52 170.984 352.52 170.984L357.437 171.336C357.702 171.34 357.959 171.243 358.161 171.065C358.364 170.888 358.497 170.64 358.537 170.369L359.9 163.937C359.92 163.788 359.882 163.637 359.796 163.516C359.71 163.395 359.582 163.313 359.438 163.288L355.556 162.571C353.994 162.275 352.382 162.627 351.068 163.55L346.955 166.442L346.086 170.984Z" fill="black"/>
<path d="M347.165 166.122L346.912 171.074C346.912 171.074 324.804 179.669 318.469 175.912C314.312 173.453 318.469 163.026 321.835 156.116L330.326 159.406L327.521 166.931L347.165 166.122Z" fill="black"/>
</g>
<path d="M373.333 145.223L357.033 168.445L333.155 163.892L332.055 168.764C332.055 168.764 355.152 181.787 361.498 177.973C367.845 174.16 378.436 151.074 378.436 151.074L373.333 145.223Z" fill="#FFC2BC"/>
<path d="M332.074 168.752C331.359 169.822 325.64 168.672 325.64 168.672L320.724 168.957C320.455 168.959 320.195 168.86 319.992 168.677C319.79 168.495 319.659 168.242 319.624 167.966L318.337 161.535C318.318 161.386 318.355 161.235 318.441 161.114C318.528 160.993 318.656 160.911 318.799 160.886L322.703 160.214C324.271 159.942 325.878 160.319 327.18 161.261L333.13 164.05L332.074 168.752Z" fill="#FFC2BC"/>
<path d="M376.422 143.025C380.261 147.715 379.139 159.326 373.606 166.703L360.133 158.507C360.133 158.507 368.041 144.687 372.396 141.966C374.266 140.828 375.058 141.329 376.422 143.025Z" fill="#006CFF"/>
<path opacity="0.2" d="M376.422 143.025C380.261 147.715 379.139 159.326 373.606 166.703L360.133 158.507C360.133 158.507 368.041 144.687 372.396 141.966C374.266 140.828 375.058 141.329 376.422 143.025Z" fill="white"/>
<path d="M255.113 406.93L263.659 408.148L272.392 390.504L262.933 388.876L255.113 406.93Z" fill="#FFC2BC"/>
<path opacity="0.2" d="M262.936 388.876L272.395 390.504L267.633 400.1L258.68 398.711L262.936 388.876Z" fill="black"/>
<path d="M266.168 404.847L255.598 404.255C255.424 404.239 255.25 404.289 255.108 404.396C254.967 404.503 254.867 404.659 254.828 404.835L252.683 412.804C252.638 412.97 252.626 413.145 252.646 413.316C252.667 413.488 252.72 413.654 252.803 413.804C252.886 413.955 252.997 414.087 253.129 414.192C253.261 414.298 253.413 414.375 253.574 414.42H253.871C257.292 414.557 259.755 414.477 264.089 414.716C266.74 414.864 274.703 415.604 278.387 415.855C282.072 416.105 282.71 412.337 281.236 411.916C274.637 410.026 269.687 407.601 267.631 405.53C267.249 405.112 266.723 404.866 266.168 404.847Z" fill="#002D6B"/>
<path d="M266.686 405.985C266.645 405.975 266.608 405.95 266.582 405.915C266.556 405.879 266.542 405.836 266.543 405.792C266.535 405.751 266.54 405.708 266.558 405.671C266.576 405.634 266.605 405.604 266.642 405.587C266.961 405.405 269.876 403.777 270.811 404.335C270.916 404.397 271.002 404.489 271.058 404.6C271.115 404.711 271.139 404.836 271.13 404.961C271.154 405.179 271.121 405.4 271.034 405.6C270.947 405.801 270.809 405.973 270.635 406.099C270.127 406.417 269.528 406.542 268.941 406.452C268.174 406.388 267.418 406.232 266.686 405.985ZM270.327 404.71C269.267 404.852 268.241 405.195 267.302 405.723C268.293 406.139 269.402 406.139 270.393 405.723C270.501 405.635 270.587 405.52 270.642 405.389C270.698 405.258 270.722 405.115 270.712 404.972C270.712 404.923 270.702 404.874 270.683 404.829C270.664 404.784 270.637 404.744 270.602 404.71C270.511 404.687 270.417 404.687 270.327 404.71Z" fill="#006CFF"/>
<path d="M266.662 406.133C266.635 406.107 266.613 406.075 266.598 406.04C266.583 406.004 266.575 405.966 266.574 405.928C266.574 405.791 266.882 403.219 267.938 402.433C268.063 402.329 268.209 402.255 268.365 402.216C268.52 402.177 268.683 402.173 268.84 402.205C268.995 402.212 269.143 402.275 269.258 402.383C269.372 402.492 269.446 402.638 269.467 402.797C269.588 403.754 267.751 405.643 266.827 406.099H266.728L266.662 406.133ZM268.664 402.536C268.496 402.535 268.332 402.596 268.202 402.706C267.546 403.479 267.131 404.44 267.014 405.461C267.949 404.824 269.137 403.378 269.049 402.786C269.049 402.729 269.049 402.57 268.774 402.547H268.664V402.536Z" fill="#006CFF"/>
<path d="M209.526 355.681L215.784 355.92C226.207 355.418 236.554 353.828 246.668 351.173C255.72 348.896 270.723 341.725 270.723 341.725C265.894 363.103 257.194 395.683 257.194 395.683L270.635 397.288C270.635 397.288 305.633 328.281 290.19 320.381C276.387 312.754 222.988 317.762 222.988 317.762L217.489 311.786L180.17 314.917C180.17 314.917 173.032 355.624 209.526 355.681Z" fill="#002D6B"/>
<path d="M271.493 400.1L256.117 395.273L257.965 388.637L274.628 395.205L271.493 400.1Z" fill="#006CFF"/>
<path opacity="0.5" d="M271.493 400.1L256.117 395.273L257.965 388.637L274.628 395.205L271.493 400.1Z" fill="white"/>
<path opacity="0.4" d="M214.154 340.587C217.905 351.97 246.403 350.832 250.373 350.285C226.913 354.964 222.491 355.601 215.782 355.92L209.524 355.681C207.569 355.68 205.617 355.531 203.684 355.237C206.587 335.669 209.623 326.847 214.154 340.587Z" fill="black"/>
<path d="M137.33 387.271L136.23 396.218L156.171 399.587L157.271 390.629L137.33 387.271Z" fill="#FFC2BC"/>
<path d="M138.001 397.459L144.204 388.523C144.304 388.377 144.352 388.201 144.342 388.023C144.332 387.845 144.264 387.676 144.149 387.544L138.859 381.408C138.629 381.147 138.31 380.991 137.97 380.974C137.629 380.957 137.296 381.08 137.044 381.317C136.982 381.391 136.934 381.475 136.901 381.567C134.943 384.481 133.678 386.667 131.149 390.321C129.609 392.541 124.703 399.109 122.581 402.171C120.458 405.234 123.109 407.863 124.241 406.725C129.356 401.967 133.942 398.95 136.769 398.301C137.266 398.188 137.705 397.888 138.001 397.459Z" fill="#002D6B"/>
<path d="M136.668 397.231C136.702 397.209 136.742 397.197 136.783 397.197C136.824 397.197 136.864 397.209 136.899 397.231C136.935 397.248 136.965 397.278 136.983 397.315C137.001 397.353 137.006 397.395 136.998 397.436C136.998 397.823 136.745 401.238 135.788 401.739C135.686 401.806 135.568 401.841 135.447 401.841C135.326 401.841 135.208 401.806 135.106 401.739C134.92 401.64 134.762 401.492 134.648 401.311C134.534 401.129 134.468 400.919 134.457 400.703C134.469 400.088 134.686 399.497 135.073 399.03C135.541 398.373 136.075 397.77 136.668 397.231ZM136.558 397.914C135.678 398.554 135.071 399.52 134.864 400.612C134.88 400.755 134.928 400.893 135.004 401.013C135.081 401.134 135.183 401.234 135.304 401.306C135.447 401.386 135.557 401.375 135.579 401.306C135.668 401.268 135.741 401.2 135.788 401.113C136.233 400.105 136.494 399.02 136.558 397.914Z" fill="#006CFF"/>
<path d="M136.681 397.163C136.748 397.134 136.823 397.134 136.89 397.163C136.989 397.254 138.892 398.95 138.969 400.293C138.983 400.455 138.964 400.617 138.913 400.771C138.862 400.924 138.78 401.064 138.672 401.181C138.583 401.314 138.452 401.411 138.301 401.455C138.151 401.498 137.99 401.486 137.847 401.42C136.989 401.011 136.45 398.392 136.582 397.345V397.254C136.591 397.232 136.605 397.213 136.622 397.197C136.639 397.181 136.659 397.17 136.681 397.163ZM138.617 400.396C138.334 399.408 137.771 398.532 137 397.88C137.006 399.051 137.394 400.187 138.1 401.102C138.131 401.119 138.165 401.129 138.2 401.132C138.235 401.135 138.27 401.131 138.303 401.119C138.336 401.107 138.366 401.088 138.392 401.064C138.418 401.039 138.438 401.01 138.452 400.976V400.874C138.545 400.734 138.591 400.566 138.584 400.396H138.617Z" fill="#006CFF"/>
<path opacity="0.2" d="M157.259 390.617L156.159 399.587L145.875 397.846L146.986 388.887L157.259 390.617Z" fill="black"/>
<path d="M214.947 332.117C217.982 337.092 228.475 397.106 208.886 410.516C194.456 420.363 149.031 401.728 149.031 401.728L150.483 386.827C150.483 386.827 187.384 393.976 191.948 390.128C196.513 386.28 181.28 344.594 180.532 334.838C179.784 325.082 214.947 332.117 214.947 332.117Z" fill="#002D6B"/>
<path d="M148.02 402.809L148.514 386.178L155.18 386.303L153.398 404.665L148.02 402.809Z" fill="#006CFF"/>
<path opacity="0.5" d="M148.02 402.809L148.514 386.178L155.18 386.303L153.398 404.665L148.02 402.809Z" fill="white"/>
<path d="M219.059 313.357C217.883 311.081 214.297 306.607 210.843 305.981C206.257 305.15 205.278 304.968 187.581 307.78C179.233 309.1 178.628 315.885 179.09 319.402C179.153 319.874 179.339 320.319 179.629 320.688L180.014 321.178C180.872 321.451 218.509 314.61 218.894 314.826C219.05 314.621 219.148 314.375 219.178 314.116C219.207 313.857 219.166 313.594 219.059 313.357Z" fill="#006CFF"/>
<path opacity="0.2" d="M219.059 313.357C217.883 311.081 214.297 306.607 210.843 305.981C206.257 305.15 205.278 304.968 187.581 307.78C179.233 309.1 178.628 315.885 179.09 319.402C179.153 319.874 179.339 320.319 179.629 320.688L180.014 321.178C180.872 321.451 218.509 314.61 218.894 314.826C219.05 314.621 219.148 314.375 219.178 314.116C219.207 313.857 219.166 313.594 219.059 313.357Z" fill="white"/>
<path d="M259.91 247.754C262.35 247.569 264.713 246.789 266.806 245.477C268.249 244.43 269.478 243.1 270.425 241.561C270.727 241.101 270.856 240.542 270.788 239.99C270.629 238.698 270.135 237.475 269.358 236.45C269.145 236.184 268.841 236.012 268.509 235.972C268.177 235.932 267.843 236.026 267.576 236.234C266.3 237.179 264.848 238.169 263.704 239.091C260.482 239.717 257.424 242.791 257.16 246.172C258.029 246.616 259.03 247.276 259.91 247.754Z" fill="#FFC2BC"/>
<path d="M261.319 243.28L262.199 247.686C262.199 247.686 241.026 263.201 236.99 263.429C234.218 263.588 231.006 263.736 227.685 263.85C223.879 263.987 219.909 264.067 216.301 264.044C209.779 263.987 204.444 263.543 203.356 262.359C200.056 258.75 203.587 253.059 208.745 253.116C215.465 253.184 227.212 254.835 238.365 254.391C242.181 254.243 261.319 243.28 261.319 243.28Z" fill="#FFC2BC"/>
<path opacity="0.2" d="M227.672 263.85C223.866 263.987 219.896 264.067 216.288 264.044L212.273 258.102C217.584 259.463 222.744 261.39 227.672 263.85Z" fill="black"/>
<path d="M214.472 251.841C214.472 251.841 205.134 250.008 203.55 254.675C201.967 259.343 206.124 267.653 219.103 266.196L220.423 251.989L214.472 251.841Z" fill="#006CFF"/>
<path opacity="0.2" d="M214.472 251.841C214.472 251.841 205.134 250.008 203.55 254.675C201.967 259.343 206.124 267.653 219.103 266.196L220.423 251.989L214.472 251.841Z" fill="white"/>
<path d="M207.336 251.954C207.589 252.41 214.694 262.074 215.684 269.61C216.399 275.051 215.684 280.994 215.585 287.05C215.508 291.421 217.004 300.71 217.004 300.71L218.18 303.51C218.656 304.646 218.889 305.876 218.862 307.114C218.835 308.351 218.55 309.569 218.026 310.682L217.51 311.82L179.553 317.079L179.322 316.954C179.322 316.954 175.945 314.029 177.067 310.306V307.426C178.585 302.292 178.167 295.678 174.405 282.03C173.207 277.579 171.876 272.114 171.876 272.114C172.877 262.279 169.786 257.316 169.753 257.316C169.72 257.316 169.753 257.259 169.753 257.248C174.322 255.687 178.994 254.469 183.732 253.605C188.766 252.631 193.86 252.03 198.977 251.806C203.794 251.795 207.325 251.943 207.336 251.954Z" fill="#006CFF"/>
<path d="M203.583 217.337C205.97 220.195 206.487 224.168 207.499 227.844C208.324 230.804 210.116 236.815 209.006 239.661C207.741 242.905 201.515 240.161 199.448 242.916C191.221 253.924 186.249 249.189 183.093 246.468C181.509 245.125 175.492 243.793 173.942 242.415C172.391 241.038 169.74 240.344 170.884 234.993C175.459 213.558 183.06 212.295 193.2 212.875C197.083 213.091 200.966 214.196 203.583 217.337Z" fill="#002D6B"/>
<path d="M183.27 235.688C184.798 240.662 186.789 249.849 183.72 253.651L186.206 256.178C187.197 257.179 188.434 257.88 189.783 258.205C191.132 258.53 192.541 258.466 193.858 258.02C195.174 257.574 196.347 256.763 197.249 255.676C198.151 254.589 198.749 253.266 198.976 251.852C193.377 251.135 194.378 245.307 193.19 239.74L183.27 235.688Z" fill="#FFC2BC"/>
<path opacity="0.2" d="M195.917 233.866C194.883 237.907 193.519 244.407 194.817 248.813C189.824 249.439 186.359 244.84 186.117 243.349C186.675 241.56 187.098 239.729 187.382 237.873L195.917 233.866Z" fill="black"/>
<path d="M181.564 227.89C182.422 236.405 182.609 240.025 186.953 244.214C193.487 250.52 203.451 247.561 205.013 238.966C206.465 231.225 204.815 218.624 196.61 215.573C194.803 214.894 192.859 214.704 190.961 215.022C189.064 215.34 187.276 216.154 185.768 217.389C184.261 218.623 183.083 220.236 182.347 222.073C181.611 223.911 181.342 225.914 181.564 227.89Z" fill="#FFC2BC"/>
<path d="M183.547 232.363C184.191 233.504 184.532 234.799 184.537 236.12C184.898 235.834 185.156 235.43 185.27 234.974C185.383 234.518 185.346 234.036 185.164 233.604C184.9 232.705 184.449 232.272 183.547 232.363Z" fill="#002D6B"/>
<path d="M178.936 236.189C179.791 237.588 181.141 238.585 182.698 238.967C184.765 239.433 185.689 237.498 185.018 235.551C184.424 233.787 182.61 231.453 180.619 231.806C179.914 231.962 179.297 232.4 178.904 233.025C178.51 233.65 178.371 234.411 178.518 235.142C178.586 235.517 178.728 235.873 178.936 236.189Z" fill="#FFC2BC"/>
<path d="M193.334 229.882C193.334 230.634 193.774 231.203 194.236 231.203C194.698 231.203 195.072 230.554 195.039 229.814C195.006 229.074 194.588 228.494 194.126 228.505C193.664 228.516 193.301 229.143 193.334 229.882Z" fill="#002D6B"/>
<path d="M201.484 229.541C201.484 230.281 201.924 230.861 202.397 230.85C202.87 230.839 203.233 230.212 203.189 229.461C203.145 228.71 202.76 228.141 202.287 228.141C201.814 228.141 201.418 228.767 201.484 229.541Z" fill="#002D6B"/>
<path d="M202.078 228.186L203.772 227.64C203.772 227.64 202.969 228.994 202.078 228.186Z" fill="#002D6B"/>
<path d="M199.383 230.906C200.098 232.581 201.031 234.147 202.155 235.562C201.797 235.848 201.383 236.05 200.943 236.154C200.502 236.258 200.045 236.262 199.603 236.165L199.383 230.906Z" fill="#EC837E"/>
<path d="M197.13 238.772C197.542 238.94 197.969 239.062 198.406 239.137C198.429 239.141 198.453 239.142 198.476 239.137C198.499 239.132 198.521 239.122 198.541 239.108C198.56 239.095 198.577 239.077 198.59 239.056C198.602 239.036 198.611 239.013 198.615 238.989C198.619 238.941 198.607 238.893 198.581 238.854C198.555 238.814 198.516 238.785 198.472 238.772C197.576 238.637 196.725 238.282 195.988 237.738C195.252 237.193 194.652 236.475 194.237 235.642C194.223 235.598 194.194 235.56 194.156 235.536C194.118 235.511 194.073 235.5 194.028 235.505C193.987 235.513 193.949 235.538 193.925 235.574C193.9 235.61 193.89 235.655 193.896 235.699C194.546 237.12 195.706 238.223 197.13 238.772Z" fill="#002D6B"/>
<path d="M191.377 224.35C191.425 224.364 191.476 224.364 191.525 224.35C191.573 224.336 191.617 224.308 191.652 224.27C191.969 223.913 192.364 223.64 192.804 223.474C193.244 223.308 193.717 223.253 194.181 223.314C194.264 223.325 194.347 223.304 194.416 223.256C194.485 223.208 194.534 223.135 194.555 223.052C194.569 223.015 194.576 222.975 194.574 222.935C194.573 222.895 194.564 222.856 194.547 222.819C194.531 222.783 194.507 222.751 194.479 222.724C194.45 222.698 194.416 222.678 194.379 222.665C193.817 222.583 193.244 222.645 192.709 222.843C192.175 223.041 191.695 223.371 191.311 223.803C191.251 223.86 191.212 223.937 191.202 224.02C191.192 224.104 191.211 224.188 191.256 224.259C191.267 224.283 191.285 224.303 191.306 224.319C191.327 224.335 191.351 224.345 191.377 224.35Z" fill="#002D6B"/>
<path d="M204.576 224.315C204.634 224.334 204.697 224.336 204.756 224.322C204.816 224.308 204.871 224.278 204.917 224.236C204.982 224.167 205.018 224.075 205.018 223.979C205.018 223.884 204.982 223.791 204.917 223.723C204.485 223.205 203.938 222.803 203.323 222.551C202.708 222.299 202.044 222.205 201.386 222.278C201.342 222.282 201.298 222.295 201.259 222.317C201.22 222.339 201.185 222.369 201.158 222.405C201.13 222.441 201.109 222.483 201.098 222.528C201.086 222.572 201.083 222.619 201.089 222.665C201.105 222.76 201.157 222.844 201.233 222.9C201.31 222.955 201.404 222.977 201.496 222.961C202.039 222.916 202.585 223.003 203.09 223.217C203.594 223.43 204.043 223.764 204.4 224.19C204.442 224.252 204.504 224.297 204.576 224.315Z" fill="#002D6B"/>
<path d="M193.93 228.55L195.623 227.992C195.623 227.992 194.81 229.392 193.93 228.55Z" fill="#002D6B"/>
<path d="M189.429 219.569C191.859 222.643 183.071 230.679 183.544 232.364C181.158 232.524 179.387 227.344 179.266 224.658C179.144 221.944 179.963 219.276 181.576 217.133C182.598 215.778 184.49 215.528 186.151 215.3C186.632 215.194 187.132 215.234 187.592 215.414C187.869 215.569 188.104 215.793 188.277 216.065C188.449 216.337 188.554 216.649 188.582 216.974C188.703 217.886 188.991 218.767 189.429 219.569Z" fill="#002D6B"/>
<path d="M186.152 215.3C187.736 216.6 188.903 218.366 189.502 220.364C190.1 222.363 190.102 224.502 189.507 226.501C190.573 225.601 191.456 224.491 192.103 223.234C192.443 222.58 192.6 221.84 192.557 221.098C192.515 220.357 192.273 219.642 191.861 219.034C193.022 219.919 194.001 221.034 194.743 222.314C195.485 223.594 195.975 225.013 196.183 226.49C196.68 226.112 197.09 225.625 197.385 225.064C197.68 224.504 197.851 223.883 197.888 223.246C197.94 222.619 197.858 221.989 197.649 221.399C197.44 220.809 197.109 220.274 196.678 219.83C197.523 220.597 198.168 221.571 198.552 222.663C198.937 223.756 199.049 224.931 198.878 226.08C199.439 225.632 199.887 225.05 200.183 224.384C200.48 223.718 200.617 222.988 200.583 222.255C200.522 221.472 200.293 220.713 199.912 220.034C199.532 219.354 199.009 218.771 198.383 218.328C199.537 218.987 200.504 219.947 201.187 221.114C201.87 222.28 202.246 223.612 202.277 224.976C204.784 222.46 203.937 218.852 200.858 216.871C196.345 214.37 191.063 213.806 186.152 215.3Z" fill="#002D6B"/>
<path d="M184.944 250.885L181.996 253.947C181.996 253.947 193.237 261.551 193.402 261.039C194.12 259.901 194.91 258.813 195.767 257.783L184.944 250.885Z" fill="#006CFF"/>
<path d="M196.052 250.235L199.979 251.715C199.979 251.715 199.594 260.333 199.231 259.934C198.123 259.209 196.969 258.563 195.777 257.999L196.052 250.235Z" fill="#006CFF"/>
<path opacity="0.2" d="M184.944 250.885L181.996 253.947C181.996 253.947 193.237 261.551 193.402 261.039C194.12 259.901 194.91 258.813 195.767 257.783L184.944 250.885Z" fill="white"/>
<path opacity="0.2" d="M196.052 250.235L199.979 251.715C199.979 251.715 199.594 260.333 199.231 259.934C198.123 259.209 196.969 258.563 195.777 257.999L196.052 250.235Z" fill="white"/>
<path d="M124.505 286.788L115.035 287.722L118.335 295.417C120.903 294.252 123.36 292.838 125.671 291.194L124.505 286.788Z" fill="#FFC2BC"/>
<path d="M111.537 293.607L111.691 293.892C111.981 294.412 112.402 294.841 112.91 295.132C113.418 295.422 113.993 295.564 114.573 295.542L118.345 295.417L115.046 287.722L112.736 289.088C112.369 289.302 112.047 289.589 111.788 289.932C111.529 290.276 111.339 290.669 111.227 291.089C111.116 291.509 111.086 291.948 111.139 292.38C111.192 292.812 111.327 293.229 111.537 293.607Z" fill="#FFC2BC"/>
<path d="M126.625 290.909C126.625 290.909 143.179 292.48 158.676 284.91C158.676 284.91 169.092 275.928 174.723 268.381C183.082 257.157 175.306 253.776 169.136 261.016C164.56 266.389 153.957 276.771 153.957 276.771C140.638 284.739 123.337 287.221 123.337 287.221C119.982 292.229 126.625 290.909 126.625 290.909Z" fill="#FFC2BC"/>
<path d="M179.52 256.747C183.458 260.015 177.585 268.552 169.929 278.82L160.438 266.071C160.438 266.071 172.481 250.908 179.52 256.747Z" fill="#006CFF"/>
<path opacity="0.2" d="M179.52 256.747C183.458 260.015 177.585 268.552 169.929 278.82L160.438 266.071C160.438 266.071 172.481 250.908 179.52 256.747Z" fill="white"/>
</svg>
