<svg width="30" height="26" viewBox="0 0 30 26" fill="none" xmlns="http://www.w3.org/2000/svg">
<path d="M10.332 9.99935L8.86537 6.79935L5.66536 5.33268L8.86537 3.86602L10.332 0.666016L11.7987 3.86602L14.9987 5.33268L11.7987 6.79935L10.332 9.99935ZM18.9987 13.9993L17.732 11.266L14.9987 9.99935L17.732 8.73268L18.9987 5.99935L20.2654 8.73268L22.9987 9.99935L20.2654 11.266L18.9987 13.9993ZM4.33203 16.666L3.06536 13.9327L0.332031 12.666L3.06536 11.3993L4.33203 8.66602L5.5987 11.3993L8.33203 12.666L5.5987 13.9327L4.33203 16.666ZM4.9987 25.3327L2.9987 23.3327L12.9987 13.3327L18.332 18.666L27.7987 8.03268L29.6654 9.89935L18.332 22.666L12.9987 17.3327L4.9987 25.3327Z" fill="#006CFF"/>
</svg>
