<svg width="21" height="20" viewBox="0 0 21 20" fill="none" xmlns="http://www.w3.org/2000/svg">
<path d="M12.75 19.4C12.3667 19.7833 11.8917 19.975 11.325 19.975C10.7583 19.975 10.2833 19.7833 9.9 19.4L1.1 10.6C0.916667 10.4167 0.771 10.2 0.663 9.95C0.554333 9.7 0.5 9.43333 0.5 9.15V2C0.5 1.45 0.696 0.979 1.088 0.587C1.47933 0.195667 1.95 0 2.5 0H9.65C9.93333 0 10.2 0.0539999 10.45 0.162C10.7 0.270667 10.9167 0.416667 11.1 0.6L19.9 9.425C20.2833 9.80833 20.475 10.279 20.475 10.837C20.475 11.3957 20.2833 11.8667 19.9 12.25L12.75 19.4ZM11.325 18L18.475 10.85L9.65 2H2.5V9.15L11.325 18ZM5 6C5.41667 6 5.77067 5.854 6.062 5.562C6.354 5.27067 6.5 4.91667 6.5 4.5C6.5 4.08333 6.354 3.72933 6.062 3.438C5.77067 3.146 5.41667 3 5 3C4.58333 3 4.22933 3.146 3.938 3.438C3.646 3.72933 3.5 4.08333 3.5 4.5C3.5 4.91667 3.646 5.27067 3.938 5.562C4.22933 5.854 4.58333 6 5 6Z" fill="#E6F0FF"/>
</svg>
