<svg width="17" height="17" viewBox="0 0 17 17" fill="none" xmlns="http://www.w3.org/2000/svg">
<path d="M12.3832 16.2901C11.5741 16.2901 10.722 16.0967 9.84123 15.7244C8.98197 15.3592 8.11555 14.858 7.27061 14.2493C6.43283 13.6335 5.6237 12.9461 4.85752 12.1943C4.09851 11.4281 3.4111 10.619 2.80246 9.78835C2.18666 8.92909 1.69259 8.06983 1.34172 7.23922C0.969376 6.35132 0.783203 5.49206 0.783203 4.68292C0.783203 4.1244 0.88345 3.59453 1.07678 3.10045C1.27728 2.59206 1.5995 2.11946 2.03629 1.71132C2.58765 1.16712 3.21777 0.89502 3.89086 0.89502C4.17012 0.89502 4.45654 0.959464 4.69999 1.07403C4.97925 1.20292 5.21555 1.39625 5.3874 1.65403L7.04863 3.99551C7.19901 4.20317 7.31357 4.40366 7.39234 4.60415C7.48542 4.81897 7.53555 5.03378 7.53555 5.24144C7.53555 5.51354 7.45678 5.77848 7.30641 6.02909C7.199 6.22243 7.03431 6.43008 6.82666 6.63774L6.33975 7.14613C6.34691 7.16761 6.35407 7.18193 6.36123 7.19625C6.44715 7.34662 6.619 7.6044 6.94839 7.99107C7.29925 8.39206 7.62863 8.75724 7.95802 9.09378C8.38049 9.50909 8.73135 9.83848 9.06073 10.1106C9.46888 10.4543 9.73382 10.6261 9.89135 10.7049L9.87703 10.7407L10.3997 10.2251C10.6217 10.0032 10.8365 9.83848 11.0442 9.73107C11.438 9.48761 11.9393 9.44465 12.4405 9.6523C12.6267 9.73107 12.8272 9.83848 13.042 9.98885L15.4193 11.6787C15.6842 11.8577 15.8775 12.0869 15.9921 12.359C16.0995 12.6311 16.1496 12.8817 16.1496 13.1323C16.1496 13.476 16.0709 13.8197 15.9205 14.1419C15.7701 14.4642 15.5839 14.7434 15.3476 15.0012C14.9395 15.4523 14.4955 15.7745 13.98 15.9822C13.4859 16.1827 12.9489 16.2901 12.3832 16.2901ZM3.89086 1.96909C3.49703 1.96909 3.13184 2.14095 2.78098 2.48465C2.4516 2.79255 2.22246 3.12909 2.07925 3.49428C1.92888 3.86662 1.85728 4.26045 1.85728 4.68292C1.85728 5.34885 2.01481 6.07206 2.32987 6.81675C2.65209 7.57576 3.1032 8.36341 3.67604 9.15107C4.24888 9.93872 4.90049 10.7049 5.61654 11.4281C6.33259 12.137 7.10592 12.7958 7.90073 13.3758C8.67407 13.9414 9.46888 14.3997 10.2565 14.7291C11.481 15.2518 12.6267 15.3735 13.5718 14.9797C13.937 14.8293 14.2593 14.6002 14.5528 14.2708C14.7175 14.0918 14.8464 13.8985 14.9538 13.6693C15.0397 13.4903 15.0827 13.3042 15.0827 13.118C15.0827 13.0034 15.0612 12.8888 15.0039 12.76C14.9825 12.717 14.9395 12.6382 14.8034 12.5451L12.4262 10.8553C12.283 10.755 12.1541 10.6834 12.0323 10.6333C11.8748 10.5688 11.8104 10.5044 11.5669 10.6548C11.4237 10.7264 11.2948 10.8338 11.1516 10.977L10.6074 11.514C10.3281 11.7861 9.89851 11.8506 9.56913 11.7288L9.3758 11.6429C9.08221 11.4854 8.73851 11.2419 8.359 10.9197C8.0153 10.6261 7.64296 10.2824 7.19184 9.83848C6.84098 9.48045 6.49012 9.10094 6.12493 8.67848C5.78839 8.28465 5.54493 7.94811 5.39456 7.66885L5.30863 7.45403C5.26567 7.28934 5.25135 7.19625 5.25135 7.09601C5.25135 6.83823 5.34444 6.60909 5.52345 6.43008L6.06049 5.87156C6.2037 5.72835 6.3111 5.5923 6.38271 5.47057C6.43999 5.37749 6.46147 5.29872 6.46147 5.22712C6.46147 5.16983 6.43999 5.08391 6.40419 4.99798C6.35407 4.88341 6.2753 4.75453 6.17505 4.61848L4.51382 2.26983C4.44222 2.16959 4.35629 2.09798 4.24888 2.04786C4.13431 1.99774 4.01259 1.96909 3.89086 1.96909ZM9.87703 10.7479L9.76246 11.2348L9.9558 10.7335C9.91999 10.7264 9.89135 10.7335 9.87703 10.7479Z" fill="#828282"/>
</svg>
