<svg width="16" height="16" viewBox="0 0 16 16" fill="none" xmlns="http://www.w3.org/2000/svg">
<path d="M1 10.85H0.85V11V13.375C0.85 13.8784 1.01806 14.3052 1.35693 14.6441C1.69521 14.9824 2.12169 15.15 2.625 15.15H13.375C13.8783 15.15 14.3051 14.9824 14.644 14.6442L14.6442 14.644C14.9823 14.3051 15.15 13.8783 15.15 13.375V11V10.85H15H14H13.85V11V13.375C13.85 13.4992 13.8052 13.6073 13.7062 13.7057L13.7057 13.7062C13.6072 13.8052 13.4991 13.85 13.375 13.85H2.625C2.50087 13.85 2.39276 13.8052 2.29435 13.7062L2.29378 13.7057C2.19485 13.6073 2.15 13.4992 2.15 13.375V11V10.85H2H1ZM7.35 11.225V11.375H7.5H8.5H8.65V11.225V2.93716L10.7189 5.00609L10.8232 5.11031L10.9292 5.00793L11.6542 4.30793L11.764 4.2019L11.6561 4.09396L8.10607 0.543958L8 0.437892L7.89393 0.543958L4.34393 4.09396L4.23599 4.2019L4.34581 4.30793L5.07081 5.00793L5.17684 5.11031L5.28107 5.00609L7.35 2.93716V11.225Z" fill="white" stroke="white" stroke-width="0.3"/>
</svg>
