<svg width="207" height="101" viewBox="0 0 207 101" fill="none" xmlns="http://www.w3.org/2000/svg">
<rect width="206" height="100" transform="translate(0.929199 0.337524)" fill="white"/>
<g clip-path="url(#clip0_38_16510)">
<path d="M44.0928 44.0657V49.6561H57.5839C57.2257 52.7486 56.1512 55.1275 54.4797 56.6737C52.5695 58.5768 49.4653 60.7178 44.0928 60.7178C35.8548 60.7178 29.4078 54.057 29.4078 45.8499C29.4078 37.6428 35.7354 30.9819 44.0928 30.9819C48.5102 30.9819 51.8531 32.7661 54.2409 35.026L58.1808 31.1009C54.8379 27.8894 50.3011 25.3916 44.0928 25.3916C32.7507 25.3916 23.1995 34.5503 23.1995 45.8499C23.1995 57.1495 32.7507 66.3082 44.0928 66.3082C50.1817 66.3082 54.8379 64.2861 58.4196 60.5989C62.1207 56.9116 63.3146 51.6781 63.3146 47.5151C63.3146 46.2067 63.1952 45.0173 63.0758 44.0657H44.0928Z" fill="#4285F4"/>
<path d="M80.0292 39.4269C72.7464 39.4269 66.6575 45.0172 66.6575 52.6296C66.6575 60.242 72.627 65.8323 80.0292 65.8323C87.4314 65.8323 93.4009 60.3609 93.4009 52.7486C93.4009 45.0172 87.4314 39.4269 80.0292 39.4269ZM80.0292 60.7178C75.9699 60.7178 72.5076 57.3873 72.5076 52.7486C72.5076 47.9908 75.9699 44.7793 80.0292 44.7793C84.0885 44.7793 87.5508 47.9908 87.5508 52.7486C87.5508 57.3873 84.0885 60.7178 80.0292 60.7178Z" fill="#EA4335"/>
<path d="M145.336 42.4005H145.097C143.784 40.8542 141.276 39.4269 138.053 39.4269C131.367 39.4269 125.636 45.1362 125.636 52.6296C125.636 60.0041 131.367 65.8323 138.053 65.8323C141.276 65.8323 143.784 64.405 145.097 62.8587H145.336V64.7618C145.336 69.7575 142.59 72.4932 138.292 72.4932C134.71 72.4932 132.561 69.9954 131.606 67.7354L126.591 69.8764C128.024 73.3258 131.964 77.7267 138.411 77.7267C145.216 77.7267 151.066 73.6826 151.066 63.9292V40.1405H145.575V42.4005H145.336ZM138.65 60.7178C134.591 60.7178 131.606 57.2684 131.606 52.7486C131.606 48.1098 134.71 44.7793 138.65 44.7793C142.59 44.7793 145.694 48.2287 145.694 52.8675C145.813 57.3873 142.709 60.7178 138.65 60.7178Z" fill="#4285F4"/>
<path d="M109.757 39.4269C102.475 39.4269 96.3856 45.0172 96.3856 52.6296C96.3856 60.242 102.355 65.8323 109.757 65.8323C117.16 65.8323 123.129 60.3609 123.129 52.7486C123.129 45.0172 117.16 39.4269 109.757 39.4269ZM109.757 60.7178C105.698 60.7178 102.236 57.3873 102.236 52.7486C102.236 47.9908 105.698 44.7793 109.757 44.7793C113.817 44.7793 117.279 47.9908 117.279 52.7486C117.279 57.3873 113.817 60.7178 109.757 60.7178Z" fill="#FBBC05"/>
<path d="M155.484 25.9863H161.215V65.9513H155.484V25.9863Z" fill="#34A853"/>
<path d="M178.884 60.7178C175.9 60.7178 173.87 59.4094 172.437 56.6737L190.226 49.4181L189.63 47.8719C188.555 44.8983 185.093 39.4269 178.287 39.4269C171.482 39.4269 165.751 44.7793 165.751 52.6296C165.751 60.0041 171.363 65.8323 178.884 65.8323C184.973 65.8323 188.436 62.1451 189.988 60.0041L185.451 57.0305C183.899 59.2904 181.869 60.7178 178.884 60.7178ZM178.526 44.4225C180.914 44.4225 182.944 45.6119 183.541 47.2771L171.602 52.2728C171.482 46.8014 175.541 44.4225 178.526 44.4225Z" fill="#EA4335"/>
</g>
<defs>
<clipPath id="clip0_38_16510">
<rect width="167.027" height="52.3351" fill="white" transform="translate(23.1995 25.3916)"/>
</clipPath>
</defs>
</svg>
