<svg width="221" height="101" viewBox="0 0 221 101" fill="none" xmlns="http://www.w3.org/2000/svg">
<rect width="220.858" height="100" transform="translate(0.0708008 0.337524)" fill="white"/>
<g clip-path="url(#clip0_38_16488)">
<path d="M44.5443 45.8971C41.2074 42.3857 35.6564 42.2426 32.143 45.5774L29.8888 47.738C29.7439 47.8767 29.5723 47.9846 29.3844 48.0549C29.1087 48.1575 28.8093 48.1785 28.5219 48.1155C28.2297 48.0513 27.9637 47.9005 27.7585 47.6828C27.4101 47.3156 27.2684 46.7985 27.381 46.3049C27.438 46.0641 27.5546 45.8414 27.7199 45.6573L21.5386 51.5135C21.8159 51.9332 22.1294 52.3279 22.4756 52.693C24.0773 54.3805 26.284 55.3624 28.61 55.4224C30.9359 55.4823 33.1903 54.6155 34.8768 53.0126L37.1311 50.8521C37.2764 50.7138 37.4478 50.606 37.6354 50.5351C37.9112 50.4325 38.2106 50.4115 38.498 50.4745C38.7888 50.5341 39.0549 50.6801 39.2614 50.8934C39.4011 51.0375 39.5091 51.2093 39.5783 51.3977C39.6867 51.6757 39.7116 51.9793 39.6499 52.2713C39.5857 52.5635 39.4349 52.8295 39.2173 53.0347L45.4841 47.0848C45.2059 46.6624 44.8914 46.265 44.5443 45.8971Z" fill="#269EF7"/>
<path d="M47.369 45.2935L45.484 47.0848C47.8526 50.6326 47.3195 55.371 44.2219 58.3038L52.3736 50.5627C53.0727 49.9005 53.4798 48.9876 53.5051 48.025C53.5305 47.0624 53.172 46.1293 52.5087 45.4313C51.8466 44.7293 50.9321 44.3201 49.9675 44.2943C49.0029 44.2684 48.0678 44.628 47.369 45.2935Z" fill="#FF8388"/>
<path d="M20.7972 43.1385C21.2176 42.1752 21.8086 41.2957 22.5416 40.5425L14.7647 47.9226C13.3093 49.3051 13.2489 51.6052 14.6296 53.0623C15.2936 53.7615 16.2081 54.1683 17.172 54.1931C18.136 54.2179 19.0702 53.8587 19.7693 53.1945L21.5385 51.5135C19.88 49.0307 19.6005 45.874 20.7972 43.1385Z" fill="#FF8388"/>
<path d="M29.876 47.7435L29.864 47.7555L29.876 47.7435Z" fill="#1300A8"/>
<path d="M27.7998 45.5553L38.2252 35.6591C38.9232 34.9962 39.3293 34.0832 39.3541 33.1208C39.3789 32.1585 39.0204 31.2257 38.3575 30.5278C37.6946 29.8297 36.7815 29.4236 35.8192 29.3988C34.8568 29.374 33.9241 29.7325 33.2261 30.3955L22.5389 40.5425C19.6592 43.5056 19.2423 48.0784 21.5386 51.5135L27.7199 45.6573C27.7447 45.6219 27.7713 45.5878 27.7998 45.5553Z" fill="#022494"/>
<path d="M46.8343 50.4911C46.6306 49.2728 46.1703 48.1117 45.484 47.0848L39.2172 53.0347L28.9076 62.8207C27.4569 64.2078 27.4039 66.5078 28.7891 67.9603C29.453 68.6595 30.3676 69.0663 31.3315 69.0911C32.2954 69.1159 33.2297 68.7567 33.9287 68.0926L39.0491 63.2313L44.2218 58.3039C46.3408 56.2981 47.3206 53.368 46.8343 50.4911Z" fill="#022494"/>
<path d="M100.959 42.714C99.6458 42.6997 98.3765 43.1866 97.4096 44.0754V43.5242C97.4066 43.3002 97.2258 43.1193 97.0017 43.1164H93.5845C93.4761 43.1156 93.3719 43.1584 93.2953 43.235C93.2186 43.3117 93.1759 43.4158 93.1766 43.5242V62.1923C93.1797 62.2959 93.2221 62.3944 93.2951 62.4679C93.3719 62.5445 93.4761 62.5872 93.5845 62.5864H96.9907C97.0946 62.5845 97.1935 62.5419 97.2663 62.4679C97.3402 62.3947 97.3835 62.2962 97.3876 62.1923V55.0933C98.3723 56.0039 99.6647 56.5088 101.006 56.507C102.738 56.5341 104.397 55.8082 105.553 54.5173C106.775 53.1862 107.43 51.4317 107.38 49.6257C107.434 47.8104 106.78 46.0455 105.556 44.7037C104.384 43.406 102.707 42.6801 100.959 42.714ZM102.177 51.7422C100.996 52.912 99.0926 52.912 97.9112 51.7422C97.3357 51.1902 97.017 50.4229 97.0321 49.6257C97.0266 48.4042 97.7587 47.3002 98.886 46.8299C100.013 46.3595 101.313 46.6158 102.177 47.4789C102.756 48.0409 103.075 48.8189 103.056 49.6257C103.071 50.4229 102.753 51.1902 102.177 51.7422Z" fill="#302A26"/>
<path d="M90.3464 43.1082H86.9375C86.8291 43.1075 86.7249 43.1502 86.6483 43.2269C86.5716 43.3035 86.5289 43.4077 86.5296 43.5161V44.1086C85.5389 43.2099 84.2488 42.7127 82.9112 42.7141C81.1774 42.6844 79.5165 43.4107 78.3613 44.7039C77.1436 46.0261 76.4891 47.771 76.5369 49.5679C76.5369 51.5273 77.1432 53.2029 78.3613 54.5284C79.5349 55.8284 81.2153 56.5545 82.9663 56.5181C84.2857 56.5265 85.5591 56.034 86.5296 55.1402V55.7079C86.5315 55.8117 86.5741 55.9107 86.6481 55.9835C86.7245 56.0609 86.8287 56.1045 86.9375 56.1048H90.3437C90.4477 56.1012 90.5464 56.0578 90.6193 55.9835C90.6933 55.9107 90.7359 55.8117 90.7378 55.7079V43.5161C90.7359 43.4123 90.6933 43.3133 90.6193 43.2405C90.5489 43.1628 90.4511 43.1153 90.3464 43.1082ZM86.0308 51.756C84.8306 52.8134 83.0154 52.7564 81.884 51.6257C80.7526 50.495 80.6944 48.6798 81.751 47.479C82.3129 46.8995 83.0907 46.58 83.8978 46.5971C84.6981 46.5993 85.4645 46.9204 86.0272 47.4894C86.59 48.0584 86.9027 48.8283 86.8961 49.6285C86.9172 50.4274 86.6035 51.1987 86.0308 51.756Z" fill="#302A26"/>
<path d="M116.248 42.7141C114.931 42.697 113.658 43.1841 112.688 44.0755V43.5244C112.69 43.3013 112.514 43.1171 112.291 43.1082H108.874C108.765 43.1075 108.661 43.1502 108.585 43.2269C108.508 43.3035 108.465 43.4077 108.466 43.5161V62.1924C108.469 62.296 108.511 62.3945 108.584 62.468C108.661 62.5446 108.765 62.5873 108.874 62.5865H112.291C112.395 62.5846 112.494 62.542 112.567 62.468C112.64 62.3948 112.684 62.2963 112.688 62.1924V55.0934C113.672 56.0034 114.963 56.5083 116.304 56.5071C118.037 56.5351 119.697 55.8091 120.853 54.5174C122.075 53.1863 122.73 51.4318 122.681 49.6258C122.734 47.81 122.079 46.0447 120.853 44.7039C119.681 43.403 118 42.6767 116.248 42.7141ZM117.467 51.7423C116.285 52.9122 114.382 52.9122 113.2 51.7423C112.625 51.1903 112.306 50.423 112.321 49.6258C112.316 48.4044 113.048 47.3003 114.175 46.83C115.303 46.3596 116.602 46.6159 117.467 47.479C118.049 48.0396 118.37 48.8178 118.354 49.6258C118.367 50.4243 118.045 51.1918 117.467 51.7423Z" fill="#302A26"/>
<path d="M73.3262 43.8991C72.6152 43.0723 71.433 42.7141 69.8787 42.7141C69.0657 42.6883 68.2585 42.8584 67.5252 43.2101C67.1197 43.431 66.7484 43.7095 66.4228 44.0369V36.8965C66.4236 36.7886 66.3812 36.6848 66.3052 36.6083C66.2291 36.5317 66.1257 36.4886 66.0177 36.4886H62.617C62.5088 36.489 62.4051 36.5315 62.3277 36.6071C62.2513 36.684 62.2087 36.7881 62.2092 36.8965V55.7051C62.2111 55.8089 62.2536 55.9079 62.3277 55.9807C62.4041 56.0581 62.5083 56.1017 62.617 56.102H66.0233C66.1273 56.0984 66.226 56.055 66.2988 55.9807C66.3729 55.9079 66.4154 55.8089 66.4173 55.7051V49.4549C66.4173 48.3525 66.6295 47.5892 66.9685 47.1262C67.3075 46.6632 67.809 46.4372 68.5862 46.429C69.3633 46.4207 69.807 46.6384 70.0633 46.9801C70.3196 47.3219 70.518 48.0163 70.5153 49.0415V55.7051C70.5158 55.8185 70.5631 55.9266 70.6461 56.0038C70.7291 56.0811 70.8403 56.1206 70.9534 56.113H74.3597C74.5843 56.1115 74.766 55.9297 74.7675 55.7051V48.0494C74.7835 47.3245 74.7029 46.6007 74.5278 45.8971C74.2716 45.1543 73.8623 44.4736 73.3262 43.8991Z" fill="#302A26"/>
<path d="M207.194 50.447C207.267 50.3739 207.31 50.2751 207.312 50.1714V49.6533C207.312 47.5727 206.728 45.8585 205.527 44.6019C204.325 43.3452 202.683 42.7114 200.657 42.7141C198.631 42.7169 196.942 43.3369 195.697 44.5964C194.451 45.8558 193.864 47.5589 193.864 49.6258C193.864 51.6926 194.492 53.3765 195.771 54.6304C197.05 55.8843 198.772 56.5099 200.855 56.5071C203.887 56.5264 206.092 55.1292 207.175 52.4533C207.221 52.3375 207.213 52.2068 207.153 52.0978C207.091 51.9896 206.983 51.9156 206.86 51.8966L203.705 51.3895C203.55 51.3641 203.394 51.4307 203.305 51.5604C202.603 52.5635 201.792 53.0072 200.742 53.0154C199.88 53.0154 199.285 52.7702 198.844 52.3017C198.435 51.8142 198.206 51.2015 198.193 50.5655H206.907C207.015 50.5659 207.118 50.5232 207.194 50.447ZM198.406 47.5864C198.778 46.4841 199.475 46.0129 200.77 45.9825C201.347 45.9551 201.914 46.1404 202.363 46.5034C202.695 46.7954 202.946 47.1685 203.09 47.5864H198.406Z" fill="#302A26"/>
<path d="M174.052 35.9015C173.398 35.897 172.77 36.1587 172.313 36.6263L172.603 36.9157L172.313 36.6263C171.475 37.4633 171.345 38.7764 172.004 39.761C172.663 40.7457 173.926 41.1269 175.02 40.6711C176.113 40.2153 176.732 39.0498 176.496 37.8887C176.261 36.7276 175.237 35.8952 174.052 35.9015Z" fill="#302A26"/>
<path d="M186.357 42.7141C185.019 42.7116 183.729 43.2089 182.739 44.1086V36.8965C182.738 36.7883 182.696 36.6845 182.62 36.6072C182.543 36.5308 182.439 36.4881 182.331 36.4887H178.924C178.816 36.4879 178.712 36.5307 178.635 36.6073C178.559 36.684 178.516 36.7881 178.517 36.8965V55.7051C178.518 55.9298 178.7 56.1115 178.924 56.113H182.331C182.555 56.1115 182.737 55.9298 182.739 55.7051V55.1209C183.706 56.0181 184.98 56.5112 186.299 56.4988C188.05 56.5351 189.731 55.8091 190.904 54.5091C192.122 53.1946 192.734 51.519 192.731 49.5486C192.783 47.7493 192.134 46.0003 190.921 44.6707C189.755 43.3873 188.09 42.6734 186.357 42.7141ZM187.525 51.7422C186.662 52.6082 185.361 52.8662 184.232 52.3954C183.104 51.9245 182.372 50.8182 182.38 49.5954C182.368 48.7966 182.68 48.0269 183.245 47.462C183.81 46.8971 184.58 46.5851 185.379 46.5971C186.184 46.577 186.961 46.8913 187.525 47.4652C188.688 48.6549 188.688 50.5553 187.525 51.745V51.7422Z" fill="#302A26"/>
<path d="M175.741 43.1082H172.335C172.227 43.1074 172.123 43.1502 172.046 43.2268C171.969 43.3035 171.927 43.4076 171.927 43.516V55.7051C171.929 55.8089 171.972 55.9079 172.046 55.9807C172.119 56.0548 172.217 56.0982 172.321 56.1019H175.728C175.952 56.1004 176.134 55.9187 176.136 55.6941V43.516C176.134 43.2914 175.952 43.1097 175.728 43.1082H175.741Z" fill="#302A26"/>
<path d="M144.344 47.7186C143.679 47.5151 143.033 47.2513 142.415 46.9305C142.291 46.8483 142.221 46.7045 142.233 46.5557C142.227 46.393 142.305 46.2386 142.44 46.1478C142.647 46.0045 142.897 45.9347 143.148 45.9494C143.666 45.9494 144.251 46.1726 144.929 46.6824C145.1 46.8094 145.34 46.783 145.48 46.6218L147.166 44.6238C147.239 44.5381 147.273 44.4258 147.26 44.3139C147.247 44.202 147.188 44.1006 147.097 44.0341C145.857 43.1145 144.348 42.6301 142.804 42.6562C141.586 42.6203 140.399 43.0432 139.477 43.8412C138.594 44.5976 138.094 45.7095 138.116 46.8726C138.116 47.9198 138.345 48.7631 138.89 49.3363C139.436 49.9095 140.249 50.3229 141.423 50.7583C142.096 50.9711 142.746 51.248 143.366 51.5851C143.503 51.7058 143.571 51.8864 143.548 52.0674C143.557 52.3224 143.449 52.5675 143.253 52.7315C143.007 52.9303 142.695 53.0287 142.379 53.0071C141.566 53.0071 140.712 52.6047 139.797 51.6926C139.717 51.6121 139.607 51.5691 139.494 51.5741C139.38 51.5767 139.272 51.629 139.199 51.7174L137.424 53.8008C137.281 53.9567 137.281 54.196 137.424 54.3519C138.669 55.7555 140.465 56.5447 142.341 56.5125C143.931 56.5125 145.279 56.0771 146.309 55.1897C147.326 54.3369 147.901 53.0688 147.872 51.7422C147.872 50.6977 147.596 49.8131 146.965 49.2013C146.334 48.5895 145.505 48.1375 144.344 47.7186Z" fill="#302A26"/>
<path d="M137.562 43.1082H133.649C133.494 43.1074 133.353 43.1952 133.285 43.3342L130.176 49.5486L126.897 43.3259C126.826 43.192 126.687 43.1081 126.536 43.1082H122.568C122.418 43.1037 122.278 43.1819 122.204 43.3116C122.129 43.4414 122.133 43.6016 122.212 43.7283L127.873 53.8505L123.502 61.9995C123.432 62.1244 123.432 62.2769 123.502 62.4018C123.575 62.5258 123.708 62.6014 123.852 62.6003H127.71C127.861 62.5991 127.999 62.5156 128.071 62.3826L137.92 43.7062C137.989 43.5819 137.989 43.431 137.92 43.3066C137.845 43.181 137.708 43.1053 137.562 43.1082Z" fill="#302A26"/>
<path d="M170.183 43.0558C169.665 42.8167 169.1 42.6998 168.529 42.714C167.332 42.6923 166.185 43.1958 165.391 44.092V43.516C165.389 43.4122 165.346 43.3132 165.272 43.2404C165.199 43.1663 165.1 43.123 164.996 43.1192H161.582C161.357 43.1207 161.176 43.3024 161.174 43.527V55.7051C161.177 55.8092 161.221 55.9081 161.295 55.9807C161.368 56.055 161.467 56.0984 161.571 56.1019H164.977C165.081 56.0981 165.18 56.0547 165.253 55.9807C165.327 55.9078 165.369 55.8089 165.371 55.7051V49.8489C165.371 48.6804 165.611 47.862 166.019 47.3687C166.427 46.8754 167.014 46.6108 167.92 46.6053C168.416 46.6151 168.902 46.7447 169.337 46.9828C169.453 47.0436 169.592 47.0436 169.709 46.9828C169.827 46.9249 169.908 46.8124 169.927 46.6825L170.439 43.4912C170.466 43.304 170.36 43.1233 170.183 43.0558Z" fill="#302A26"/>
<path d="M159.209 43.4941C158.223 42.9726 157.123 42.7046 156.007 42.7141C154.098 42.6602 152.248 43.3762 150.873 44.7011C149.52 45.999 148.776 47.8066 148.823 49.6809C148.789 51.5129 149.528 53.2745 150.859 54.5339C152.18 55.8316 153.968 56.5428 155.82 56.5071C156.997 56.509 158.158 56.2333 159.209 55.7024C159.347 55.6336 159.435 55.4929 159.435 55.3386V52.0316C159.436 51.8756 159.347 51.7331 159.207 51.6645C159.067 51.5959 158.9 51.6133 158.777 51.7092C158.089 52.2903 157.224 52.6181 156.324 52.6379C155.48 52.6763 154.656 52.379 154.031 51.8112C153.44 51.2496 153.121 50.4595 153.157 49.6451C153.129 48.8298 153.447 48.0405 154.034 47.4735C154.632 46.8969 155.438 46.5876 156.269 46.6164C157.189 46.6444 158.074 46.9813 158.779 47.5727C158.901 47.6691 159.068 47.6863 159.207 47.6168C159.347 47.5489 159.436 47.4063 159.435 47.2503V43.8551C159.434 43.7018 159.346 43.5624 159.209 43.4941Z" fill="#302A26"/>
</g>
<defs>
<clipPath id="clip0_38_16488">
<rect width="193.735" height="39.9597" fill="white" transform="translate(13.6323 29.3978)"/>
</clipPath>
</defs>
</svg>
