<svg width="86" height="24" viewBox="0 0 86 24" fill="none" xmlns="http://www.w3.org/2000/svg">
<g clip-path="url(#clip0_4626_12668)">
<path opacity="0.82" d="M15.5374 0.0889371L11.021 4.27916C11.6022 4.82233 11.9341 5.11655 12.2486 5.43017C13.5402 6.69672 14.3212 8.40828 14.4386 10.23C14.5561 12.0517 14.0017 13.8525 12.8838 15.2801C10.5144 18.3193 6.40289 18.9433 3.0489 16.7738C0.145923 14.8937 -0.857733 10.786 0.793853 7.43637C2.33745 4.30017 4.93076 2.40875 8.07671 1.22702C10.4683 0.323344 12.9187 -0.224683 15.5374 0.0889371Z" fill="#006CFF"/>
<path opacity="0.82" d="M3.81136 23.9999L8.41674 19.7223C7.81169 19.1452 7.44326 18.8122 7.09547 18.4582C5.86385 17.1999 5.1202 15.531 5.00144 13.7588C4.88267 11.9867 5.39679 10.2305 6.44913 8.81354C8.53902 5.98126 12.5028 5.10345 15.6297 6.77986C18.8821 8.52417 20.243 12.0241 18.9647 15.6016C18.5931 16.6363 18.0817 17.6919 17.3766 18.5228C13.8686 22.705 9.21077 24.0063 3.81136 23.9999Z" fill="#B0D1FF"/>
<path d="M34.0163 11.5329C33.3272 11.1875 32.6044 10.9166 31.8597 10.7246C31.2737 10.5516 30.7814 10.4013 30.3781 10.272C30.0465 10.1783 29.734 10.025 29.4554 9.81931C29.3519 9.73611 29.2692 9.62919 29.214 9.50726C29.1588 9.38533 29.1327 9.25185 29.1378 9.1177C29.128 8.95458 29.162 8.79182 29.2361 8.64687C29.3102 8.50191 29.4217 8.38022 29.5586 8.29486C29.9228 8.09574 30.3338 8.00288 30.7465 8.0265C31.1416 8.02548 31.5349 8.07988 31.9153 8.18816C32.2835 8.29139 32.6439 8.42159 32.9936 8.57776C33.2747 8.7029 33.5493 8.84265 33.8162 8.99646C33.9607 9.06805 34.091 9.16614 34.2005 9.28583L35.5171 6.75424C35.1264 6.53115 34.6844 6.30806 34.191 6.08497C33.6777 5.85477 33.1465 5.66822 32.603 5.52724C32.0265 5.37726 31.4336 5.3023 30.8386 5.30415C30.0159 5.294 29.2001 5.45919 28.4438 5.78913C27.7398 6.09353 27.1343 6.59389 26.6969 7.23275C26.2618 7.87939 26.0443 8.66506 26.0443 9.58975C26.0238 10.1684 26.1524 10.7425 26.4174 11.2548C26.6961 11.7296 27.0941 12.1203 27.5704 12.3865C28.1927 12.7392 28.8529 13.0174 29.538 13.2158C30.1478 13.4022 30.6872 13.5687 31.1562 13.7153C31.5474 13.8295 31.9214 13.9976 32.2679 14.2148C32.3973 14.2965 32.5033 14.4113 32.5755 14.5477C32.6477 14.6842 32.6834 14.8375 32.6792 14.9924C32.6815 15.1359 32.6462 15.2774 32.577 15.4024C32.5078 15.5274 32.4071 15.6314 32.2853 15.7037C32.0228 15.874 31.6236 15.9586 31.0879 15.9575C30.5879 15.9574 30.09 15.8889 29.6079 15.7538C29.1552 15.6298 28.7124 15.4709 28.2834 15.2786C27.9401 15.1275 27.607 14.9536 27.2861 14.758C27.1141 14.6635 26.9541 14.5478 26.8097 14.4137L25.4932 17.0746C26.0209 17.4301 26.5847 17.7266 27.175 17.9589C27.7926 18.2022 28.4304 18.3888 29.0806 18.5166C29.722 18.645 30.374 18.7105 31.0276 18.7122C31.6367 18.7136 32.2438 18.642 32.8364 18.4988C33.3938 18.3705 33.9235 18.1392 34.3991 17.8166C34.8564 17.5014 35.2301 17.076 35.4869 16.5783C35.7709 15.996 35.909 15.3512 35.8887 14.7014C35.8887 13.8899 35.7272 13.2373 35.4043 12.7437C35.0523 12.2247 34.5741 11.8075 34.0163 11.5329Z" fill="#454545"/>
<path d="M43.127 15.8281C42.9527 15.9756 42.7551 16.092 42.5426 16.1724C42.2532 16.2781 41.944 16.3154 41.6383 16.2815C41.3327 16.2477 41.0386 16.1435 40.7783 15.9768C40.4562 15.7552 40.195 15.4536 40.0192 15.1006C39.8284 14.6949 39.7286 14.251 39.7269 13.8012C39.7253 13.3513 39.8219 12.9067 40.0097 12.4995C40.1863 12.1515 40.4519 11.8583 40.7783 11.6508C41.1046 11.4446 41.4821 11.338 41.8661 11.3437C42.1989 11.3404 42.5269 11.4238 42.819 11.5862C43.108 11.7492 43.3505 11.986 43.5225 12.2732L46.3715 11.3986C45.9865 10.6262 45.3939 9.98093 44.6627 9.53793C43.9015 9.05942 42.9725 8.8207 41.8756 8.82178C40.7788 8.82286 39.853 9.05242 39.0981 9.51045C38.3568 9.94626 37.7466 10.5802 37.3338 11.3437C36.9267 12.0955 36.7157 12.9409 36.7208 13.7993C36.7172 14.4518 36.8352 15.0991 37.0686 15.7069C37.2978 16.3024 37.643 16.8446 38.0834 17.3008C38.543 17.7767 39.0938 18.1515 39.7016 18.4017C41.0417 18.9141 42.5147 18.9381 43.8703 18.4696C44.4305 18.261 44.9479 17.9486 45.3964 17.5482C45.8131 17.1782 46.1518 16.7262 46.3921 16.2193L43.5336 15.3254C43.4322 15.5187 43.294 15.6896 43.127 15.8281Z" fill="#454545"/>
<path d="M53.1906 8.70235C52.5977 8.72051 52.024 8.92117 51.5454 9.27786C50.9982 9.67905 50.5582 10.2131 50.2654 10.8314V8.96262H47.5784V18.6186H50.5004V12.7584C50.7877 12.285 51.2262 11.9265 51.7423 11.7432C52.3553 11.5063 53.0067 11.3895 53.6623 11.3988V8.72014C53.605 8.70691 53.5463 8.70093 53.4876 8.70235H53.1906Z" fill="#454545"/>
<path d="M59.0394 15.6244L56.8161 8.96237H53.7988L57.4514 18.6506C57.3782 18.9929 57.268 19.3258 57.1226 19.6432C57.0298 19.8564 56.8815 20.0397 56.6939 20.1735C56.515 20.2838 56.309 20.3399 56.0999 20.3351C55.9062 20.333 55.7131 20.3113 55.5235 20.2705C55.3107 20.2268 55.082 20.1686 54.8374 20.0943V22.6323C55.08 22.7281 55.331 22.8001 55.587 22.8473C55.8345 22.891 56.0853 22.9126 56.3366 22.912C56.9027 22.9182 57.4636 22.8013 57.9818 22.5693C58.4701 22.3489 58.9066 22.0248 59.2618 21.6187C59.6179 21.2111 59.8881 20.7336 60.0558 20.2155L63.7083 8.95752H60.9404L59.0394 15.6244Z" fill="#454545"/>
<path d="M73.7799 10.2896C73.4197 9.84004 72.972 9.47127 72.4649 9.20646C71.9458 8.94152 71.3718 8.80683 70.7911 8.81363C70.1388 8.79781 69.4939 8.95787 68.922 9.27759C68.3877 9.59192 67.9483 10.0493 67.6515 10.6V5.03564H64.7231V18.6151H67.264V16.9985C67.5675 17.5554 68.0166 18.0159 68.5615 18.3289C69.1496 18.6555 69.8117 18.8188 70.4814 18.8026C71.0849 18.8121 71.6833 18.6896 72.2362 18.4433C72.789 18.197 73.2835 17.8328 73.6862 17.3751C74.0938 16.9134 74.4132 16.3783 74.6279 15.7973C74.857 15.1774 74.9717 14.5197 74.9661 13.8574C74.9697 13.187 74.8624 12.5208 74.6485 11.8868C74.4548 11.3059 74.1606 10.765 73.7799 10.2896ZM71.7964 14.8161C71.6916 15.1029 71.5293 15.3644 71.3199 15.5839C71.1029 15.8082 70.844 15.9861 70.5585 16.1072C70.2729 16.2282 69.9665 16.29 69.6572 16.2888C69.4553 16.2874 69.2549 16.2536 69.0633 16.1885C68.865 16.1238 68.6748 16.0359 68.4964 15.9267C68.3172 15.8149 68.1547 15.6777 68.0136 15.5193C67.866 15.3547 67.743 15.169 67.6483 14.968V12.9877C67.7782 12.6799 67.9569 12.3959 68.1772 12.1471C68.388 11.9066 68.6405 11.7077 68.922 11.5602C69.2368 11.3986 69.5881 11.3251 69.94 11.3473C70.2919 11.3694 70.6317 11.4865 70.9245 11.6863C71.2514 11.9213 71.5125 12.2389 71.682 12.6078C71.8656 12.9965 71.9596 13.4228 71.9568 13.8542C71.9613 14.1837 71.907 14.5112 71.7964 14.8209V14.8161Z" fill="#454545"/>
<path d="M85.3965 11.3321C84.9874 10.5743 84.3836 9.94399 83.6497 9.50861C82.8874 9.04519 81.9642 8.81348 80.8801 8.81348C79.796 8.81348 78.8696 9.04788 78.101 9.5167C77.3602 9.95771 76.7509 10.5952 76.3382 11.3612C75.9249 12.138 75.7139 13.0095 75.7252 13.8928C75.7216 14.5318 75.838 15.1656 76.0683 15.76C76.2957 16.3499 76.6407 16.8854 77.0814 17.3329C77.5444 17.7987 78.0947 18.1649 78.6997 18.4096C79.3928 18.6839 80.1318 18.8179 80.8753 18.804C81.5564 18.8124 82.2336 18.6992 82.8763 18.4694C83.4514 18.263 83.9843 17.9506 84.4485 17.5479C84.8801 17.1757 85.2316 16.7167 85.4807 16.1997L82.9954 15.4933C82.8383 15.8649 82.557 16.1678 82.2014 16.3484C81.8237 16.5611 81.399 16.6724 80.9674 16.6718C80.6201 16.6727 80.2768 16.5954 79.9622 16.4454C79.6504 16.2989 79.3824 16.0708 79.1856 15.7842C78.9758 15.4672 78.853 15.0989 78.8299 14.7173H85.9222C85.9333 14.596 85.9492 14.4522 85.9667 14.2873C85.9859 14.1199 85.9954 13.9514 85.9952 13.7829C86.0037 12.9274 85.7976 12.0839 85.3965 11.3321ZM78.768 12.8873C78.8063 12.525 78.9246 12.1763 79.1142 11.8672C79.2923 11.5815 79.5416 11.3489 79.8367 11.1931C80.1507 11.0347 80.4963 10.9523 80.8467 10.9523C81.1971 10.9523 81.5428 11.0347 81.8567 11.1931C82.1554 11.3468 82.4078 11.5797 82.5872 11.8672C82.7766 12.1765 82.8954 12.5251 82.935 12.8873H78.768Z" fill="#454545"/>
</g>
<defs>
<clipPath id="clip0_4626_12668">
<rect width="86" height="24" fill="white"/>
</clipPath>
</defs>
</svg>
