<svg width="32" height="32" viewBox="0 0 32 32" fill="none" xmlns="http://www.w3.org/2000/svg">
<rect width="32" height="32" rx="16" fill="#006CFF"/>
<path d="M10.7386 9.36364H12.8295V17.5455C12.8258 18.2955 12.6667 18.9413 12.3523 19.483C12.0379 20.0208 11.5985 20.4356 11.0341 20.7273C10.4735 21.0152 9.82008 21.1591 9.07386 21.1591C8.39205 21.1591 7.77841 21.0379 7.23295 20.7955C6.69129 20.5492 6.26136 20.1856 5.94318 19.7045C5.625 19.2235 5.46591 18.625 5.46591 17.9091H7.5625C7.56629 18.2235 7.63447 18.4943 7.76705 18.7216C7.90341 18.9489 8.09091 19.1231 8.32955 19.2443C8.56818 19.3655 8.8428 19.4261 9.15341 19.4261C9.49053 19.4261 9.77652 19.3561 10.0114 19.2159C10.2462 19.072 10.4242 18.8598 10.5455 18.5795C10.6705 18.2992 10.7348 17.9545 10.7386 17.5455V9.36364ZM19.0597 21H15.1165V9.36364H19.1392C20.2945 9.36364 21.2869 9.59659 22.1165 10.0625C22.9498 10.5246 23.59 11.1894 24.0369 12.0568C24.4839 12.9242 24.7074 13.9621 24.7074 15.1705C24.7074 16.3826 24.482 17.4242 24.0312 18.2955C23.5843 19.1667 22.9384 19.8352 22.0938 20.3011C21.2528 20.767 20.2415 21 19.0597 21ZM17.2244 19.1761H18.9574C19.768 19.1761 20.4441 19.0284 20.9858 18.733C21.5275 18.4337 21.9347 17.9886 22.2074 17.3977C22.4801 16.803 22.6165 16.0606 22.6165 15.1705C22.6165 14.2803 22.4801 13.5417 22.2074 12.9545C21.9347 12.3636 21.5313 11.9223 20.9972 11.6307C20.4669 11.3352 19.8078 11.1875 19.0199 11.1875H17.2244V19.1761Z" fill="#F8F7F7"/>
</svg>
